<svg height="64" viewBox="0 0 72 64" width="72" xmlns="http://www.w3.org/2000/svg"><path d="m38.3381671 63.1588367v-59.0164706c2.1099798-2.53434067 5.3000069-4.1423661 8.8663804-4.1423661h24.5132387v59.0470919h-24.5960537c-3.4989738 0-6.658569 1.5950797-8.7835654 4.1117448zm-4.2597964.8411633c-2.0737732-2.9971381-5.5491784-4.9529081-9.482317-4.9529081h-24.5960537v-59.0470919h24.6788687c3.8550846 0 7.2981942 1.93628303 9.399502 4.90807959zm-27.68867619-49.0907128h21.29898169v-2.1298982h-21.29898169zm0 10.6494908h21.29898169v-2.1298981h-21.29898169zm0 10.6494909h21.29898169v-2.1298982h-21.29898169zm38.33816709-21.2989817h21.2989817v-2.1298982h-21.2989817zm0 10.6494908h21.2989817v-2.1298981h-21.2989817zm0 10.6494909h21.2989817v-2.1298982h-21.2989817z" fill="#e0be41"/></svg>