<svg height="64" viewBox="0 0 57 64" width="57" xmlns="http://www.w3.org/2000/svg"><path d="m0 55.8059522c0-4.9029959 4.09702392-8.7985268 8.8656911-8.7985268h18.6716828c4.9701601 0 8.7985267 3.8283666 8.7985267 8.7985268v8.1940478h-36.3359006zm18.1343682-12.4254004c-5.5746391 0-10.07464902-4.5671742-10.14181335-10.1418133 0-5.5746391 4.56717425-10.1418133 10.14181335-10.1418133s10.1418133 4.5671742 10.1418133 10.1418133-4.5671742 10.1418133-10.1418133 10.1418133zm23.7761715 1.4776151c-4.4328455 0-7.9253905-3.6940379-7.9253905-7.9925548s3.492545-7.9253905 7.9253905-7.9253905c4.2985169 0 7.9253906 3.6940379 7.9253906 7.9925548s-3.492545 7.9253905-7.9253906 7.9253905zm7.3209116 2.8880661c3.895531 0 6.98509 3.089559 6.98509 6.9179256v9.3358414h-16.656753l-.3358216-8.1268835c0-3.2238877-1.4104509-6.179118-3.694038-8.1268835zm1.6791082-38.88814506c1.6791082 6.38061106-2.0820941 12.82838636-8.3955408 14.50749456l-12.5597291 3.291052 3.089559-4.7686672c-2.4179157-1.5447795-4.2985169-3.9626953-5.1044888-6.98509-1.6791081-6.31344667 2.1492585-12.82838634 8.4627052-14.5074945 6.380611-1.67910816 12.8283863 2.14925845 14.5074945 8.46270514zm-6.380611 1.88060116 1.8806011 1.1417935-.3358216-5.30598176-5.2388175 1.81343681 1.8806012 1.07462923-2.3507515 2.41791572-3.1567233-2.08209409-4.7686672 5.44031049 1.6791082 1.4776151 3.3582163-3.9626952 3.089559 2.0820941z" fill="#e0be41"/></svg>