<svg height="24" viewBox="0 0 24 24" width="24" xmlns="http://www.w3.org/2000/svg"><g fill="none" fill-rule="evenodd"><path d="m0 0h24v24h-24z"/><g fill-rule="nonzero" transform="translate(2 3)"><path d="m10 8h2v2h-2v2h2v2h-2v2h8v-10h-8zm4 0h2v2h-2zm0 4h2v2h-2z" fill="#e0be41"/><path d="m10 4v-4h-10v18h20v-14zm-6 12h-2v-2h2zm0-4h-2v-2h2zm0-4h-2v-2h2zm0-4h-2v-2h2zm4 12h-2v-2h2zm0-4h-2v-2h2zm0-4h-2v-2h2zm0-4h-2v-2h2zm10 12h-8v-2h2v-2h-2v-2h2v-2h-2v-2h8zm-4-8v2h2v-2zm0 4v2h2v-2z" fill="#3e4241"/></g></g></svg>