<svg height="16" viewBox="0 0 20 16" width="20" xmlns="http://www.w3.org/2000/svg"><g fill="none" fill-rule="evenodd" transform="translate(-2 -4)"><path d="m0 0h24v24h-24z"/><g fill-rule="nonzero"><path d="m4 18h16v-12h-16zm5-4h4v-1h-3c-.55 0-1-.45-1-1v-3c0-.55.45-1 1-1h1v-1h2v1h2v2h-4v1h3c.55 0 1 .45 1 1v3c0 .55-.45 1-1 1h-1v1h-2v-1h-2z" fill="#e0be41"/><path d="m20 4h-16c-1.11 0-1.99.89-1.99 2l-.01 12c0 1.11.89 2 2 2h16c1.11 0 2-.89 2-2v-12c0-1.11-.89-2-2-2zm0 14h-16v-12h16zm-9-1h2v-1h1c.55 0 1-.45 1-1v-3c0-.55-.45-1-1-1h-3v-1h4v-2h-2v-1h-2v1h-1c-.55 0-1 .45-1 1v3c0 .55.45 1 1 1h3v1h-4v2h2z" fill="#3e4241"/></g></g></svg>