<svg height="22" viewBox="0 0 22 22" width="22" xmlns="http://www.w3.org/2000/svg"><g fill="none" fill-rule="evenodd" transform="translate(-1 -1)"><path d="m0 0h24v24h-24z"/><g fill-rule="nonzero"><path d="m11 16c0 .55.45 1 1 1s1-.45 1-1v-2h-2zm-8 0c0 .55.45 1 1 1s1-.45 1-1v-2h-2zm16 0c0 .55.45 1 1 1s1-.45 1-1v-2h-2z" fill="#e0be41"/><path d="m5 2c0-.55-.45-1-1-1s-1 .45-1 1v4h-2v10c0 1.3.84 2.4 2 2.82v4.18h2v-4.18c1.16-.42 2-1.52 2-2.82v-10h-2zm0 14c0 .55-.45 1-1 1s-1-.45-1-1v-2h2zm0-4h-2v-4h2zm8-10c0-.55-.45-1-1-1s-1 .45-1 1v4h-2v10c0 1.3.84 2.4 2 2.82v4.18h2v-4.18c1.16-.42 2-1.52 2-2.82v-10h-2zm0 14c0 .55-.45 1-1 1s-1-.45-1-1v-2h2zm0-4h-2v-4h2zm8-6v-4c0-.55-.45-1-1-1s-1 .45-1 1v4h-2v10c0 1.3.84 2.4 2 2.82v4.18h2v-4.18c1.16-.42 2-1.52 2-2.82v-10zm0 10c0 .55-.45 1-1 1s-1-.45-1-1v-2h2zm0-4h-2v-4h2z" fill="#3e4241"/></g></g></svg>