<?xml version="1.0" encoding="utf-8"?>
<!-- Generator: Adobe Illustrator 23.0.6, SVG Export Plug-In . SVG Version: 6.00 Build 0)  -->
<svg version="1.1" id="Layer_1" xmlns="http://www.w3.org/2000/svg" xmlns:xlink="http://www.w3.org/1999/xlink" x="0px" y="0px"
	 viewBox="0 0 905 924" style="enable-background:new 0 0 905 924;" xml:space="preserve">
<style type="text/css">
	.st0{opacity:0.5;fill-rule:evenodd;clip-rule:evenodd;fill:#E0BE41;enable-background:new    ;}
	.st1{fill-rule:evenodd;clip-rule:evenodd;fill:#1DAB78;}
	.st2{fill:#FFFFFF;}
	.st3{fill:#3A3E41;}
	.st4{font-family:'FranklinGothicURW-Lig';}
	.st5{font-size:34px;}
	.st6{fill:#3E4241;}
	.st7{enable-background:new    ;}
</style>
<circle class="st0" cx="453" cy="283" r="280"/>
<circle class="st0" cx="453" cy="641" r="280"/>
<circle class="st0" cx="283" cy="459" r="280"/>
<circle class="st0" cx="622" cy="459" r="280"/>
<path class="st1" d="M355.7,545.6c-8.9-27.3-13.7-56.4-13.7-86.6c0-27.7,4-54.5,11.5-79.8C384.4,367.4,418,361,453,361
	c34.6,0,67.7,6.3,98.3,17.8c7.6,25.4,11.7,52.4,11.7,80.2c0,30.4-4.8,59.6-13.8,87c-30,11-62.4,17-96.2,17
	C418.8,563,386,556.9,355.7,545.6L355.7,545.6z"/>
<path class="st2" d="M453,566c-156.3,0-283-126.7-283-283S296.7,0,453,0s283,126.7,283,283S609.3,566,453,566z M453,560
	c153,0,277-124,277-277S606,6,453,6S176,130,176,283S300,560,453,560z"/>
<path class="st2" d="M453,566c-156.3,0-283-126.7-283-283S296.7,0,453,0s283,126.7,283,283S609.3,566,453,566z M453,560
	c153,0,277-124,277-277S606,6,453,6S176,130,176,283S300,560,453,560z"/>
<path class="st2" d="M453,924c-156.3,0-283-126.7-283-283s126.7-283,283-283s283,126.7,283,283S609.3,924,453,924z M453,918
	c153,0,277-124,277-277S606,364,453,364S176,488,176,641S300,918,453,918z"/>
<path class="st2" d="M283,742C126.7,742,0,615.3,0,459s126.7-283,283-283s283,126.7,283,283S439.3,742,283,742z M283,736
	c153,0,277-124,277-277S436,182,283,182S6,306,6,459S130,736,283,736z"/>
<path class="st2" d="M622,742c-156.3,0-283-126.7-283-283s126.7-283,283-283s283,126.7,283,283S778.3,742,622,742z M622,736
	c153,0,277-124,277-277S775,182,622,182S345,306,345,459S469,736,622,736z"/>
<text transform="matrix(1 0 0 1 531.3213 90)" class="st3 st4 st5"> </text>
<text transform="matrix(1 0 0 1 852.0899 460)" class="st6 st4 st5"> </text>
<text transform="matrix(1 0 0 1 180.3213 416)" class="st6 st4 st5"> </text>
<text transform="matrix(1 0 0 1 135.3434 460)" class="st6 st4 st5"> </text>
<text transform="matrix(1 0 0 1 512.5004 810)" class="st3 st4 st5"> </text>
<g>
	<g class="st7">
		<path class="st6" d="M565.2,278.3h6.4l1.7,9.6c0.3,1.9,0.6,4.1,0.7,6.5c0.1-2,0.5-4.8,1-7l1.9-9.1h6.3V301h-4.5v-12.9
			c0-1.6,0-2,0.2-6.9l-0.3,1.9c-0.1,0.9-0.2,1.7-0.4,2.6c-0.1,1-0.3,1.9-0.3,2.1l-2.8,13.1h-2.9l-2.7-13.3c-0.3-1.4-0.4-2.7-0.9-6.5
			c0,0.4,0.1,2.8,0.1,6.3V301h-3.7V278.3z"/>
		<path class="st6" d="M586.9,278.3h4.7V301h-4.7V278.3z"/>
		<path class="st6" d="M603.2,284.7c-0.4-1.8-1.3-2.7-2.5-2.7c-1.2,0-2,0.9-2,2.2c0,0.8,0.3,1.4,0.8,1.9c0.6,0.4,0.6,0.4,3.2,1.7
			c3.1,1.4,4.4,3.3,4.4,6.4c0,4.4-2.7,7.2-6.9,7.2c-3.7,0-5.9-2-6.7-6.1l3.7-1.3c0.5,2.4,1.4,3.3,3,3.3c1.4,0,2.3-0.9,2.3-2.4
			c0-0.7-0.3-1.4-0.7-1.8c-0.4-0.4-0.4-0.4-3.1-1.7c-3-1.5-4.3-3.5-4.3-6.5c0-3.9,2.7-6.9,6.2-6.9c3.1,0,5.1,1.7,6.2,5.2
			L603.2,284.7z"/>
		<path class="st6" d="M618.2,284.7c-0.4-1.8-1.3-2.7-2.5-2.7c-1.2,0-2,0.9-2,2.2c0,0.8,0.3,1.4,0.8,1.9c0.6,0.4,0.6,0.4,3.2,1.7
			c3.1,1.4,4.4,3.3,4.4,6.4c0,4.4-2.7,7.2-6.9,7.2c-3.7,0-5.9-2-6.7-6.1l3.7-1.3c0.5,2.4,1.4,3.3,3,3.3c1.4,0,2.3-0.9,2.3-2.4
			c0-0.7-0.3-1.4-0.7-1.8c-0.4-0.4-0.4-0.4-3.1-1.7c-3-1.5-4.3-3.5-4.3-6.5c0-3.9,2.7-6.9,6.2-6.9c3.1,0,5.1,1.7,6.2,5.2
			L618.2,284.7z"/>
		<path class="st6" d="M624.3,278.3h4.7V301h-4.7V278.3z"/>
		<path class="st6" d="M646.1,289.8c0,7.9-2.2,11.5-7.1,11.5c-4.8,0-7-3.8-7-11.8c0-7.9,2.3-11.6,7.2-11.6
			C643.9,278,646.1,281.8,646.1,289.8z M636.9,289.7c0,6,0.5,7.6,2.2,7.6c1.8,0,2.1-1.3,2.1-7.9c0-5.7-0.5-7.3-2.1-7.3
			C637.3,282,636.9,283.6,636.9,289.7z"/>
		<path class="st6" d="M649.1,278.3h4.6l3.7,10.4c0.3,0.9,0.6,2,1.1,4.5c-0.1-1.9-0.3-5.3-0.3-6.9v-8h3.8V301h-3.8l-4.3-11.6
			c-0.5-1.3-0.9-2.6-1.3-4.7c0.2,2.2,0.4,5.8,0.4,6.7v9.6h-3.8V278.3z"/>
	</g>
	<g>
		<g class="st7">
			<path class="st3" d="M346.3,79.2h-6.6V100h-2.2V79.2h-6.7v-1.9h15.5V79.2z"/>
			<path class="st3" d="M363.3,100V88.7h-11.5V100h-2.2V77.3h2.2v9.5h11.5v-9.5h2.2V100H363.3z"/>
			<path class="st3" d="M383.4,100l-2.2-7.1H373l-2.2,7.1h-1.9l7.3-22.7h2.3l7.3,22.7H383.4z M377,80l-3.5,11h7L377,80z"/>
			<path class="st3" d="M399.8,79.2h-6.6V100h-2.2V79.2h-6.7v-1.9h15.5V79.2z"/>
			<path class="st3" d="M429.7,100h-2.1l-5.1-18.1l-4.9,18.1h-2.3l-5.5-22.7h2.2l4.6,19.3l5.2-19.3h1.4l5.5,19.3l4.2-19.3h1.9
				L429.7,100z"/>
			<path class="st3" d="M452,100V88.7h-11.5V100h-2.2V77.3h2.2v9.5H452v-9.5h2.2V100H452z"/>
			<path class="st3" d="M459.9,100V77.3h2.2V100H459.9z"/>
			<path class="st3" d="M482.3,84.3c-1-3.7-3.2-5.7-6.2-5.7c-4.3,0-7,3.8-7,10.1c0,6.1,2.7,10,6.9,10c3.2,0,5.4-2.2,6.4-6.2l2,0.6
				c-1.2,4.8-4.1,7.3-8.4,7.3c-5.6,0-9.2-4.6-9.2-11.9c0-7.2,3.6-11.8,9.2-11.8c4.1,0,7.1,2.5,8.3,6.9L482.3,84.3z"/>
			<path class="st3" d="M501.8,100V88.7h-11.5V100h-2.2V77.3h2.2v9.5h11.5v-9.5h2.2V100H501.8z"/>
			<path class="st3" d="M525.4,100h-2.2v-9.6l-7.5-13.1h2.4l6.4,11.2l6.5-11.2h1.9l-7.6,13.1V100z"/>
			<path class="st3" d="M551.9,88.8c0,3.3-0.8,6.2-2.4,8.3c-1.7,2.3-3.9,3.4-6.8,3.4c-5.5,0-9.1-4.7-9.1-11.9
				c0-7.2,3.6-11.8,9.1-11.8C548.3,76.8,551.9,81.4,551.9,88.8z M535.8,88.6c0,6.2,2.7,10,6.9,10c4.3,0,6.9-3.8,6.9-10.1
				c0-6-2.7-9.9-6.9-9.9C538.5,78.7,535.8,82.5,535.8,88.6z"/>
			<path class="st3" d="M558.4,77.3v14.9c0,2.2,0.2,3.3,0.6,4.2c0.8,1.4,2.5,2.2,4.9,2.2c2.5,0,4.3-0.8,5.1-2.2
				c0.5-0.9,0.7-2,0.7-4.2V77.3h2v14.9c0,2.9-0.3,4.3-1.2,5.6c-1.3,1.7-3.5,2.7-6.6,2.7c-3.4,0-5.8-1.2-6.9-3.3
				c-0.6-1.2-0.8-2.4-0.8-5.1V77.3H558.4z"/>
		</g>
		<g class="st7">
			<path class="st3" d="M425.7,118.3h4.7v18.5h5.8v4.2h-10.4V118.3z"/>
			<path class="st3" d="M451.6,129.8c0,7.9-2.2,11.5-7.1,11.5c-4.8,0-7-3.8-7-11.8c0-7.9,2.3-11.6,7.2-11.6
				C449.3,118,451.6,121.8,451.6,129.8z M442.3,129.7c0,6,0.5,7.6,2.2,7.6c1.8,0,2.1-1.3,2.1-7.9c0-5.7-0.5-7.3-2.1-7.3
				C442.8,122,442.3,123.6,442.3,129.7z"/>
			<path class="st3" d="M452.5,118.3h4.8l1.9,11c0.3,2.1,0.6,4.6,0.7,6.1c0.2-2.2,0.4-4.2,0.7-6.1l1.9-11h4l-4.7,22.7h-4.8
				L452.5,118.3z"/>
			<path class="st3" d="M473.3,127.6h5.5v3.8h-5.5v5.7h7.2v4h-11.8v-22.7h11.8v4h-7.2V127.6z"/>
		</g>
	</g>
	<g class="st7">
		<path class="st6" d="M212.9,278.3h5.7c3,0,3.9,0.2,5.1,1.3c1.3,1.2,2.1,3.4,2.1,5.8c0,2.8-1,5.1-2.5,6.2c-1.2,0.7-2.1,1-4.5,1
			h-1.4v8.4h-4.6V278.3z M218.6,288.7c1.8,0,2.4-0.9,2.4-3.4c0-2.3-0.7-3.3-2.4-3.3h-1.1v6.8H218.6z"/>
		<path class="st6" d="M235.5,278.3l5.1,22.7H236l-0.9-4.9h-4.5l-0.9,4.9h-4.1l5.2-22.7H235.5z M233.3,286.4
			c-0.3-1.4-0.4-2.1-0.5-3.8c-0.2,1.5-0.3,2.5-0.5,3.6l-1.2,6.3h3.5L233.3,286.4z"/>
		<path class="st6" d="M250.8,284.7c-0.4-1.8-1.3-2.7-2.5-2.7c-1.2,0-2,0.9-2,2.2c0,0.8,0.3,1.4,0.8,1.9c0.6,0.4,0.6,0.4,3.2,1.7
			c3.1,1.4,4.4,3.3,4.4,6.4c0,4.4-2.7,7.2-6.9,7.2c-3.7,0-5.9-2-6.7-6.1l3.7-1.3c0.5,2.4,1.4,3.3,3,3.3c1.4,0,2.3-0.9,2.3-2.4
			c0-0.7-0.3-1.4-0.7-1.8c-0.4-0.4-0.4-0.4-3.1-1.7c-3-1.5-4.3-3.5-4.3-6.5c0-3.9,2.7-6.9,6.2-6.9c3.1,0,5.1,1.7,6.2,5.2
			L250.8,284.7z"/>
		<path class="st6" d="M265.8,284.7c-0.4-1.8-1.3-2.7-2.5-2.7c-1.2,0-2,0.9-2,2.2c0,0.8,0.3,1.4,0.8,1.9c0.6,0.4,0.6,0.4,3.2,1.7
			c3.1,1.4,4.4,3.3,4.4,6.4c0,4.4-2.7,7.2-6.9,7.2c-3.7,0-5.9-2-6.7-6.1l3.7-1.3c0.5,2.4,1.4,3.3,3,3.3c1.4,0,2.3-0.9,2.3-2.4
			c0-0.7-0.3-1.4-0.7-1.8c-0.4-0.4-0.4-0.4-3.1-1.7c-3-1.5-4.3-3.5-4.3-6.5c0-3.9,2.7-6.9,6.2-6.9c3.1,0,5.1,1.7,6.2,5.2
			L265.8,284.7z"/>
		<path class="st6" d="M271.9,278.3h4.7V301h-4.7V278.3z"/>
		<path class="st6" d="M293.8,289.8c0,7.9-2.2,11.5-7.1,11.5c-4.8,0-7-3.8-7-11.8c0-7.9,2.3-11.6,7.2-11.6
			C291.5,278,293.8,281.8,293.8,289.8z M284.5,289.7c0,6,0.5,7.6,2.2,7.6c1.8,0,2.1-1.3,2.1-7.9c0-5.7-0.5-7.3-2.1-7.3
			C284.9,282,284.5,283.6,284.5,289.7z"/>
		<path class="st6" d="M296.7,278.3h4.6l3.7,10.4c0.3,0.9,0.6,2,1.1,4.5c-0.1-1.9-0.3-5.3-0.3-6.9v-8h3.8V301h-3.8l-4.3-11.6
			c-0.5-1.3-0.9-2.6-1.3-4.7c0.2,2.2,0.4,5.8,0.4,6.7v9.6h-3.8V278.3z"/>
	</g>
	<g class="st7">
		<path class="st6" d="M203,622.3h5.7c3,0,3.9,0.2,5.1,1.3c1.3,1.2,2.1,3.4,2.1,5.8c0,2.8-1,5.1-2.5,6.2c-1.2,0.7-2.1,1-4.5,1h-1.4
			v8.4H203V622.3z M208.6,632.7c1.8,0,2.4-0.9,2.4-3.4c0-2.3-0.7-3.3-2.4-3.3h-1.1v6.8H208.6z"/>
		<path class="st6" d="M218.2,622.3h5.8c3.1,0,4.1,0.3,5.3,1.5c1.3,1.3,1.9,3.1,1.9,5.3c0,3.1-0.9,4.8-3,6.1l3.4,9.8h-4.9l-2.6-8.9
			h-1.4v8.9h-4.6V622.3z M224,632.4c1.7,0,2.5-1.1,2.5-3.3c0-2.1-0.8-3.2-2.5-3.2h-1.3v6.5H224z"/>
		<path class="st6" d="M247.5,633.8c0,7.9-2.2,11.5-7.1,11.5c-4.8,0-7-3.8-7-11.8c0-7.9,2.3-11.6,7.2-11.6
			C245.2,622,247.5,625.8,247.5,633.8z M238.2,633.7c0,6,0.5,7.6,2.2,7.6c1.8,0,2.1-1.3,2.1-7.9c0-5.7-0.5-7.3-2.1-7.3
			C238.7,626,238.2,627.6,238.2,633.7z"/>
		<path class="st6" d="M255.1,632.2h5v3.8h-5v9h-4.7v-22.7h11.2v4h-6.5V632.2z"/>
		<path class="st6" d="M268.1,631.6h5.5v3.8h-5.5v5.7h7.2v4h-11.8v-22.7h11.8v4h-7.2V631.6z"/>
		<path class="st6" d="M286.3,628.7c-0.4-1.8-1.3-2.7-2.5-2.7c-1.2,0-2,0.9-2,2.2c0,0.8,0.3,1.4,0.8,1.9c0.6,0.4,0.6,0.4,3.2,1.7
			c3.1,1.4,4.4,3.3,4.4,6.4c0,4.4-2.7,7.2-6.9,7.2c-3.7,0-5.9-2-6.7-6.1l3.7-1.3c0.5,2.4,1.4,3.3,3,3.3c1.4,0,2.3-0.9,2.3-2.4
			c0-0.7-0.3-1.4-0.7-1.8c-0.4-0.4-0.4-0.4-3.1-1.7c-3-1.5-4.3-3.5-4.3-6.5c0-3.9,2.7-6.9,6.2-6.9c3.1,0,5.1,1.7,6.2,5.2
			L286.3,628.7z"/>
		<path class="st6" d="M301.2,628.7c-0.4-1.8-1.3-2.7-2.5-2.7c-1.2,0-2,0.9-2,2.2c0,0.8,0.3,1.4,0.8,1.9c0.6,0.4,0.6,0.4,3.2,1.7
			c3.1,1.4,4.4,3.3,4.4,6.4c0,4.4-2.7,7.2-6.9,7.2c-3.7,0-5.9-2-6.7-6.1l3.7-1.3c0.5,2.4,1.4,3.3,3,3.3c1.4,0,2.3-0.9,2.3-2.4
			c0-0.7-0.3-1.4-0.7-1.8c-0.4-0.4-0.4-0.4-3.1-1.7c-3-1.5-4.3-3.5-4.3-6.5c0-3.9,2.7-6.9,6.2-6.9c3.1,0,5.1,1.7,6.2,5.2
			L301.2,628.7z"/>
		<path class="st6" d="M307.3,622.3h4.7V645h-4.7V622.3z"/>
		<path class="st6" d="M329.2,633.8c0,7.9-2.2,11.5-7.1,11.5c-4.8,0-7-3.8-7-11.8c0-7.9,2.3-11.6,7.2-11.6
			C326.9,622,329.2,625.8,329.2,633.8z M319.9,633.7c0,6,0.5,7.6,2.2,7.6c1.8,0,2.1-1.3,2.1-7.9c0-5.7-0.5-7.3-2.1-7.3
			C320.4,626,319.9,627.6,319.9,633.7z"/>
		<path class="st6" d="M332.2,622.3h4.6l3.7,10.4c0.3,0.9,0.6,2,1.1,4.5c-0.1-1.9-0.3-5.3-0.3-6.9v-8h3.8V645h-3.8l-4.3-11.6
			c-0.5-1.3-0.9-2.6-1.3-4.7c0.2,2.2,0.4,5.8,0.4,6.7v9.6h-3.8V622.3z"/>
	</g>
	<g class="st7">
		<path class="st6" d="M543.9,622.3h4.8l1.9,11c0.3,2.1,0.6,4.6,0.7,6.1c0.2-2.2,0.4-4.2,0.7-6.1l1.9-11h4l-4.7,22.7h-4.8
			L543.9,622.3z"/>
		<path class="st6" d="M573.1,633.8c0,7.9-2.2,11.5-7.1,11.5c-4.8,0-7-3.8-7-11.8c0-7.9,2.3-11.6,7.2-11.6
			C570.9,622,573.1,625.8,573.1,633.8z M563.9,633.7c0,6,0.5,7.6,2.2,7.6c1.8,0,2.1-1.3,2.1-7.9c0-5.7-0.5-7.3-2.1-7.3
			C564.3,626,563.9,627.6,563.9,633.7z"/>
		<path class="st6" d="M585.4,631.1c-0.1-3.7-0.8-5-2.6-5c-1.9,0-2.5,1.8-2.5,8c0,5.6,0.5,7.2,2.4,7.2c1.7,0,2.3-1,2.7-4.5l3.9,0.3
			c-0.2,2.5-0.5,4-1.3,5.3c-1.2,2-2.9,3-5.4,3c-4.8,0-7.2-3.9-7.2-11.6c0-7.6,2.6-11.7,7.4-11.7c2.8,0,4.8,1.3,5.8,3.6
			c0.5,1.3,0.8,2.7,1,5.2L585.4,631.1z"/>
		<path class="st6" d="M600.1,622.3l5.1,22.7h-4.7l-0.9-4.9h-4.5l-0.9,4.9H590l5.2-22.7H600.1z M597.8,630.4
			c-0.3-1.4-0.4-2.1-0.5-3.8c-0.2,1.5-0.3,2.5-0.5,3.6l-1.2,6.3h3.5L597.8,630.4z"/>
		<path class="st6" d="M612.7,645h-4.7v-18.4h-3.7v-4.3h12.2v4.3h-3.8V645z"/>
		<path class="st6" d="M618.7,622.3h4.7V645h-4.7V622.3z"/>
		<path class="st6" d="M640.5,633.8c0,7.9-2.2,11.5-7.1,11.5c-4.8,0-7-3.8-7-11.8c0-7.9,2.3-11.6,7.2-11.6
			C638.3,622,640.5,625.8,640.5,633.8z M631.3,633.7c0,6,0.5,7.6,2.2,7.6c1.8,0,2.1-1.3,2.1-7.9c0-5.7-0.5-7.3-2.1-7.3
			C631.7,626,631.3,627.6,631.3,633.7z"/>
		<path class="st6" d="M643.5,622.3h4.6l3.7,10.4c0.3,0.9,0.6,2,1.1,4.5c-0.1-1.9-0.3-5.3-0.3-6.9v-8h3.8V645h-3.8l-4.3-11.6
			c-0.5-1.3-0.9-2.6-1.3-4.7c0.2,2.2,0.4,5.8,0.4,6.7v9.6h-3.8V622.3z"/>
	</g>
	<g>
		<g class="st7">
			<path class="st6" d="M811.9,365.2h-6.6V386h-2.2v-20.8h-6.7v-1.9h15.5V365.2z"/>
			<path class="st6" d="M829,386v-11.3h-11.5V386h-2.2v-22.7h2.2v9.5H829v-9.5h2.2V386H829z"/>
			<path class="st6" d="M849,386l-2.2-7.1h-8.2l-2.2,7.1h-1.9l7.3-22.7h2.3l7.3,22.7H849z M842.7,366l-3.5,11h7L842.7,366z"/>
			<path class="st6" d="M865.4,365.2h-6.6V386h-2.2v-20.8h-6.7v-1.9h15.5V365.2z"/>
			<path class="st6" d="M788.4,426.8h-2.1l-5.1-18.1l-4.9,18.1H774l-5.5-22.7h2.2l4.6,19.3l5.2-19.3h1.4l5.5,19.3l4.2-19.3h1.9
				L788.4,426.8z"/>
			<path class="st6" d="M810.7,426.8v-11.3h-11.5v11.3h-2.2v-22.7h2.2v9.5h11.5v-9.5h2.2v22.7H810.7z"/>
			<path class="st6" d="M818.6,426.8v-22.7h2.2v22.7H818.6z"/>
			<path class="st6" d="M841,411.1c-1-3.7-3.2-5.7-6.2-5.7c-4.3,0-7,3.8-7,10.1c0,6.1,2.7,10,6.9,10c3.2,0,5.4-2.2,6.4-6.2l2,0.6
				c-1.2,4.8-4.1,7.3-8.4,7.3c-5.6,0-9.2-4.6-9.2-11.9c0-7.2,3.6-11.8,9.2-11.8c4.1,0,7.1,2.5,8.3,6.9L841,411.1z"/>
			<path class="st6" d="M860.6,426.8v-11.3h-11.5v11.3h-2.2v-22.7h2.2v9.5h11.5v-9.5h2.2v22.7H860.6z"/>
			<path class="st6" d="M709.8,446.8h-6.6v20.8h-2.2v-20.8h-6.7v-1.9h15.5V446.8z"/>
			<path class="st6" d="M726.8,467.6v-11.3h-11.5v11.3h-2.2v-22.7h2.2v9.5h11.5v-9.5h2.2v22.7H726.8z"/>
			<path class="st6" d="M749.9,467.6h-14.6v-22.7h14.2v1.9h-12v7.9h9.5v1.8h-9.5v9.1h12.4V467.6z"/>
			<path class="st6" d="M780.5,467.6h-2.1l-5.1-18.1l-4.9,18.1h-2.3l-5.5-22.7h2.2l4.6,19.3l5.2-19.3h1.4l5.5,19.3l4.2-19.3h1.9
				L780.5,467.6z"/>
			<path class="st6" d="M805.9,456.4c0,3.3-0.8,6.2-2.4,8.3c-1.7,2.3-3.9,3.4-6.8,3.4c-5.5,0-9.1-4.7-9.1-11.9
				c0-7.2,3.6-11.8,9.1-11.8C802.4,444.4,805.9,449,805.9,456.4z M789.9,456.2c0,6.2,2.7,10,6.9,10c4.3,0,6.9-3.8,6.9-10.1
				c0-6-2.7-9.9-6.9-9.9C792.5,446.2,789.9,450.1,789.9,456.2z"/>
			<path class="st6" d="M812.8,457.6v10h-2.2v-22.7h8.5c4.4,0,6.8,2.1,6.8,6.1c0,3.1-1.5,5.3-4.3,6.2l4.7,10.4h-2.5l-4.5-10H812.8z
				 M818.9,455.7c3,0,4.7-1.6,4.7-4.6c0-2.8-1.6-4.2-4.4-4.2h-6.4v8.9H818.9z"/>
			<path class="st6" d="M843.5,467.6h-13.1v-22.7h2.2v20.8h10.9V467.6z"/>
			<path class="st6" d="M854,444.9c3.5,0,5.6,0.7,7.4,2.8s2.8,5,2.8,8.6c0,4-1.2,7.2-3.5,9.2c-1.8,1.6-3.6,2.1-6.8,2.1h-7.1v-22.7
				H854z M849.1,465.7h4.9c5.3,0,8-3.2,8-9.5c0-6.2-2.7-9.4-8-9.4h-4.9V465.7z"/>
		</g>
		<g class="st7">
			<path class="st6" d="M790.6,485.3h4.6l3.7,10.4c0.3,0.9,0.6,2,1.1,4.5c-0.1-1.9-0.3-5.3-0.3-6.9v-8h3.8V508h-3.8l-4.3-11.6
				c-0.5-1.3-0.9-2.6-1.3-4.7c0.2,2.2,0.4,5.8,0.4,6.7v9.6h-3.8V485.3z"/>
			<path class="st6" d="M811.7,494.6h5.5v3.8h-5.5v5.7h7.2v4H807v-22.7h11.8v4h-7.2V494.6z"/>
			<path class="st6" d="M825.8,494.6h5.5v3.8h-5.5v5.7h7.2v4h-11.8v-22.7H833v4h-7.2V494.6z"/>
			<path class="st6" d="M835.3,485.3h4.4c3.5,0,5,0.4,6.5,1.6c2.1,1.7,3.2,5,3.2,9.5c0,4.9-1.2,8.3-3.4,10.2c-1.2,1-2.6,1.4-4.5,1.4
				h-6.1V485.3z M841.2,504c1.2,0,1.9-0.3,2.3-0.9c0.6-1,0.9-3.1,0.9-6.4c0-3-0.3-5.3-0.8-6.3c-0.4-0.8-1.2-1.2-2.4-1.2h-1.4V504
				H841.2z"/>
			<path class="st6" d="M860.3,491.7c-0.4-1.8-1.3-2.7-2.5-2.7c-1.2,0-2,0.9-2,2.2c0,0.8,0.3,1.4,0.8,1.9c0.6,0.4,0.6,0.4,3.2,1.7
				c3.1,1.4,4.4,3.3,4.4,6.4c0,4.4-2.7,7.2-6.9,7.2c-3.7,0-5.9-2-6.7-6.1l3.7-1.3c0.5,2.4,1.4,3.3,3,3.3c1.4,0,2.3-0.9,2.3-2.4
				c0-0.7-0.3-1.4-0.7-1.8c-0.4-0.4-0.4-0.4-3.1-1.7c-3-1.5-4.3-3.5-4.3-6.5c0-3.9,2.7-6.9,6.2-6.9c3.1,0,5.1,1.7,6.2,5.2
				L860.3,491.7z"/>
		</g>
	</g>
	<g>
		<g class="st7">
			<path class="st6" d="M64.8,365.2h-6.6V386H56v-20.8h-6.7v-1.9h15.5V365.2z"/>
			<path class="st6" d="M81.9,386v-11.3H70.4V386h-2.2v-22.7h2.2v9.5h11.5v-9.5h2.2V386H81.9z"/>
			<path class="st6" d="M101.9,386l-2.2-7.1h-8.2l-2.2,7.1h-1.9l7.3-22.7h2.3l7.3,22.7H101.9z M95.5,366l-3.5,11h7L95.5,366z"/>
			<path class="st6" d="M118.3,365.2h-6.6V386h-2.2v-20.8h-6.7v-1.9h15.5V365.2z"/>
			<path class="st6" d="M69.6,426.8h-2.1l-5.1-18.1l-4.9,18.1h-2.3l-5.5-22.7h2.2l4.6,19.3l5.2-19.3h1.4l5.5,19.3l4.2-19.3h1.9
				L69.6,426.8z"/>
			<path class="st6" d="M91.9,426.8v-11.3H80.4v11.3h-2.2v-22.7h2.2v9.5h11.5v-9.5h2.2v22.7H91.9z"/>
			<path class="st6" d="M99.8,426.8v-22.7h2.2v22.7H99.8z"/>
			<path class="st6" d="M122.2,411.1c-1-3.7-3.2-5.7-6.2-5.7c-4.3,0-7,3.8-7,10.1c0,6.1,2.7,10,6.9,10c3.2,0,5.4-2.2,6.4-6.2l2,0.6
				c-1.2,4.8-4.1,7.3-8.4,7.3c-5.6,0-9.2-4.6-9.2-11.9c0-7.2,3.6-11.8,9.2-11.8c4.1,0,7.1,2.5,8.3,6.9L122.2,411.1z"/>
			<path class="st6" d="M141.8,426.8v-11.3h-11.5v11.3h-2.2v-22.7h2.2v9.5h11.5v-9.5h2.2v22.7H141.8z"/>
			<path class="st6" d="M58.3,467.6h-2.2V458l-7.5-13.1h2.4l6.4,11.2l6.5-11.2H66L58.3,458V467.6z"/>
			<path class="st6" d="M84.8,456.4c0,3.3-0.8,6.2-2.4,8.3c-1.7,2.3-3.9,3.4-6.8,3.4c-5.5,0-9.1-4.7-9.1-11.9
				c0-7.2,3.6-11.8,9.1-11.8C81.3,444.4,84.8,449,84.8,456.4z M68.8,456.2c0,6.2,2.7,10,6.9,10c4.3,0,6.9-3.8,6.9-10.1
				c0-6-2.7-9.9-6.9-9.9C71.4,446.2,68.8,450.1,68.8,456.2z"/>
			<path class="st6" d="M91.4,444.9v14.9c0,2.2,0.2,3.3,0.6,4.2c0.8,1.4,2.5,2.2,4.9,2.2c2.5,0,4.3-0.8,5.1-2.2
				c0.5-0.9,0.7-2,0.7-4.2v-14.9h2v14.9c0,2.9-0.3,4.3-1.2,5.6c-1.3,1.7-3.5,2.7-6.6,2.7c-3.4,0-5.8-1.2-6.9-3.3
				c-0.6-1.2-0.8-2.4-0.8-5.1v-14.8H91.4z"/>
			<path class="st6" d="M130.9,467.6l-2.2-7.1h-8.2l-2.2,7.1h-1.9l7.3-22.7h2.3l7.3,22.7H130.9z M124.6,447.6l-3.5,11h7L124.6,447.6
				z"/>
			<path class="st6" d="M138.8,457.6v10h-2.2v-22.7h8.5c4.4,0,6.8,2.1,6.8,6.1c0,3.1-1.5,5.3-4.3,6.2l4.7,10.4h-2.5l-4.5-10H138.8z
				 M144.9,455.7c3,0,4.7-1.6,4.7-4.6c0-2.8-1.6-4.2-4.4-4.2h-6.4v8.9H144.9z"/>
			<path class="st6" d="M171.1,467.6h-14.6v-22.7h14.2v1.9h-12v7.9h9.5v1.8h-9.5v9.1h12.4V467.6z"/>
		</g>
		<g class="st7">
			<path class="st6" d="M64,508h-2l-0.5-2.7c-1.1,2.3-2.2,3.1-4.5,3.1c-4.6,0-6.9-3.8-6.9-11.4c0-7.8,2.6-12,7.4-12
				c3.9,0,6.1,2.5,6.6,7.7l-3.8,0.7c-0.5-3.5-1.1-4.4-2.7-4.4c-2,0-2.6,1.7-2.6,8.1c0,5.3,0.7,7.1,2.7,7.1c1.7,0,2.5-1.3,2.5-4.5
				h-2.8V496H64V508z"/>
			<path class="st6" d="M80.7,496.8c0,7.9-2.2,11.5-7.1,11.5c-4.8,0-7-3.8-7-11.8c0-7.9,2.3-11.6,7.2-11.6
				C78.4,485,80.7,488.8,80.7,496.8z M71.4,496.7c0,6,0.5,7.6,2.2,7.6c1.8,0,2.1-1.3,2.1-7.9c0-5.7-0.5-7.3-2.1-7.3
				C71.8,489,71.4,490.6,71.4,496.7z"/>
			<path class="st6" d="M97.1,496.8c0,7.9-2.2,11.5-7.1,11.5c-4.8,0-7-3.8-7-11.8c0-7.9,2.3-11.6,7.2-11.6
				C94.9,485,97.1,488.8,97.1,496.8z M87.9,496.7c0,6,0.5,7.6,2.2,7.6c1.8,0,2.1-1.3,2.1-7.9c0-5.7-0.5-7.3-2.1-7.3
				C88.3,489,87.9,490.6,87.9,496.7z"/>
			<path class="st6" d="M100.1,485.3h4.4c3.5,0,5,0.4,6.5,1.6c2.1,1.7,3.2,5,3.2,9.5c0,4.9-1.2,8.3-3.4,10.2c-1.2,1-2.6,1.4-4.5,1.4
				h-6.1V485.3z M106,504c1.2,0,1.9-0.3,2.3-0.9c0.6-1,0.9-3.1,0.9-6.4c0-3-0.3-5.3-0.8-6.3c-0.4-0.8-1.2-1.2-2.4-1.2h-1.4V504H106z
				"/>
			<path class="st6" d="M133.5,485.3l5.1,22.7h-4.7l-0.9-4.9h-4.5l-0.9,4.9h-4.1l5.2-22.7H133.5z M131.2,493.4
				c-0.3-1.4-0.4-2.1-0.5-3.8c-0.2,1.5-0.3,2.5-0.5,3.6l-1.2,6.3h3.5L131.2,493.4z"/>
			<path class="st6" d="M146.1,508h-4.7v-18.4h-3.7v-4.3H150v4.3h-3.8V508z"/>
		</g>
	</g>
	<g class="st7">
		<path class="st3" d="M287.7,775.2h-6.6V796h-2.2v-20.8h-6.7v-1.9h15.5V775.2z"/>
		<path class="st3" d="M304.8,796v-11.3h-11.5V796h-2.2v-22.7h2.2v9.5h11.5v-9.5h2.2V796H304.8z"/>
		<path class="st3" d="M324.8,796l-2.2-7.1h-8.2l-2.2,7.1h-1.9l7.3-22.7h2.3l7.3,22.7H324.8z M318.4,776l-3.5,11h7L318.4,776z"/>
		<path class="st3" d="M341.2,775.2h-6.6V796h-2.2v-20.8h-6.7v-1.9h15.5V775.2z"/>
		<path class="st3" d="M371.1,796H369l-5.1-18.1L359,796h-2.3l-5.5-22.7h2.2l4.6,19.3l5.2-19.3h1.4l5.5,19.3l4.2-19.3h1.9L371.1,796
			z"/>
		<path class="st3" d="M393.4,796v-11.3H382V796h-2.2v-22.7h2.2v9.5h11.5v-9.5h2.2V796H393.4z"/>
		<path class="st3" d="M401.3,796v-22.7h2.2V796H401.3z"/>
		<path class="st3" d="M423.7,780.3c-1-3.7-3.2-5.7-6.2-5.7c-4.3,0-7,3.8-7,10.1c0,6.1,2.7,10,6.9,10c3.2,0,5.4-2.2,6.4-6.2l2,0.6
			c-1.2,4.8-4.1,7.3-8.4,7.3c-5.6,0-9.2-4.6-9.2-11.9c0-7.2,3.6-11.8,9.2-11.8c4.1,0,7.1,2.5,8.3,6.9L423.7,780.3z"/>
		<path class="st3" d="M443.3,796v-11.3h-11.5V796h-2.2v-22.7h2.2v9.5h11.5v-9.5h2.2V796H443.3z"/>
		<path class="st3" d="M466.8,796h-2.2v-9.6l-7.5-13.1h2.4l6.4,11.2l6.5-11.2h1.9l-7.6,13.1V796z"/>
		<path class="st3" d="M493.3,784.8c0,3.3-0.8,6.2-2.4,8.3c-1.7,2.3-3.9,3.4-6.8,3.4c-5.5,0-9.1-4.7-9.1-11.9
			c0-7.2,3.6-11.8,9.1-11.8C489.8,772.8,493.3,777.4,493.3,784.8z M477.3,784.6c0,6.2,2.7,10,6.9,10c4.3,0,6.9-3.8,6.9-10.1
			c0-6-2.7-9.9-6.9-9.9C479.9,774.7,477.3,778.5,477.3,784.6z"/>
		<path class="st3" d="M499.8,773.3v14.9c0,2.2,0.2,3.3,0.6,4.2c0.8,1.4,2.5,2.2,4.9,2.2c2.5,0,4.3-0.8,5.1-2.2
			c0.5-0.9,0.7-2,0.7-4.2v-14.9h2v14.9c0,2.9-0.3,4.3-1.2,5.6c-1.3,1.7-3.5,2.7-6.6,2.7c-3.4,0-5.8-1.2-6.9-3.3
			c-0.6-1.2-0.8-2.4-0.8-5.1v-14.8H499.8z"/>
		<path class="st3" d="M541.6,780.3c-1-3.7-3.2-5.7-6.2-5.7c-4.3,0-7,3.8-7,10.1c0,6.1,2.7,10,6.9,10c3.2,0,5.4-2.2,6.4-6.2l2,0.6
			c-1.2,4.8-4.1,7.3-8.4,7.3c-5.6,0-9.2-4.6-9.2-11.9c0-7.2,3.6-11.8,9.2-11.8c4.1,0,7.1,2.5,8.3,6.9L541.6,780.3z"/>
		<path class="st3" d="M559.3,796l-2.2-7.1h-8.2l-2.2,7.1h-1.9l7.3-22.7h2.3l7.3,22.7H559.3z M553,776l-3.5,11h7L553,776z"/>
		<path class="st3" d="M567.1,776.3V796H565v-22.7h2.9l11.5,19.7v-19.7h2.1V796h-2.9L567.1,776.3z"/>
		<path class="st3" d="M596.5,773.3h8.7c1.9,0,3,0.2,4,0.8c1.7,0.9,2.6,2.5,2.6,4.6c0,2.6-1.4,4.5-4,5.1c3.2,1,4.7,2.8,4.7,5.9
			c0,2.5-1.1,4.4-3,5.4c-1.2,0.6-2.5,0.9-4.8,0.9h-8.2V773.3z M603.6,783c2.5,0,3.6-0.2,4.6-1c0.9-0.7,1.4-1.9,1.4-3.2
			c0-2.5-1.6-3.7-4.9-3.7h-6.1v7.8H603.6z M605.2,794.1c3.2,0,5.1-1.7,5.1-4.6c0-3-2-4.6-5.8-4.6h-5.8v9.2H605.2z"/>
		<path class="st3" d="M631.8,796h-14.6v-22.7h14.2v1.9h-12v7.9h9.5v1.8h-9.5v9.1h12.4V796z"/>
	</g>
	<g class="st7">
		<path class="st3" d="M400,815.3h5.7c3,0,3.9,0.2,5.1,1.3c1.3,1.2,2.1,3.4,2.1,5.8c0,2.8-1,5.1-2.5,6.2c-1.2,0.7-2.1,1-4.5,1h-1.4
			v8.4H400V815.3z M405.6,825.7c1.8,0,2.4-0.9,2.4-3.4c0-2.3-0.7-3.3-2.4-3.3h-1.1v6.8H405.6z"/>
		<path class="st3" d="M422.6,815.3l5.1,22.7H423l-0.9-4.9h-4.5l-0.9,4.9h-4.1l5.2-22.7H422.6z M420.3,823.4
			c-0.3-1.4-0.4-2.1-0.5-3.8c-0.2,1.5-0.3,2.5-0.5,3.6l-1.2,6.3h3.5L420.3,823.4z"/>
		<path class="st3" d="M429.3,815.3h4.7V838h-4.7V815.3z"/>
		<path class="st3" d="M437.7,815.3h4.4c3.5,0,5,0.4,6.5,1.6c2.1,1.7,3.2,5,3.2,9.5c0,4.9-1.2,8.3-3.4,10.2c-1.2,1-2.6,1.4-4.5,1.4
			h-6.1V815.3z M443.6,834c1.2,0,1.9-0.3,2.3-0.9c0.6-1,0.9-3.1,0.9-6.4c0-3-0.3-5.3-0.8-6.3c-0.4-0.8-1.2-1.2-2.4-1.2h-1.4V834
			H443.6z"/>
		<path class="st3" d="M467.7,825.2h5v3.8h-5v9h-4.7v-22.7h11.2v4h-6.5V825.2z"/>
		<path class="st3" d="M489.6,826.8c0,7.9-2.2,11.5-7.1,11.5c-4.8,0-7-3.8-7-11.8c0-7.9,2.3-11.6,7.2-11.6
			C487.4,815,489.6,818.8,489.6,826.8z M480.4,826.7c0,6,0.5,7.6,2.2,7.6c1.8,0,2.1-1.3,2.1-7.9c0-5.7-0.5-7.3-2.1-7.3
			C480.8,819,480.4,820.6,480.4,826.7z"/>
		<path class="st3" d="M492.6,815.3h5.8c3.1,0,4.1,0.3,5.3,1.5c1.3,1.3,1.9,3.1,1.9,5.3c0,3.1-0.8,4.8-3,6.1l3.4,9.8h-4.9l-2.6-8.9
			h-1.4v8.9h-4.6V815.3z M498.5,825.4c1.7,0,2.5-1.1,2.5-3.3c0-2.1-0.8-3.2-2.5-3.2h-1.3v6.5H498.5z"/>
	</g>
	<g class="st7">
		<path class="st2" d="M396.2,447.9c-0.6-2.3-1.6-3.4-3.3-3.4c-1.6,0-2.6,1.1-2.6,2.9c0,1.1,0.4,1.8,1.1,2.4s0.7,0.6,4.1,2.2
			c4,1.8,5.6,4.3,5.6,8.2c0,5.7-3.4,9.3-8.9,9.3c-4.8,0-7.7-2.6-8.6-7.9l4.8-1.7c0.7,3.2,1.8,4.3,3.9,4.3c1.8,0,2.9-1.2,2.9-3.1
			c0-0.9-0.4-1.8-0.9-2.3c-0.6-0.5-0.6-0.5-4-2.2c-3.8-1.9-5.6-4.5-5.6-8.4c0-5.1,3.4-8.9,8-8.9c4,0,6.6,2.2,8,6.8L396.2,447.9z"/>
		<path class="st2" d="M410,439.6v18.7c0,4.5,0.7,5.7,3.2,5.7c1,0,1.7-0.4,2.2-1.3c0.4-0.8,0.6-1.9,0.6-4.8v-18.4h5.1V458
			c0,5.2-0.7,7.9-2.5,9.5c-1.4,1.3-3.3,1.9-6,1.9c-6.2,0-8.5-2.9-8.5-10.9v-18.9H410z"/>
		<path class="st2" d="M437.6,451c-0.2-4.8-1.1-6.5-3.3-6.5c-2.5,0-3.3,2.4-3.3,10.4c0,7.3,0.7,9.4,3.2,9.4c2.2,0,3-1.3,3.4-5.9
			l5.1,0.4c-0.2,3.2-0.7,5.1-1.7,6.9c-1.6,2.6-3.8,3.8-7,3.8c-6.2,0-9.4-5-9.4-15.1c0-9.9,3.3-15.2,9.5-15.2c3.6,0,6.2,1.6,7.5,4.6
			c0.7,1.6,1.1,3.5,1.3,6.7L437.6,451z"/>
		<path class="st2" d="M458.3,451c-0.2-4.8-1.1-6.5-3.3-6.5c-2.5,0-3.3,2.4-3.3,10.4c0,7.3,0.7,9.4,3.2,9.4c2.2,0,3-1.3,3.4-5.9
			l5.1,0.4c-0.2,3.2-0.7,5.1-1.7,6.9c-1.6,2.6-3.8,3.8-7,3.8c-6.2,0-9.4-5-9.4-15.1c0-9.9,3.3-15.2,9.5-15.2c3.6,0,6.2,1.6,7.5,4.6
			c0.7,1.6,1.1,3.5,1.3,6.7L458.3,451z"/>
		<path class="st2" d="M472.9,451.6h7.1v4.9h-7.1v7.3h9.3v5.1h-15.3v-29.4h15.3v5.1h-9.3V451.6z"/>
		<path class="st2" d="M496.3,447.9c-0.6-2.3-1.6-3.4-3.3-3.4c-1.6,0-2.6,1.1-2.6,2.9c0,1.1,0.4,1.8,1.1,2.4s0.7,0.6,4.1,2.2
			c4,1.8,5.6,4.3,5.6,8.2c0,5.7-3.4,9.3-8.9,9.3c-4.8,0-7.7-2.6-8.6-7.9l4.8-1.7c0.7,3.2,1.8,4.3,3.9,4.3c1.8,0,2.9-1.2,2.9-3.1
			c0-0.9-0.4-1.8-0.9-2.3c-0.6-0.5-0.6-0.5-4-2.2c-3.8-1.9-5.6-4.5-5.6-8.4c0-5.1,3.4-8.9,8-8.9c4,0,6.6,2.2,8,6.8L496.3,447.9z"/>
		<path class="st2" d="M515.6,447.9c-0.6-2.3-1.6-3.4-3.3-3.4c-1.6,0-2.6,1.1-2.6,2.9c0,1.1,0.4,1.8,1.1,2.4s0.7,0.6,4.1,2.2
			c4,1.8,5.6,4.3,5.6,8.2c0,5.7-3.4,9.3-8.9,9.3c-4.8,0-7.7-2.6-8.6-7.9l4.8-1.7c0.7,3.2,1.8,4.3,3.9,4.3c1.8,0,2.9-1.2,2.9-3.1
			c0-0.9-0.4-1.8-0.9-2.3c-0.6-0.5-0.6-0.5-4-2.2c-3.8-1.9-5.6-4.5-5.6-8.4c0-5.1,3.4-8.9,8-8.9c4,0,6.6,2.2,8,6.8L515.6,447.9z"/>
	</g>
</g>
</svg>
