<?xml version="1.0" encoding="utf-8"?>
<!-- Generator: Adobe Illustrator 25.2.3, SVG Export Plug-In . SVG Version: 6.00 Build 0)  -->
<svg version="1.1" id="Layer_1" xmlns="http://www.w3.org/2000/svg" xmlns:xlink="http://www.w3.org/1999/xlink" x="0px" y="0px"
	 viewBox="0 0 165.25 102.39" style="enable-background:new 0 0 165.25 102.39;" xml:space="preserve">
<style type="text/css">
	.st0{fill:#ffffff; opacity: 0.9}
</style>
<g>
	<path class="st0" d="M120.63,15.02L120.63,15.02l0-8.48l-3.1,0l0,8.48h0c0,18.95-15.42,34.37-34.37,34.37
		c-18.95,0-34.37-15.42-34.37-34.37h0l0-8.48l-3.1,0l0,8.48h0c0,18.95-15.42,34.37-34.37,34.37v1.55l0,1.55
		c18.95,0,34.37,15.42,34.37,34.37h0v8.48l3.1,0v-8.48h0c0-9.2,3.55-17.83,9.99-24.3c6.46-6.49,15.12-10.06,24.38-10.06
		c18.95,0,34.37,15.42,34.37,34.37h0v8.48l3.1,0l0-8.48h0h0c0-18.95,15.42-34.37,34.37-34.37v-1.55v-1.55
		C136.04,49.39,120.63,33.97,120.63,15.02z M47.25,64.7c-2.41-6.32-7.44-11.35-13.76-13.76c6.32-2.41,11.35-7.44,13.76-13.76
		c2.41,6.32,7.44,11.35,13.76,13.76C54.69,53.35,49.66,58.38,47.25,64.7z M119.08,64.7c-2.41-6.32-7.44-11.35-13.76-13.76
		c6.32-2.41,11.35-7.44,13.76-13.76c2.41,6.32,7.44,11.35,13.76,13.76C126.52,53.35,121.49,58.38,119.08,64.7z"/>
	<g>
		<polygon class="st0" points="89.55,97.19 76.69,81.65 76.63,81.57 73.64,81.57 73.64,101.89 76.77,101.89 76.77,86.27 
			89.69,101.89 92.68,101.89 92.68,81.57 89.55,81.57 		"/>
		<path class="st0" d="M17.22,82.33c-1.7-0.84-3.68-1.26-5.89-1.26c-2.29,0-4.32,0.45-6.02,1.35c-1.71,0.9-3.04,2.16-3.94,3.76
			C0.46,87.77,0,89.64,0,91.73c0,2.18,0.48,4.1,1.44,5.71c0.95,1.61,2.3,2.85,4,3.69c1.69,0.84,3.68,1.26,5.89,1.26
			c2.29,0,4.31-0.45,6.02-1.35c1.71-0.9,3.04-2.16,3.95-3.76c0.91-1.6,1.37-3.46,1.37-5.55c0-2.18-0.48-4.1-1.44-5.71
			C20.27,84.41,18.92,83.17,17.22,82.33z M17.24,97.46c-1.41,1.37-3.4,2.06-5.91,2.06c-2.53,0-4.53-0.69-5.93-2.04
			c-1.4-1.36-2.11-3.29-2.11-5.74c0-2.44,0.71-4.36,2.12-5.73c1.41-1.37,3.4-2.06,5.91-2.06c2.53,0,4.53,0.69,5.93,2.04
			c1.4,1.36,2.11,3.29,2.11,5.74C19.37,94.17,18.65,96.1,17.24,97.46z"/>
		<polygon class="st0" points="149.53,92.84 161.96,92.84 161.96,89.99 149.53,89.99 149.53,84.42 162.6,84.42 162.6,81.57 
			146.35,81.57 146.35,101.89 162.68,101.89 163.23,99.05 149.53,99.05 		"/>
		<polygon class="st0" points="91.47,16.7 79.32,16.69 79.32,0.5 74.86,0.5 74.86,20.4 90.91,20.4 		"/>
		<path class="st0" d="M15.15,16.82c-0.83,0.44-2.06,0.65-3.69,0.65c-1.82,0-3.19-0.3-4.1-0.91c-0.91-0.6-1.46-1.56-1.64-2.86
			l-4.49,0c0.15,1.64,0.61,2.98,1.38,4.04c0.77,1.06,1.89,1.85,3.34,2.37c1.46,0.52,3.29,0.78,5.5,0.78c3.05,0,5.39-0.53,7.04-1.6
			c1.64-1.07,2.47-2.57,2.47-4.5c0-1.71-0.57-3.05-1.7-4.03c-1.13-0.98-2.92-1.66-5.35-2.05l-4.1-0.64c-1.36-0.2-2.29-0.47-2.8-0.81
			C6.5,6.94,6.25,6.42,6.25,5.71c0-0.74,0.42-1.31,1.25-1.7c0.84-0.39,2.04-0.59,3.62-0.59c1.39,0,2.48,0.21,3.26,0.63
			c0.78,0.42,1.37,1.1,1.76,2.05l4.32-0.5C20,3.67,19.02,2.25,17.53,1.35C16.05,0.45,13.95,0,11.24,0C9.27,0,7.57,0.24,6.15,0.71
			C4.73,1.18,3.65,1.86,2.9,2.73C2.16,3.6,1.79,4.64,1.79,5.82c0,1.77,0.63,3.14,1.88,4.11c1.25,0.98,3.24,1.65,5.95,2.02l3.34,0.47
			c1.19,0.17,2.06,0.45,2.61,0.84c0.55,0.39,0.82,0.93,0.82,1.62C16.39,15.74,15.98,16.38,15.15,16.82z"/>
		<polygon class="st0" points="149.2,13.3 152.68,10.37 160.09,20.4 165.25,20.4 155.83,7.75 164.41,0.5 159.01,0.5 149.2,8.75 
			149.2,0.5 144.74,0.5 144.74,20.4 149.2,20.4 		"/>
	</g>
</g>
</svg>
