<svg height="64" viewBox="0 0 131 64" width="131" xmlns="http://www.w3.org/2000/svg" xmlns:xlink="http://www.w3.org/1999/xlink"><mask id="a" fill="#fff"><path d="m17.3575666 1.16728105c-.7679846.00695639-1.5457082.0890417-2.3276057.25042979-3.430888.71094233-6.20787609 2.81316125-7.88714692 5.59154058h-.00417383s-13.25190945 20.90532198-3.02463529 41.79255728c.01113021.0264342.0236517.0431296.03478191.06539 3.7369689 8.9417346 13.38686323 14.2842367 23.23014513 12.2460165 9.8446731-2.0368289 16.5826256-10.7670895 16.4643671-20.4587222.0013912-.025043.0055651-.0459121.0055651-.0737376 1.1032823-23.2301451-19.3582224-37.16099756-19.3582224-37.16099756l-.0013913.00278255c-1.9811778-1.40936317-4.3741736-2.23021636-6.8923842-2.25525934z" fill="#fff" fill-rule="evenodd"/></mask><mask id="b" fill="#fff"><path d="m22.1769487 1.8657019-.0013912-.00278256s-11.8328074 3.94983422-20.12759837 14.41779926c2.34708359 5.3717189 3.86635762 11.6700279 3.5407989 18.818407l-.00417383.1516492c.03060809 5.5929318-1.90187509 10.8324795-5.19363548 15.0049179 1.27440935 1.2006717 2.7269021 2.2524768 4.3546957 3.1011555 8.38939778 4.3699998 18.49841348 2.0145685 24.17899578-5.1226804.0139127-.0194778.030608-.0319993.0473034-.0514772 14.6264907-16.2848924 7.9914927-38.61488154 7.9914927-38.61488154h-.0013913c-.809723-2.94811508-2.7811619-5.56371505-5.7056253-7.08855419-1.6723144-.87093914-3.4614961-1.28275701-5.2256348-1.28275701-1.3189302 0-2.6225564.22956064-3.8538362.66920404" fill="#fff" fill-rule="evenodd"/></mask><g fill="#e0be41" fill-rule="evenodd"><path d="m17.3575666 1.16728105c-.7679846.00695639-1.5457082.0890417-2.3276057.25042979-3.430888.71094233-6.20787609 2.81316125-7.88714692 5.59154058h-.00417383s-13.25190945 20.90532198-3.02463529 41.79255728c.01113021.0264342.0236517.0431296.03478191.06539 3.7369689 8.9417346 13.38686323 14.2842367 23.23014513 12.2460165 9.8446731-2.0368289 16.5826256-10.7670895 16.4643671-20.4587222.0013912-.025043.0055651-.0459121.0055651-.0737376 1.1032823-23.2301451-19.3582224-37.16099756-19.3582224-37.16099756l-.0013913.00278255c-1.9811778-1.40936317-4.3741736-2.23021636-6.8923842-2.25525934z" mask="url(#a)" transform="translate(25.042978 .224413)"/><path d="m22.1769487 1.8657019-.0013912-.00278256s-11.8328074 3.94983422-20.12759837 14.41779926c2.34708359 5.3717189 3.86635762 11.6700279 3.5407989 18.818407l-.00417383.1516492c.03060809 5.5929318-1.90187509 10.8324795-5.19363548 15.0049179 1.27440935 1.2006717 2.7269021 2.2524768 4.3546957 3.1011555 8.38939778 4.3699998 18.49841348 2.0145685 24.17899578-5.1226804.0139127-.0194778.030608-.0319993.0473034-.0514772 14.6264907-16.2848924 7.9914927-38.61488154 7.9914927-38.61488154h-.0013913c-.809723-2.94811508-2.7811619-5.56371505-5.7056253-7.08855419-1.6723144-.87093914-3.4614961-1.28275701-5.2256348-1.28275701-1.3189302 0-2.6225564.22956064-3.8538362.66920404" mask="url(#b)" transform="translate(66.781276 5.789519)"/><path d="m127.934003 20.8608011c-.779114 0-1.677879.3241674-2.345692.8737217-.989198.8166793-2.230216 1.4204934-3.195762 2.3331708 1.040675-.9836325 1.106065-4.6913846-.513381-4.6913846-.283821 0-.619118.1126934-1.008676.3742534-1.375972.9224163-2.363779 3.7870548-3.40028 3.7870548-.502251 0-1.015632-.6705953-1.588838-2.5571663-.095998-.3130373-.535641-.4382522-1.175628-.4382522-1.611099 0-3.423932.4187743-4.929293.9725024-1.467797.538424-2.999593.8458961-4.488259 1.3592772-1.510926.5217287-2.920289 1.3064087-4.482693 1.6931836-.58851.1474753-.982241.3158198-1.3411903.3158198-.3422541 0-.6525087-.1544317-1.0643266-.6219006.0306081 0-1.1004998-2.2385641-1.1324991-2.2371728-.1947788-.0848679-.3895575-.1224323-.5857275-.1224323-.8876344 0-1.7683125.7610283-2.5849919 1.2799744-1.4817095.9418943-3.2987167 1.1464119-5.0461601 1.3272779-3.8872268.4006876-7.8634953.875113-11.7715912 1.071283-1.4316236.0890417-2.8715949.186431-4.3101749.2949506-.473034.0361732-.9474593.0681725-1.4191021.1099108-4.7303403.4048615-10.548659.9057211-14.8713554-1.3843202-1.0337185-.5481629-2.8590733-1.9213529-4.0820055-1.4121457-.7916363.3311238-1.2604965 1.7279655-1.5290129 2.4583857-.3742534 1.0142407-.4410347 1.1951066-1.5665775 1.1951066-.1502578 0-.3116459-.0055651-.4855555-.0180866-2.1550874-.1599968-4.3727823-.5592932-6.5181308-.9474593-.8013753-.1446928-1.6027506-.2893856-2.4027346-.4201656-1.8865711-.3144285-3.752273-.9071123-5.6291051-1.192324-1.8907449-.2879942-3.742534-.0820853-5.548411-.8918083-.4312957-.1933874-5.3355457-1.9644825-5.3299806-1.8754408.0709551.9766761.140519 1.9547436.2100828 2.9314197-3.1832408-.1015632-6.3247434-.7818974-9.2812061-1.9616999-2.7783793-1.1088475-3.6173191-2.429169-5.90040399-4.1585257-.59824893-.4535562-2.07300211-1.2062368-3.17489316-1.2062368-.4632951 0-.86120021.1321712-1.10189105.4772078-1.06850042 1.5178828 2.56968784 5.1518972 2.04517657 7.3375927-.01947787.0834766-.08486787.1182585-.18503978.1182585-.67476915 0-2.9884621-1.6194459-4.39365145-1.6194459-.60103149 0-1.03510978.2949506-1.10606488 1.1394555-.10434575 1.2521489 2.43195146 4.7331229 3.49071294 5.4454566.58433617.3951225 2.05491551.8778955 2.77559678 1.1380642.06956383.1113021-.00139127.2490385.0417383.3714708.4396434.205909.40347021.3881662.55511936.8653741-.24069085.2156479-.55511936.2879942-.90154723.2879942-.75546318 0-1.66814062-.3464278-2.34986615-.3478191-.33668893 0-.61633552.0834766-.79302765.3339064-.92937276 1.3091912 1.23267105 1.7377044 1.92970062 1.9533523 2.01456849.6302483 3.46845252 2.1189142 4.80129547 3.6827091 1.2507577 1.4705794 3.2416745 3.4364532 3.5533204 5.3884142-.3631232.0278255-.7304202.0333906-1.0963259.0333906-.3005158 0-.6010315-.0041738-.900156-.0041738-.2991244 0-.5940751.0041738-.8890257.0208692-.4591213 1.7516172 1.9352657 2.2900412 3.1985448 2.3554312 1.513709.0793028 3.5449728-.0347819 4.9390319.6552913 1.1909328.5899013 1.6862272 1.9603087 2.9286372 2.5488187 1.4622317.6886819 3.2541959.7805062 4.8346861.8959821-.2532123.8111143.1363451 1.7015313.9363292 2.042394 2.0256987.8653741 3.5199297 2.0006558 5.2924161 3.3543679.7401591.5648583 2.5223844 1.2020629 2.3164755 2.3707353-.351993.0194778-.694247.2003438-1.0587615.2003438-.0500859 0-.1015632-.0041738-.1530404-.0111302-.6719866 1.6987487.105737 2.0952625 1.2368449 2.0952625.9878064 0 2.2427378-.3005157 3.0747212-.3005157 2.9077681.0361732 5.3480672 2.0855236 8.2419225 2.1523049.1349538.0027825.2685164.0041738.3979051.0041738.4702515 0 .9098949-.0166953 1.348147-.0166953.71929 0 1.4274498.0417383 2.2343902.2657338 1.4260585.3937313 2.8048136 1.0434574 4.306001 1.0935434 1.4831009.0473034 3.0190702.0973893 4.5466919.0973893 1.1018911 0 2.1968257-.0264342 3.2667174-.0973893 2.9564628-.2031264 5.8461442-.4201655 8.8457365-.4201655 6.0478794 0 11.8717631-.8278096 17.6274743-2.7978573 3.1707194-1.0851957 6.3386562-2.002047 9.4773761-3.2249791 1.9366574-.7526806 3.7842724-.8584176 5.6068444-1.8044857.79581-.4132091 1.541535-1.0810219 2.479255-1.2966698.365906-.0820853.752681-.105737 1.147803-.105737.422948 0 .854244.025043 1.281366.025043.228169 0 .453556-.0069564.67616-.0292168 2.14674-.2073002 2.116132-1.977004.607988-1.977004-.228169 0-.49112.040347-.783288.1335625.865374-.7693759 2.305345-1.0170232 3.304281-1.7196179 1.188151-.8361572 2.576645-1.4803182 3.90114-2.0563067 1.26467-.5495543 2.22326-1.4441451 3.462887-2.0743934 1.117196-.5662496 2.003439-.5370328 2.192652-1.9310919-.293559-.1725183-.578771-.2434734-.852852-.2434734-.964155 0-1.826746.8639827-2.731076 1.1951066-.340863.1252149-.927982.3060808-1.41632.3060808-.434078 0-.788854-.1405189-.831983-.5857274-.061216-.6539 1.196498-.9989366 1.555447-1.2563228 1.583273-1.136673 2.874378-2.605861 3.959573-4.2141768 1.225715-1.8114421 1.725183-3.8844442 2.87716-5.7139729.66503-1.0531964 3.009332-2.3637789 2.668469-3.8454885-.161388-.7025946-.587119-.9488506-1.096326-.9488506-.70816 0-1.576317.4702515-2.127262.8389398-.385384.2573862-1.118586.8222445-1.570751.8222445-.287995 0-.461904-.2267781-.361732-.9098949.093215-.6191181 1.616663-1.4441451 2.078567-1.9519611 1.463623-1.6166634 1.919962-2.9648104 3.955399-3.9623557.285212-.1405189.546772-.2838204.749898-.4521649.453557-1.6834446-.424339-2.3679527-1.554056-2.3679527z"/></g></svg>