<svg height="38" viewBox="0 0 64 38" width="64" xmlns="http://www.w3.org/2000/svg"><g fill="#e0be41"><path d="m16.3688989 5.29186517-1.3670113-.84782023-14.02894378 8.12152806 3.73716854 1.9782472z"/><path d="m5.03011236 15.189573 11.55020224-9.16782019v-.16323596l-11.55020224 9.16710115z"/><path d="m9.70211236 34.8857528 5.36665164 1.4051236 5.6801798.9564045 5.8728989.3192809 5.8764944-.1912809 5.7484944-.7672809 5.4220224-1.2116854 5.0365843-1.7840899 4.5238652-2.2306517 3.747955-2.5413033 3.0410787-2.8497978 2.1457977-3.1568539 1.3188315-3.2654382.2524045-3.3474158v-1.8214831c-.0136629-.0014382-.0237304-.007191-.0366742-.0100674-.0172584-.0043146-.0366741-.007191-.0524944-.0151011-.0115056-.0043146-.0194157-.0115057-.0294831-.0172585l-.931236 2.3047191c0 .0007191-.0007191.0007191-.0014382.0014382-.0194157.0474607-.0532134.084854-.0942022.1157753-.0100674.007191-.0179775.0136629-.0294831.0201348-.042427.0244495-.0884495.042427-.1409439.042427 0 0 0 0-.0007191 0-.0352359 0-.0719101-.0064719-.107146-.0208539-.0007191 0-.0014382-.0007191-.0021573-.0014382-.0222922-.0093483-.0409888-.0251686-.0596854-.0395506-.0409888-.0309213-.0755057-.0683146-.0949214-.113618-.0021573-.0043146-.0014382-.0100674-.0035955-.0151011-.0115056-.0302022-.0186966-.0625618-.0186966-.0956404 0-.0007191-.0007191-.0014382-.0007191-.0021573v-.0273259l-1.6560899 2.4348764c-.0043146.0057528-.0115056.0086292-.0158202.014382-.0194158.0251686-.0431461.0445843-.0704719.0618427-.0100675.006472-.0179776.0151012-.028045.0194158-.0381123.0179775-.078382.0302022-.1236854.0302022 0 0 0 0-.0007191 0-.0532135 0-.1006741-.0186966-.1431011-.0445842-.0057528-.0028765-.0122247-.0014382-.0172584-.0050338-.0079101-.0050337-.0115056-.0129438-.0179776-.0186966-.0151011-.0129438-.0280449-.0266067-.0409887-.0417078-.0115056-.0143821-.0215731-.0287641-.0302023-.0445843s-.0151011-.0316405-.0194157-.0488989c-.0064719-.0194157-.0100674-.0381124-.0122247-.0582472-.0007191-.0086292-.0050337-.0158202-.0050337-.0251685v-.2883596l-2.5930787 2.4852135c-.0129438.0129438-.0280449.0179775-.043146.028045-.0158203.0107865-.0294832.0230112-.0467416.0302022-.035236.0151011-.0719101.021573-.1085843.021573-.0388314 0-.0762247-.007191-.1114607-.0222921-.0352359-.0151011-.0668764-.0366742-.092764-.0632809-.0014382-.0014382-.0028764-.0014382-.0035955-.0028764-.0122247-.0115056-.0158202-.0266067-.0258877-.0409888-.0115056-.0165393-.0237303-.0316404-.0323595-.050337-.0093483-.0237304-.0115056-.0481798-.0151011-.0733484-.0014382-.0122247-.0064719-.0222921-.0064719-.0345168v-.0057528c0-.0007191 0-.0007191 0-.0007191v-.3509214l-3.3373484 2.2622922c-.0057528.0035955-.0115056.0021573-.0165393.0050337-.043146.0251685-.0898876.0445842-.1431011.0445842 0 0 0 .0007191-.0007191.0007191s-.0007191 0-.0007191 0c-.0445843 0-.0848539-.0129438-.1229663-.0302022-.0107865-.0050337-.0186966-.0136629-.028764-.0194157-.0266068-.0172585-.0503371-.0373933-.070472-.0625618-.0043146-.0057528-.0115056-.0079102-.0151011-.0143821-.0057528-.0086292-.0064719-.0165393-.0115056-.0251685-.0093483-.0165393-.0158202-.0337978-.021573-.0532135-.0064719-.0179775-.0100674-.0366741-.0122247-.0560899 0-.0100674-.0050338-.0165393-.0050338-.0266067v-.440809l-4.1427415 1.9847191c-.0021573.0014382-.0043146.0007191-.0064719.0014382-.0359551.0165393-.0755057.0266067-.1179326.0266067-.049618 0-.0949214-.0151011-.135191-.0381123-.0115057-.0057528-.0194158-.0129438-.0302023-.0208539-.0337977-.0237304-.0618427-.0539326-.0819775-.0913259-.0028764-.0050337-.0093483-.007191-.0115056-.0129438-.0014382-.0021573-.0014382-.0043146-.0021573-.007191-.0079101-.0158202-.0093483-.035236-.013663-.0517753-.0043146-.0201348-.0115056-.0395506-.0115056-.0589663-.0007191-.0021573-.0014382-.0043146-.0014382-.0064719v-.4961798l-4.6892584 1.6028764c-.0309213.0115056-.0625618.0151011-.0934831.0151011-.0546517 0-.1042697-.0194157-.1474158-.0460224-.0100674-.0064719-.0179775-.0115056-.0273258-.0179776-.0417079-.0323595-.0740674-.0733483-.092045-.1236853-.0014382-.0028765-.0043146-.0035956-.0050337-.0057529-.0050337-.0151011-.0035955-.0309213-.0064719-.0467415-.0028764-.0158203-.0093483-.0302023-.0093483-.0460225v-.533573l-5.0998652 1.1980224c-.021573.0050337-.0445842.0079102-.0661573.0079102-.0611236 0-.1136179-.0237304-.1610786-.0560899-.0057528-.0064719-.0136629-.0093484-.0208539-.0165394-.042427-.035955-.0719102-.0826966-.0884495-.1373483-.0014382-.0050337-.007191-.007191-.0086292-.0129438-.0028764-.0122247.0007191-.0230112-.0007191-.035236-.0014382-.0107865-.0064719-.0194157-.0064719-.0309213v-.5731236l-5.4522247.6658876c-.0122248.0014382-.0237304.0014382-.035236.0014382-.0690337 0-.1287191-.0266067-.1783371-.0668764-.0050337-.0043146-.0100674-.0057528-.014382-.0100674-.0453034-.0417078-.0740674-.0977977-.0848539-.1610786-.0014382-.0057528-.007191-.0093483-.0079101-.0151011-.0007191-.0057529.0014382-.0115057.0014382-.0165394 0-.0064719-.0035955-.0115056-.0035955-.0172584v-.6004494l-5.6046742.1826516c-.0028764 0-.0064719 0-.0093483 0-.0388315 0-.0762247-.0079101-.1107416-.0222921-.0122247-.0043146-.021573-.014382-.0323595-.0208539-.0201349-.0122247-.0417079-.0222922-.0582472-.0395506-.0107865-.0100674-.0165393-.0237303-.0258877-.0366741-.0129438-.0165394-.0273258-.0330787-.0352359-.0524944-.007191-.0158202-.0079101-.0345169-.0122247-.0524944-.0035955-.0172584-.0115057-.0337978-.0122248-.0532135 0-.0014382.0007191-.0028764.0007191-.0043146s-.0007191-.0028764-.0007191-.0050337v-.6910562l-5.6305618-.3048989c-.0050337-.0007191-.0093483-.0035955-.0151011-.0035955-.0151011-.0021573-.0309213-.0021573-.0460224-.007191-.0057529-.0014382-.0107866-.0057528-.0165394-.0079101-.0086292-.0035955-.0165393-.0050337-.0251685-.0086292-.0122247-.0057528-.0222921-.0151011-.0337978-.021573-.0136629-.0086292-.0258876-.0158203-.0373932-.0258877-.0064719-.0057528-.0129438-.0107865-.0179776-.0158202-.0093483-.0093483-.0151011-.0208539-.0222921-.0309213-.0093483-.013663-.0186966-.0251686-.0258876-.0395506-.0035955-.0079101-.0079101-.0151011-.0115056-.0222921-.0043147-.0115057-.0050338-.0237304-.0079102-.035236-.0043146-.0165393-.0079101-.0330787-.0093483-.0503371-.0007191-.0064719-.0035955-.0115056-.0035955-.0179775v-.654382l-5.4694831-.9218877c-.0115056-.0021573-.020854-.0093483-.0316405-.0122247-.0172584-.0057528-.0337977-.0100674-.049618-.0179775-.0035955-.0021573-.0086292-.0014382-.0129438-.0035955-.0021573-.0007191-.0028764-.0035955-.0050337-.0043146-.0115056-.007191-.0201348-.0165394-.0309213-.0251686-.0129438-.0107865-.0251686-.0201348-.0366742-.0330786-.0050337-.0064719-.0115056-.0115056-.0165393-.0165393-.007191-.0100675-.0107865-.0215731-.0158202-.0323596-.0086293-.014382-.0158203-.028764-.0215731-.0445843-.0028764-.0079101-.007191-.014382-.0086292-.0222921-.0028764-.0122247-.0014382-.0244494-.0035955-.0366742-.0014382-.0122247-.0064719-.0222921-.0064719-.0345168v-.6759551l-5.17465169-1.3562247c-.00647191-.0014382-.01150561-.0064719-.01797752-.0086292-.01941573-.0064719-.03595506-.0158202-.05321349-.0266067-.01438202-.0079102-.02804494-.0151012-.04026966-.0258877-.0014382-.0014382-.00431461-.0007191-.00647191-.0021573-.0021573-.0021573-.0028764-.0043146-.00503371-.0064719-.01150562-.0107865-.01869663-.0237303-.02804494-.0359551-.01006742-.0129438-.02085393-.0244494-.02804495-.0388314-.0028764-.0057528-.00647191-.0100674-.00934831-.0158202-.00575281-.0129439-.00719101-.0273259-.01078652-.0409888-.0043146-.0158202-.01006741-.0309214-.01150561-.0474607-.00071911-.007191-.00143821-.0136629-.00215731-.0201348 0-.0028764-.0014382-.0050337-.0014382-.0086292v-.704l-4.69285393-1.8531236c-.0007191 0-.00143821-.0014382-.00287641-.0014382-.0028764-.0014382-.00575281-.0028764-.00934831-.0043146-.00934832-.0043146-.01653933-.0122247-.02588764-.0172585-.01006742-.0057528-.01941573-.0122247-.02876405-.0194157-.00934831-.007191-.02157303-.0122247-.03020224-.0201348-.00431461-.0043146-.00719102-.0115056-.01150562-.0165393-.00287641-.0035955-.00791011-.0050337-.01150562-.0086293-.00791011-.0100674-.01006742-.021573-.01582023-.0316404-.00719101-.0115056-.01725842-.0208539-.02229213-.0330787-.0028764-.0064719-.0028764-.0136629-.00503371-.0201348-.00647191-.0172584-.00862921-.0352359-.01150562-.0532135-.0014382-.0122247-.00647191-.0237303-.00719101-.035955 0-.0014382-.0007191-.0021573-.0007191-.0035955v-.7255731l-3.78750562-2.005573v17.763236l4.19451686 2.2213033z"/><path d="m9.536 17.3684494 9.0297528-10.197573-1.6517753-.68026966-11.6026966 9.21024716z"/><path d="m9.90489888 17.8524045 8.85644942-9.94013484v-.09420224l-8.85644942 10.00053928z"/><path d="m20.508764 21.553618 3.1165843-11.306427-2.0501573-.30849437-6.1145168 10.76350557z"/><path d="m32.8003596 23.8209438c.0021573.0129438.0086292.0237304.0086292.0373933 0 .0021573-.0014382.0043146-.0007191.0057528 0 .0014382.0007191.0028764.0007191.0043146v.5731236l5.0250786-.6141124-5.7549663-10.2105168v-.0007191l-.3530786-.604045-1.8516854.2006292 2.9245842 10.5794158c.0021574.0093483 0 .0186966.0014383.028764z"/><path d="m38.5466966 23.9201798c.0028764.0043146.0021573.0086292.0043146.0129438 0 .0014382 0 .0014382.0007191.0021573.0086293.0165393.0129439.035236.0172585.0532135.0035955.0136629.0115056.0244494.0129438.0388314v.0014382c.0007191.0057529-.0014382.0115057-.0014382.0165394.0007191.0057528.0035955.0107865.0035955.0158202v.5350112l4.6310112-1.088-8.4702921-9.5856179c-.0014382-.0014382-.0014382-.0035956-.0028764-.0050338s-.0028764-.0014382-.0043146-.0028764l-.4652584-.569528-1.5007641.3279101 5.7736629 10.2443146c0 .0007191.0007191.0014382.0014382.0028764z"/><path d="m14.8652584 19.6853933 6.1245843-10.84044948-1.8444944-.49905618-9.0009887 10.10265166z"/><path d="m43.9715955 23.5002247c.0086292.0115056.0151011.0244495.0222921.0373933.0079102.0136629.0158203.0258876.0215731.0402696.0035955.0086293.0050337.0151012.0079101.0237304.0007191.0043146.0043146.007191.0050337.0115056.0028764.0115056-.0007191.0222921.0007191.0330786.0014382.0115057.007191.0215731.007191.0330787v.4947416l4.1923596-1.4331686-11.0101573-8.7838202c-.0007191 0-.0007191-.0007191-.0014382-.0014382s-.0007191 0-.0014383-.0007191l-.5839101-.4774831-1.1685393.3897528 8.5012135 9.6201348c.0035955.0043146.0043146.0086292.007191.0129438z"/><path d="m26.3320449 22.7933483v-10.6657079-.6371235l-2.1306966-.2085394-3.1115505 11.228045z"/><path d="m29.2293034 13.0394607-.1948764-.6817079-2.1271012.0510562v10.6887191.6666067l5.2393708-.171146z"/><path d="m41.9221573 9.71289888v-.15101124c0-.01078652.0050337-.01941573.0064719-.02948315.0014382-.01510112.0014382-.03020224.0057528-.04458427.0021573-.00791011.0050337-.01582022.0079101-.02373033.0050337-.01366292.0122248-.02516854.0186967-.03739326.007191-.01294382.0129438-.02516854.0208539-.03595506.0057528-.00719101.0115056-.01366292.0165393-.02013483.0100674-.01078652.0201349-.01797753.0309214-.02732584.0115056-.00934832.0222921-.01869663.0352359-.02660674.0043146-.00215731.007191-.00719101.0122247-.00934832.0035956-.0014382.0079102-.0014382.0115057-.0028764.0129438-.00575281.0258876-.00862922.0402696-.01294382.0100674-.00287641.0179776-.00934832.0287641-.01150562l18.5909213-3.50561798-1.3849887-1.78049438-.6443147.19775281c-.0007191 0-.0007191 0-.0021573 0 0 0 0 .0007191-.0014382.0007191l-17.2037752 5.06750562z"/><path d="m42.7289888 9.93510112c.0050337-.00862921.0129438-.01510112.0179775-.02301123.007191-.01006742.0136629-.02013483.0208539-.02948315.007191-.00719101.0151011-.01438202.0222922-.02085393.0107865-.00934832.0222921-.01725843.0345168-.02516854.0107865-.00647191.0201348-.01366292.0316405-.01941573.0100674-.00431461.0194157-.00719101.0294831-.01150562.007191-.0021573.0122247-.00719101.0186966-.00934831.0086293-.00215731.0165394 0 .0251686-.00143821.0079101-.0014382.0151011-.00647191.0230112-.00719101l19.6106068-1.75964045-.8341573-1.81716854-.4242697.04170787-18.6599551 3.52z"/><path d="m40.704 9.39649438v-.28476404c0-.00215731.0014382-.00431461.0014382-.00647191 0-.00575281 0-.01078652.0007191-.01653933.0014382-.01869663.0079101-.03523595.0136629-.05321348.0035955-.01294382.0043146-.02732584.0100674-.03955056.0014382-.00431461.0043146-.00862922.006472-.01294382.0079101-.01582023.0201348-.02876405.0309213-.04314607.0093483-.01222472.0158202-.02516854.0266067-.03523596.0021573-.0021573.0028764-.0043146.0050337-.00647191.0014383-.0014382.0043147-.0021573.0057529-.0035955.0129438-.01078652.0273258-.01653933.0409887-.02444944.0151011-.00862921.0273259-.01869663.0438652-.02516854.0057528-.0021573.0100674-.00431461.0151011-.00647191.0028764-.0007191.0043146-.0021573.0064719-.0028764l17.1397753-5.04880899-1.9660225-1.71361798-.6644494.30777528c-.0014382.0007191-.0043146 0-.0057528.0007191s-.0028764.00287641-.0050337.00359551l-15.4088989 6.42373033z"/><path d="m56.5573034 19.9500225-15.5505618-6.5308764c-.0014382-.0007191-.0021573-.0014382-.0035955-.0021573s-.0028764 0-.0043146-.0007191l-.5522697-.2516854-.4702921.3451685 13.5392359 7.7993708c.0093483.0050337.014382.014382.0215731.0194157.0107865.007191.0208539.0129438.0309213.020854.007191.007191.0122247.014382.0179775.021573.0115056.0129438.0194158.0258876.028045.0402697.0050337.0086292.0129438.014382.0165393.0222921.0014382.0021573.0007191.0043146.0014382.007191.0043146.0079101.0057528.0158202.0086292.0244494.0050337.0158203.0086292.0316405.0107865.0481798.0021573.0136629.0064719.0251686.0064719.0381124 0 .0028764.0014382.0043146.0014382.0064719v.355955z"/><path d="m52.7554157 21.5349213-13.4486292-7.7468764c-.0021573-.0014382-.0035955-.0035955-.0064719-.0050337-.0014382-.0007191-.0028764 0-.0043146-.0014382l-.5702472-.3624269-.789573.3753708 11.0604944 8.8226516c.0043146.0035955.007191.0086293.0107865.0122248.0064719.0057528.0122247.0100674.0172584.0151011.0100674.0107865.0165393.0230112.0244494.0352359.0093484.0129439.0186967.0244495.0251686.0388315.0035955.007191.007191.014382.0100674.021573.0014382.0028764.0043146.0057528.0050337.0086292.0043146.0107866.0021573.020854.0043146.0309214.0035955.0151011.007191.0309213.0086292.0460225 0 .0057528.0028764.0107865.0028764.0158202v.4415281z"/><path d="m39.6095281 10.353618c.0086292.0050337.0172584.007191.0251685.0136629l1.5403146 1.2828764c.0050337.0043146.0079101.0107865.0122248.0151011.0057528.0050337.0122247.007191.0165393.0122247l.4760449.5242248c.0179776-.0107866.0395506-.0151012.0596854-.0215731.0122247-.0035955.0230113-.0115056.0359551-.0136629.0151011-.0021573.0323595.0007191.0474606.0007191.0222922 0 .0438652-.0021573.0654383.0028764.0021573.0007191.0035955 0 .0057528 0l.3207191.0798202.3365393-.4796404c.0050337-.007191.0122247-.0107865.0172584-.0165393.0129438-.0151012.0266068-.028045.042427-.0402697.014382-.0115056.028764-.021573.0445842-.0302022.0151012-.0086293.0323596-.013663.0488989-.0186967.0194158-.0057528.0381124-.0100674.0575281-.0115056.0086292-.0007191.0151011-.0050337.0237304-.0050337h.0625618l.1294382-.3235955c-.0481798 0-.0913259-.0151011-.1315956-.0359551-.0115056-.0057528-.0194157-.0136629-.0294831-.0201348-.0323595-.0222921-.0575281-.049618-.078382-.0819775-.0035955-.0064719-.0115056-.0093483-.014382-.0158202l-.2847641-.5457978c-.0107865.014382-.0194157.0302022-.0323595.0431461-.0014382.0014382-.0028764.0043146-.0043146.0064719-.0035956.0028764-.0086293.0014382-.0115057.0043146-.0496179.0417079-.1114606.0697528-.1819325.0697528-.0402697 0-.0783821-.0086292-.1128989-.0237303-.007191-.0028764-.0122247-.0086293-.0179776-.0122248-.0280449-.0151011-.0546516-.0316404-.0755056-.0546516-.0021573-.0014382-.0043146-.0021574-.0064719-.0043147l-.718382-.79388759v.15101119c0 .013663-.0057528.0244495-.007191.0373933-.0028764.0201348-.0050337.0402697-.0129438.0604045-.0064719.0179775-.0165394.0337977-.0266068.0503371-.007191.0122247-.0107865.0251685-.0194157.035955-.0028764.0035955-.007191.0043146-.0100674.0079101-.0194158.0215731-.0438652.0381124-.0690337.0524944-.0100674.0057528-.0165394.0136629-.0266068.0179776-.035955.0158202-.0747865.0251685-.1157753.0251685-.0647191 0-.121528-.0251685-.1689887-.0611236-.0043146-.0028764-.0107865-.0014382-.0151011-.0050337l-1.0685843-.8909663v.34948314c0 .00431461-.0021573.00862922-.0021573.01294382-.0014382.02085393-.007191.04026966-.0129438.0604045-.0043146.01725842-.0086292.03451685-.0151012.05033707-.0028764.00503371-.0028764.01006742-.0050337.01510113-.0043146.00719101-.0122247.01078652-.0165393.01725843-.0201348.03020224-.0445843.05537078-.0747865.07622471-.0107865.00719102-.0186966.01510113-.0302023.02085394-.0402696.02085393-.0826966.03523595-.1308764.03523595-.0007191 0-.0014382 0-.0014382 0-.0453033 0-.0870112-.01294382-.1251236-.03235955-.0043146-.0014382-.0086292-.0007191-.0122247-.0028764l-1.5626067-.85644944v.24233708l1.8387416 1.00746072c.0093483.0028764.0151011.0115056.0222921.0165393z"/><path d="m39.1629663 8.72701124v-.00071911c0-.01366292.0057528-.02588764.0086292-.03955056.0021573-.01869663.0043146-.03739326.0107865-.05608988.0021573-.00431461.0014382-.00934832.0035955-.01438203.0057528-.01510112.0165394-.02588764.0251686-.03955056.007191-.01078652.0100674-.02373034.0186966-.03379775.0021573-.00287641.0064719-.00431461.0093483-.00719101.0028764-.00359551.0043146-.00791012.0079101-.01150562.0122247-.01150562.0273259-.01797753.0402697-.02732584.0151011-.01006742.0273258-.02157304.0438652-.02876405.0028764-.0014382.0057528-.00503371.0093483-.00647191h.0007191l15.3218876-6.38705618-2.5751011-1.54534831-14.0368539 8.0654382 1.1131685.61051685v-.47820224z"/><path d="m43.3553258 10.3665618c.0028764 0 .0057529-.0014382.0093484-.0014382h.0007191l20.1851685.0632809-.3394157-1.88979776-.1747416.02516854c-.0043146.0007191-.0079101 0-.0115056.0007191-.0014382 0-.0028764.0007191-.0035955.0007191l-19.676045 1.76611232z"/><path d="m63.7130787 11.0036854-20.0880899-.0632809-.0100675.0942022 19.953618 1.876854z"/><path d="m62.4747865 15.3111011c.0093483.0014382.0172584.0079101.0266068.0107865.0179775.0057528.0352359.0122248.0517752.0215731.0086293.0043146.0186967.0064719.0266068.0115056h.0007191c.0035955.0021573.0057528.0064719.0093483.0093483l.7651236-1.8948315-19.868045-1.8689438-.0467415.1172135 19.0324494 3.5926292c.0007191 0 .0014382.0007191.0021573.0007191z"/><path d="m59.6796404 17.9746517-17.4195056-5.1207191-.3825618-.0949214-.0546517.0366742-.2222022.2495281 15.6684944 6.5804944c.0086292.0035955.014382.0107865.021573.0151011.0158202.0086292.0294832.0179775.0445843.0294831.0086292.0064719.0179775.0107866.0266067.0186967.007191.007191.0100674.0158202.0151012.0230112.0057528.0064719.0136629.0107865.0179775.0172584.0057528.0079101.0064719.0172585.0115056.0258877.0043146.0093483.0122247.0158202.0158202.0258876.0035955.0093483.0035955.0194157.0064719.0294832.0057528.0172584.0086292.0345168.0107865.0532134.0007192.0100675.0050338.0186967.0050338.0287641v.2250786z"/><path d="m61.9340225 15.793618-18.9181124-3.5710562h-.0791011l-.1337528.1905618 17.515146 5.148764c.0057529.0014382.0093484.0057528.0143821.0079102.0014382 0 .0028764 0 .0043146.0007191.0043146.0014382.0093483.0007191.0129438.0028764.0107865.0043146.0186966.0136629.0280449.0186966.0028764.0014382.0057528.0035955.0086293.0050337.0151011.0093483.0302022.0172584.043146.0294831.0043146.0035955.0100674.006472.0136629.0107866.0014382.0007191.0021573.0007191.0028764.0014382.0086293.0093483.0122248.0208539.0194158.0302022.0107865.0151011.021573.028045.0294831.0445843.0028764.0057528.007191.0115056.0093483.0172584.0057528.0136629.0064719.0273258.0093484.0409888.0043146.0165393.0086292.0323595.0100674.050337 0 .0057529.0028764.0107866.0028764.0158203v.0280449z"/></g></svg>