<?xml version="1.0" encoding="utf-8"?>
<!-- Generator: Adobe Illustrator 25.4.1, SVG Export Plug-In . SVG Version: 6.00 Build 0)  -->
<svg version="1.1" id="Layer_1" xmlns="http://www.w3.org/2000/svg" xmlns:xlink="http://www.w3.org/1999/xlink" x="0px" y="0px"
	 viewBox="0 0 143.7 88.8" style="enable-background:new 0 0 143.7 88.8;" xml:space="preserve">
<style type="text/css">
	.st0{fill:#5DBC5B;}
</style>
<g>
	<path class="st0" d="M109.3,8.5L109.3,8.5V0h-3.1v8.5l0,0c0,19-15.4,34.4-34.4,34.4S37.5,27.4,37.5,8.5l0,0V0h-3.1v8.5l0,0
		c0,19-15.4,34.4-34.4,34.4v1.5v1.5c19,0,34.4,15.4,34.4,34.4l0,0v8.5h3.1v-8.5l0,0c0-9.2,3.5-17.8,10-24.3
		C53.9,49.5,62.6,46,71.8,46c18.9,0,34.4,15.4,34.4,34.4l0,0v8.5h3.1v-8.5l0,0l0,0c0-18.9,15.4-34.4,34.4-34.4v-1.5v-1.5
		C124.7,42.8,109.3,27.4,109.3,8.5z M35.9,58.2c-2.4-6.3-7.4-11.3-13.8-13.8C28.5,42,33.5,37,35.9,30.6C38.3,37,43.4,42,49.7,44.4
		C43.4,46.8,38.3,51.8,35.9,58.2z M107.8,58.2c-2.4-6.3-7.4-11.3-13.8-13.8c6.3-2.4,11.3-7.4,13.8-13.8c2.4,6.3,7.4,11.3,13.8,13.8
		C115.2,46.8,110.2,51.8,107.8,58.2z"/>
</g>
</svg>
