<?xml version="1.0" standalone="no"?>
<svg xmlns="http://www.w3.org/2000/svg" width="500" height="500"><defs><clipPath id="clip-path-dot-color"><rect x="19" y="131" width="14" height="14" transform="rotate(0,26,138)"/><rect x="19" y="145" width="14" height="14" transform="rotate(0,26,152)"/><rect x="19" y="159" width="14" height="14" transform="rotate(0,26,166)"/><rect x="19" y="173" width="14" height="14" transform="rotate(0,26,180)"/><rect x="19" y="201" width="14" height="14" transform="rotate(0,26,208)"/><rect x="19" y="215" width="14" height="14" transform="rotate(0,26,222)"/><rect x="19" y="229" width="14" height="14" transform="rotate(0,26,236)"/><rect x="19" y="243" width="14" height="14" transform="rotate(0,26,250)"/><rect x="19" y="257" width="14" height="14" transform="rotate(0,26,264)"/><rect x="19" y="271" width="14" height="14" transform="rotate(0,26,278)"/><rect x="19" y="327" width="14" height="14" transform="rotate(0,26,334)"/><rect x="33" y="131" width="14" height="14" transform="rotate(0,40,138)"/><rect x="33" y="159" width="14" height="14" transform="rotate(0,40,166)"/><rect x="33" y="173" width="14" height="14" transform="rotate(0,40,180)"/><rect x="33" y="201" width="14" height="14" transform="rotate(0,40,208)"/><rect x="33" y="215" width="14" height="14" transform="rotate(0,40,222)"/><rect x="33" y="257" width="14" height="14" transform="rotate(0,40,264)"/><rect x="33" y="299" width="14" height="14" transform="rotate(0,40,306)"/><rect x="33" y="313" width="14" height="14" transform="rotate(0,40,320)"/><rect x="33" y="327" width="14" height="14" transform="rotate(0,40,334)"/><rect x="33" y="355" width="14" height="14" transform="rotate(0,40,362)"/><rect x="47" y="159" width="14" height="14" transform="rotate(0,54,166)"/><rect x="47" y="173" width="14" height="14" transform="rotate(0,54,180)"/><rect x="47" y="215" width="14" height="14" transform="rotate(0,54,222)"/><rect x="47" y="229" width="14" height="14" transform="rotate(0,54,236)"/><rect x="47" y="243" width="14" height="14" transform="rotate(0,54,250)"/><rect x="47" y="271" width="14" height="14" transform="rotate(0,54,278)"/><rect x="47" y="285" width="14" height="14" transform="rotate(0,54,292)"/><rect x="47" y="313" width="14" height="14" transform="rotate(0,54,320)"/><rect x="47" y="341" width="14" height="14" transform="rotate(0,54,348)"/><rect x="61" y="145" width="14" height="14" transform="rotate(0,68,152)"/><rect x="61" y="173" width="14" height="14" transform="rotate(0,68,180)"/><rect x="61" y="187" width="14" height="14" transform="rotate(0,68,194)"/><rect x="61" y="215" width="14" height="14" transform="rotate(0,68,222)"/><rect x="61" y="243" width="14" height="14" transform="rotate(0,68,250)"/><rect x="61" y="271" width="14" height="14" transform="rotate(0,68,278)"/><rect x="61" y="299" width="14" height="14" transform="rotate(0,68,306)"/><rect x="61" y="313" width="14" height="14" transform="rotate(0,68,320)"/><rect x="61" y="341" width="14" height="14" transform="rotate(0,68,348)"/><rect x="61" y="355" width="14" height="14" transform="rotate(0,68,362)"/><rect x="75" y="159" width="14" height="14" transform="rotate(0,82,166)"/><rect x="75" y="201" width="14" height="14" transform="rotate(0,82,208)"/><rect x="75" y="229" width="14" height="14" transform="rotate(0,82,236)"/><rect x="75" y="243" width="14" height="14" transform="rotate(0,82,250)"/><rect x="75" y="271" width="14" height="14" transform="rotate(0,82,278)"/><rect x="75" y="285" width="14" height="14" transform="rotate(0,82,292)"/><rect x="75" y="299" width="14" height="14" transform="rotate(0,82,306)"/><rect x="75" y="313" width="14" height="14" transform="rotate(0,82,320)"/><rect x="75" y="341" width="14" height="14" transform="rotate(0,82,348)"/><rect x="89" y="145" width="14" height="14" transform="rotate(0,96,152)"/><rect x="89" y="159" width="14" height="14" transform="rotate(0,96,166)"/><rect x="89" y="187" width="14" height="14" transform="rotate(0,96,194)"/><rect x="89" y="215" width="14" height="14" transform="rotate(0,96,222)"/><rect x="89" y="229" width="14" height="14" transform="rotate(0,96,236)"/><rect x="89" y="243" width="14" height="14" transform="rotate(0,96,250)"/><rect x="89" y="271" width="14" height="14" transform="rotate(0,96,278)"/><rect x="89" y="299" width="14" height="14" transform="rotate(0,96,306)"/><rect x="89" y="327" width="14" height="14" transform="rotate(0,96,334)"/><rect x="89" y="355" width="14" height="14" transform="rotate(0,96,362)"/><rect x="103" y="131" width="14" height="14" transform="rotate(0,110,138)"/><rect x="103" y="159" width="14" height="14" transform="rotate(0,110,166)"/><rect x="103" y="187" width="14" height="14" transform="rotate(0,110,194)"/><rect x="103" y="215" width="14" height="14" transform="rotate(0,110,222)"/><rect x="103" y="243" width="14" height="14" transform="rotate(0,110,250)"/><rect x="103" y="271" width="14" height="14" transform="rotate(0,110,278)"/><rect x="103" y="299" width="14" height="14" transform="rotate(0,110,306)"/><rect x="103" y="327" width="14" height="14" transform="rotate(0,110,334)"/><rect x="103" y="355" width="14" height="14" transform="rotate(0,110,362)"/><rect x="117" y="159" width="14" height="14" transform="rotate(0,124,166)"/><rect x="117" y="243" width="14" height="14" transform="rotate(0,124,250)"/><rect x="117" y="285" width="14" height="14" transform="rotate(0,124,292)"/><rect x="117" y="327" width="14" height="14" transform="rotate(0,124,334)"/><rect x="117" y="341" width="14" height="14" transform="rotate(0,124,348)"/><rect x="117" y="355" width="14" height="14" transform="rotate(0,124,362)"/><rect x="131" y="33" width="14" height="14" transform="rotate(0,138,40)"/><rect x="131" y="103" width="14" height="14" transform="rotate(0,138,110)"/><rect x="131" y="117" width="14" height="14" transform="rotate(0,138,124)"/><rect x="131" y="131" width="14" height="14" transform="rotate(0,138,138)"/><rect x="131" y="173" width="14" height="14" transform="rotate(0,138,180)"/><rect x="131" y="201" width="14" height="14" transform="rotate(0,138,208)"/><rect x="131" y="243" width="14" height="14" transform="rotate(0,138,250)"/><rect x="131" y="257" width="14" height="14" transform="rotate(0,138,264)"/><rect x="131" y="355" width="14" height="14" transform="rotate(0,138,362)"/><rect x="131" y="369" width="14" height="14" transform="rotate(0,138,376)"/><rect x="131" y="453" width="14" height="14" transform="rotate(0,138,460)"/><rect x="131" y="467" width="14" height="14" transform="rotate(0,138,474)"/><rect x="145" y="19" width="14" height="14" transform="rotate(0,152,26)"/><rect x="145" y="33" width="14" height="14" transform="rotate(0,152,40)"/><rect x="145" y="117" width="14" height="14" transform="rotate(0,152,124)"/><rect x="145" y="145" width="14" height="14" transform="rotate(0,152,152)"/><rect x="145" y="187" width="14" height="14" transform="rotate(0,152,194)"/><rect x="145" y="229" width="14" height="14" transform="rotate(0,152,236)"/><rect x="145" y="257" width="14" height="14" transform="rotate(0,152,264)"/><rect x="145" y="285" width="14" height="14" transform="rotate(0,152,292)"/><rect x="145" y="327" width="14" height="14" transform="rotate(0,152,334)"/><rect x="145" y="341" width="14" height="14" transform="rotate(0,152,348)"/><rect x="145" y="411" width="14" height="14" transform="rotate(0,152,418)"/><rect x="145" y="425" width="14" height="14" transform="rotate(0,152,432)"/><rect x="145" y="439" width="14" height="14" transform="rotate(0,152,446)"/><rect x="159" y="19" width="14" height="14" transform="rotate(0,166,26)"/><rect x="159" y="47" width="14" height="14" transform="rotate(0,166,54)"/><rect x="159" y="89" width="14" height="14" transform="rotate(0,166,96)"/><rect x="159" y="103" width="14" height="14" transform="rotate(0,166,110)"/><rect x="159" y="131" width="14" height="14" transform="rotate(0,166,138)"/><rect x="159" y="145" width="14" height="14" transform="rotate(0,166,152)"/><rect x="159" y="173" width="14" height="14" transform="rotate(0,166,180)"/><rect x="159" y="187" width="14" height="14" transform="rotate(0,166,194)"/><rect x="159" y="215" width="14" height="14" transform="rotate(0,166,222)"/><rect x="159" y="229" width="14" height="14" transform="rotate(0,166,236)"/><rect x="159" y="257" width="14" height="14" transform="rotate(0,166,264)"/><rect x="159" y="313" width="14" height="14" transform="rotate(0,166,320)"/><rect x="159" y="383" width="14" height="14" transform="rotate(0,166,390)"/><rect x="159" y="411" width="14" height="14" transform="rotate(0,166,418)"/><rect x="159" y="439" width="14" height="14" transform="rotate(0,166,446)"/><rect x="173" y="61" width="14" height="14" transform="rotate(0,180,68)"/><rect x="173" y="75" width="14" height="14" transform="rotate(0,180,82)"/><rect x="173" y="117" width="14" height="14" transform="rotate(0,180,124)"/><rect x="173" y="131" width="14" height="14" transform="rotate(0,180,138)"/><rect x="173" y="159" width="14" height="14" transform="rotate(0,180,166)"/><rect x="173" y="201" width="14" height="14" transform="rotate(0,180,208)"/><rect x="173" y="229" width="14" height="14" transform="rotate(0,180,236)"/><rect x="173" y="243" width="14" height="14" transform="rotate(0,180,250)"/><rect x="173" y="257" width="14" height="14" transform="rotate(0,180,264)"/><rect x="173" y="271" width="14" height="14" transform="rotate(0,180,278)"/><rect x="173" y="285" width="14" height="14" transform="rotate(0,180,292)"/><rect x="173" y="299" width="14" height="14" transform="rotate(0,180,306)"/><rect x="173" y="327" width="14" height="14" transform="rotate(0,180,334)"/><rect x="173" y="341" width="14" height="14" transform="rotate(0,180,348)"/><rect x="173" y="369" width="14" height="14" transform="rotate(0,180,376)"/><rect x="173" y="397" width="14" height="14" transform="rotate(0,180,404)"/><rect x="173" y="411" width="14" height="14" transform="rotate(0,180,418)"/><rect x="173" y="425" width="14" height="14" transform="rotate(0,180,432)"/><rect x="173" y="439" width="14" height="14" transform="rotate(0,180,446)"/><rect x="173" y="453" width="14" height="14" transform="rotate(0,180,460)"/><rect x="173" y="467" width="14" height="14" transform="rotate(0,180,474)"/><rect x="187" y="19" width="14" height="14" transform="rotate(0,194,26)"/><rect x="187" y="61" width="14" height="14" transform="rotate(0,194,68)"/><rect x="187" y="75" width="14" height="14" transform="rotate(0,194,82)"/><rect x="187" y="103" width="14" height="14" transform="rotate(0,194,110)"/><rect x="187" y="159" width="14" height="14" transform="rotate(0,194,166)"/><rect x="187" y="201" width="14" height="14" transform="rotate(0,194,208)"/><rect x="187" y="215" width="14" height="14" transform="rotate(0,194,222)"/><rect x="187" y="243" width="14" height="14" transform="rotate(0,194,250)"/><rect x="187" y="257" width="14" height="14" transform="rotate(0,194,264)"/><rect x="187" y="285" width="14" height="14" transform="rotate(0,194,292)"/><rect x="187" y="299" width="14" height="14" transform="rotate(0,194,306)"/><rect x="187" y="369" width="14" height="14" transform="rotate(0,194,376)"/><rect x="187" y="383" width="14" height="14" transform="rotate(0,194,390)"/><rect x="187" y="453" width="14" height="14" transform="rotate(0,194,460)"/><rect x="187" y="467" width="14" height="14" transform="rotate(0,194,474)"/><rect x="201" y="19" width="14" height="14" transform="rotate(0,208,26)"/><rect x="201" y="33" width="14" height="14" transform="rotate(0,208,40)"/><rect x="201" y="47" width="14" height="14" transform="rotate(0,208,54)"/><rect x="201" y="117" width="14" height="14" transform="rotate(0,208,124)"/><rect x="201" y="187" width="14" height="14" transform="rotate(0,208,194)"/><rect x="201" y="201" width="14" height="14" transform="rotate(0,208,208)"/><rect x="201" y="271" width="14" height="14" transform="rotate(0,208,278)"/><rect x="201" y="285" width="14" height="14" transform="rotate(0,208,292)"/><rect x="201" y="299" width="14" height="14" transform="rotate(0,208,306)"/><rect x="201" y="313" width="14" height="14" transform="rotate(0,208,320)"/><rect x="201" y="327" width="14" height="14" transform="rotate(0,208,334)"/><rect x="201" y="341" width="14" height="14" transform="rotate(0,208,348)"/><rect x="201" y="369" width="14" height="14" transform="rotate(0,208,376)"/><rect x="201" y="383" width="14" height="14" transform="rotate(0,208,390)"/><rect x="201" y="425" width="14" height="14" transform="rotate(0,208,432)"/><rect x="201" y="453" width="14" height="14" transform="rotate(0,208,460)"/><rect x="201" y="467" width="14" height="14" transform="rotate(0,208,474)"/><rect x="215" y="47" width="14" height="14" transform="rotate(0,222,54)"/><rect x="215" y="89" width="14" height="14" transform="rotate(0,222,96)"/><rect x="215" y="103" width="14" height="14" transform="rotate(0,222,110)"/><rect x="215" y="131" width="14" height="14" transform="rotate(0,222,138)"/><rect x="215" y="159" width="14" height="14" transform="rotate(0,222,166)"/><rect x="215" y="173" width="14" height="14" transform="rotate(0,222,180)"/><rect x="215" y="187" width="14" height="14" transform="rotate(0,222,194)"/><rect x="215" y="201" width="14" height="14" transform="rotate(0,222,208)"/><rect x="215" y="243" width="14" height="14" transform="rotate(0,222,250)"/><rect x="215" y="327" width="14" height="14" transform="rotate(0,222,334)"/><rect x="215" y="369" width="14" height="14" transform="rotate(0,222,376)"/><rect x="215" y="383" width="14" height="14" transform="rotate(0,222,390)"/><rect x="215" y="397" width="14" height="14" transform="rotate(0,222,404)"/><rect x="215" y="411" width="14" height="14" transform="rotate(0,222,418)"/><rect x="215" y="425" width="14" height="14" transform="rotate(0,222,432)"/><rect x="215" y="453" width="14" height="14" transform="rotate(0,222,460)"/><rect x="229" y="19" width="14" height="14" transform="rotate(0,236,26)"/><rect x="229" y="47" width="14" height="14" transform="rotate(0,236,54)"/><rect x="229" y="89" width="14" height="14" transform="rotate(0,236,96)"/><rect x="229" y="117" width="14" height="14" transform="rotate(0,236,124)"/><rect x="229" y="145" width="14" height="14" transform="rotate(0,236,152)"/><rect x="229" y="201" width="14" height="14" transform="rotate(0,236,208)"/><rect x="229" y="215" width="14" height="14" transform="rotate(0,236,222)"/><rect x="229" y="229" width="14" height="14" transform="rotate(0,236,236)"/><rect x="229" y="257" width="14" height="14" transform="rotate(0,236,264)"/><rect x="229" y="285" width="14" height="14" transform="rotate(0,236,292)"/><rect x="229" y="327" width="14" height="14" transform="rotate(0,236,334)"/><rect x="229" y="369" width="14" height="14" transform="rotate(0,236,376)"/><rect x="229" y="411" width="14" height="14" transform="rotate(0,236,418)"/><rect x="229" y="425" width="14" height="14" transform="rotate(0,236,432)"/><rect x="229" y="439" width="14" height="14" transform="rotate(0,236,446)"/><rect x="229" y="467" width="14" height="14" transform="rotate(0,236,474)"/><rect x="243" y="19" width="14" height="14" transform="rotate(0,250,26)"/><rect x="243" y="75" width="14" height="14" transform="rotate(0,250,82)"/><rect x="243" y="89" width="14" height="14" transform="rotate(0,250,96)"/><rect x="243" y="103" width="14" height="14" transform="rotate(0,250,110)"/><rect x="243" y="145" width="14" height="14" transform="rotate(0,250,152)"/><rect x="243" y="159" width="14" height="14" transform="rotate(0,250,166)"/><rect x="243" y="229" width="14" height="14" transform="rotate(0,250,236)"/><rect x="243" y="243" width="14" height="14" transform="rotate(0,250,250)"/><rect x="243" y="257" width="14" height="14" transform="rotate(0,250,264)"/><rect x="243" y="299" width="14" height="14" transform="rotate(0,250,306)"/><rect x="243" y="327" width="14" height="14" transform="rotate(0,250,334)"/><rect x="243" y="355" width="14" height="14" transform="rotate(0,250,362)"/><rect x="243" y="369" width="14" height="14" transform="rotate(0,250,376)"/><rect x="243" y="397" width="14" height="14" transform="rotate(0,250,404)"/><rect x="243" y="411" width="14" height="14" transform="rotate(0,250,418)"/><rect x="243" y="467" width="14" height="14" transform="rotate(0,250,474)"/><rect x="257" y="19" width="14" height="14" transform="rotate(0,264,26)"/><rect x="257" y="33" width="14" height="14" transform="rotate(0,264,40)"/><rect x="257" y="47" width="14" height="14" transform="rotate(0,264,54)"/><rect x="257" y="75" width="14" height="14" transform="rotate(0,264,82)"/><rect x="257" y="89" width="14" height="14" transform="rotate(0,264,96)"/><rect x="257" y="131" width="14" height="14" transform="rotate(0,264,138)"/><rect x="257" y="201" width="14" height="14" transform="rotate(0,264,208)"/><rect x="257" y="215" width="14" height="14" transform="rotate(0,264,222)"/><rect x="257" y="271" width="14" height="14" transform="rotate(0,264,278)"/><rect x="257" y="285" width="14" height="14" transform="rotate(0,264,292)"/><rect x="257" y="299" width="14" height="14" transform="rotate(0,264,306)"/><rect x="257" y="341" width="14" height="14" transform="rotate(0,264,348)"/><rect x="257" y="369" width="14" height="14" transform="rotate(0,264,376)"/><rect x="257" y="383" width="14" height="14" transform="rotate(0,264,390)"/><rect x="257" y="425" width="14" height="14" transform="rotate(0,264,432)"/><rect x="257" y="439" width="14" height="14" transform="rotate(0,264,446)"/><rect x="257" y="453" width="14" height="14" transform="rotate(0,264,460)"/><rect x="257" y="467" width="14" height="14" transform="rotate(0,264,474)"/><rect x="271" y="19" width="14" height="14" transform="rotate(0,278,26)"/><rect x="271" y="33" width="14" height="14" transform="rotate(0,278,40)"/><rect x="271" y="47" width="14" height="14" transform="rotate(0,278,54)"/><rect x="271" y="61" width="14" height="14" transform="rotate(0,278,68)"/><rect x="271" y="89" width="14" height="14" transform="rotate(0,278,96)"/><rect x="271" y="103" width="14" height="14" transform="rotate(0,278,110)"/><rect x="271" y="117" width="14" height="14" transform="rotate(0,278,124)"/><rect x="271" y="131" width="14" height="14" transform="rotate(0,278,138)"/><rect x="271" y="145" width="14" height="14" transform="rotate(0,278,152)"/><rect x="271" y="173" width="14" height="14" transform="rotate(0,278,180)"/><rect x="271" y="201" width="14" height="14" transform="rotate(0,278,208)"/><rect x="271" y="215" width="14" height="14" transform="rotate(0,278,222)"/><rect x="271" y="243" width="14" height="14" transform="rotate(0,278,250)"/><rect x="271" y="257" width="14" height="14" transform="rotate(0,278,264)"/><rect x="271" y="285" width="14" height="14" transform="rotate(0,278,292)"/><rect x="271" y="327" width="14" height="14" transform="rotate(0,278,334)"/><rect x="271" y="341" width="14" height="14" transform="rotate(0,278,348)"/><rect x="271" y="369" width="14" height="14" transform="rotate(0,278,376)"/><rect x="271" y="383" width="14" height="14" transform="rotate(0,278,390)"/><rect x="271" y="397" width="14" height="14" transform="rotate(0,278,404)"/><rect x="271" y="425" width="14" height="14" transform="rotate(0,278,432)"/><rect x="271" y="439" width="14" height="14" transform="rotate(0,278,446)"/><rect x="271" y="467" width="14" height="14" transform="rotate(0,278,474)"/><rect x="285" y="33" width="14" height="14" transform="rotate(0,292,40)"/><rect x="285" y="61" width="14" height="14" transform="rotate(0,292,68)"/><rect x="285" y="89" width="14" height="14" transform="rotate(0,292,96)"/><rect x="285" y="145" width="14" height="14" transform="rotate(0,292,152)"/><rect x="285" y="173" width="14" height="14" transform="rotate(0,292,180)"/><rect x="285" y="187" width="14" height="14" transform="rotate(0,292,194)"/><rect x="285" y="201" width="14" height="14" transform="rotate(0,292,208)"/><rect x="285" y="243" width="14" height="14" transform="rotate(0,292,250)"/><rect x="285" y="285" width="14" height="14" transform="rotate(0,292,292)"/><rect x="285" y="299" width="14" height="14" transform="rotate(0,292,306)"/><rect x="285" y="341" width="14" height="14" transform="rotate(0,292,348)"/><rect x="285" y="355" width="14" height="14" transform="rotate(0,292,362)"/><rect x="285" y="411" width="14" height="14" transform="rotate(0,292,418)"/><rect x="285" y="425" width="14" height="14" transform="rotate(0,292,432)"/><rect x="285" y="439" width="14" height="14" transform="rotate(0,292,446)"/><rect x="299" y="19" width="14" height="14" transform="rotate(0,306,26)"/><rect x="299" y="47" width="14" height="14" transform="rotate(0,306,54)"/><rect x="299" y="89" width="14" height="14" transform="rotate(0,306,96)"/><rect x="299" y="103" width="14" height="14" transform="rotate(0,306,110)"/><rect x="299" y="117" width="14" height="14" transform="rotate(0,306,124)"/><rect x="299" y="145" width="14" height="14" transform="rotate(0,306,152)"/><rect x="299" y="159" width="14" height="14" transform="rotate(0,306,166)"/><rect x="299" y="201" width="14" height="14" transform="rotate(0,306,208)"/><rect x="299" y="229" width="14" height="14" transform="rotate(0,306,236)"/><rect x="299" y="243" width="14" height="14" transform="rotate(0,306,250)"/><rect x="299" y="257" width="14" height="14" transform="rotate(0,306,264)"/><rect x="299" y="285" width="14" height="14" transform="rotate(0,306,292)"/><rect x="299" y="299" width="14" height="14" transform="rotate(0,306,306)"/><rect x="299" y="327" width="14" height="14" transform="rotate(0,306,334)"/><rect x="299" y="341" width="14" height="14" transform="rotate(0,306,348)"/><rect x="299" y="355" width="14" height="14" transform="rotate(0,306,362)"/><rect x="299" y="369" width="14" height="14" transform="rotate(0,306,376)"/><rect x="299" y="411" width="14" height="14" transform="rotate(0,306,418)"/><rect x="299" y="425" width="14" height="14" transform="rotate(0,306,432)"/><rect x="299" y="453" width="14" height="14" transform="rotate(0,306,460)"/><rect x="313" y="19" width="14" height="14" transform="rotate(0,320,26)"/><rect x="313" y="33" width="14" height="14" transform="rotate(0,320,40)"/><rect x="313" y="61" width="14" height="14" transform="rotate(0,320,68)"/><rect x="313" y="75" width="14" height="14" transform="rotate(0,320,82)"/><rect x="313" y="89" width="14" height="14" transform="rotate(0,320,96)"/><rect x="313" y="117" width="14" height="14" transform="rotate(0,320,124)"/><rect x="313" y="131" width="14" height="14" transform="rotate(0,320,138)"/><rect x="313" y="173" width="14" height="14" transform="rotate(0,320,180)"/><rect x="313" y="243" width="14" height="14" transform="rotate(0,320,250)"/><rect x="313" y="257" width="14" height="14" transform="rotate(0,320,264)"/><rect x="313" y="271" width="14" height="14" transform="rotate(0,320,278)"/><rect x="313" y="285" width="14" height="14" transform="rotate(0,320,292)"/><rect x="313" y="327" width="14" height="14" transform="rotate(0,320,334)"/><rect x="313" y="341" width="14" height="14" transform="rotate(0,320,348)"/><rect x="313" y="369" width="14" height="14" transform="rotate(0,320,376)"/><rect x="313" y="383" width="14" height="14" transform="rotate(0,320,390)"/><rect x="313" y="411" width="14" height="14" transform="rotate(0,320,418)"/><rect x="313" y="425" width="14" height="14" transform="rotate(0,320,432)"/><rect x="313" y="439" width="14" height="14" transform="rotate(0,320,446)"/><rect x="327" y="19" width="14" height="14" transform="rotate(0,334,26)"/><rect x="327" y="89" width="14" height="14" transform="rotate(0,334,96)"/><rect x="327" y="103" width="14" height="14" transform="rotate(0,334,110)"/><rect x="327" y="187" width="14" height="14" transform="rotate(0,334,194)"/><rect x="327" y="201" width="14" height="14" transform="rotate(0,334,208)"/><rect x="327" y="215" width="14" height="14" transform="rotate(0,334,222)"/><rect x="327" y="229" width="14" height="14" transform="rotate(0,334,236)"/><rect x="327" y="243" width="14" height="14" transform="rotate(0,334,250)"/><rect x="327" y="355" width="14" height="14" transform="rotate(0,334,362)"/><rect x="327" y="397" width="14" height="14" transform="rotate(0,334,404)"/><rect x="327" y="453" width="14" height="14" transform="rotate(0,334,460)"/><rect x="341" y="19" width="14" height="14" transform="rotate(0,348,26)"/><rect x="341" y="89" width="14" height="14" transform="rotate(0,348,96)"/><rect x="341" y="145" width="14" height="14" transform="rotate(0,348,152)"/><rect x="341" y="159" width="14" height="14" transform="rotate(0,348,166)"/><rect x="341" y="173" width="14" height="14" transform="rotate(0,348,180)"/><rect x="341" y="187" width="14" height="14" transform="rotate(0,348,194)"/><rect x="341" y="229" width="14" height="14" transform="rotate(0,348,236)"/><rect x="341" y="271" width="14" height="14" transform="rotate(0,348,278)"/><rect x="341" y="285" width="14" height="14" transform="rotate(0,348,292)"/><rect x="341" y="299" width="14" height="14" transform="rotate(0,348,306)"/><rect x="341" y="327" width="14" height="14" transform="rotate(0,348,334)"/><rect x="341" y="341" width="14" height="14" transform="rotate(0,348,348)"/><rect x="341" y="355" width="14" height="14" transform="rotate(0,348,362)"/><rect x="341" y="369" width="14" height="14" transform="rotate(0,348,376)"/><rect x="341" y="383" width="14" height="14" transform="rotate(0,348,390)"/><rect x="341" y="397" width="14" height="14" transform="rotate(0,348,404)"/><rect x="341" y="439" width="14" height="14" transform="rotate(0,348,446)"/><rect x="341" y="453" width="14" height="14" transform="rotate(0,348,460)"/><rect x="355" y="19" width="14" height="14" transform="rotate(0,362,26)"/><rect x="355" y="33" width="14" height="14" transform="rotate(0,362,40)"/><rect x="355" y="61" width="14" height="14" transform="rotate(0,362,68)"/><rect x="355" y="75" width="14" height="14" transform="rotate(0,362,82)"/><rect x="355" y="103" width="14" height="14" transform="rotate(0,362,110)"/><rect x="355" y="117" width="14" height="14" transform="rotate(0,362,124)"/><rect x="355" y="173" width="14" height="14" transform="rotate(0,362,180)"/><rect x="355" y="201" width="14" height="14" transform="rotate(0,362,208)"/><rect x="355" y="215" width="14" height="14" transform="rotate(0,362,222)"/><rect x="355" y="243" width="14" height="14" transform="rotate(0,362,250)"/><rect x="355" y="257" width="14" height="14" transform="rotate(0,362,264)"/><rect x="355" y="299" width="14" height="14" transform="rotate(0,362,306)"/><rect x="355" y="341" width="14" height="14" transform="rotate(0,362,348)"/><rect x="355" y="355" width="14" height="14" transform="rotate(0,362,362)"/><rect x="355" y="369" width="14" height="14" transform="rotate(0,362,376)"/><rect x="355" y="383" width="14" height="14" transform="rotate(0,362,390)"/><rect x="355" y="397" width="14" height="14" transform="rotate(0,362,404)"/><rect x="355" y="411" width="14" height="14" transform="rotate(0,362,418)"/><rect x="369" y="131" width="14" height="14" transform="rotate(0,376,138)"/><rect x="369" y="145" width="14" height="14" transform="rotate(0,376,152)"/><rect x="369" y="159" width="14" height="14" transform="rotate(0,376,166)"/><rect x="369" y="201" width="14" height="14" transform="rotate(0,376,208)"/><rect x="369" y="215" width="14" height="14" transform="rotate(0,376,222)"/><rect x="369" y="229" width="14" height="14" transform="rotate(0,376,236)"/><rect x="369" y="243" width="14" height="14" transform="rotate(0,376,250)"/><rect x="369" y="257" width="14" height="14" transform="rotate(0,376,264)"/><rect x="369" y="285" width="14" height="14" transform="rotate(0,376,292)"/><rect x="369" y="355" width="14" height="14" transform="rotate(0,376,362)"/><rect x="369" y="411" width="14" height="14" transform="rotate(0,376,418)"/><rect x="369" y="439" width="14" height="14" transform="rotate(0,376,446)"/><rect x="369" y="467" width="14" height="14" transform="rotate(0,376,474)"/><rect x="383" y="131" width="14" height="14" transform="rotate(0,390,138)"/><rect x="383" y="145" width="14" height="14" transform="rotate(0,390,152)"/><rect x="383" y="159" width="14" height="14" transform="rotate(0,390,166)"/><rect x="383" y="173" width="14" height="14" transform="rotate(0,390,180)"/><rect x="383" y="187" width="14" height="14" transform="rotate(0,390,194)"/><rect x="383" y="201" width="14" height="14" transform="rotate(0,390,208)"/><rect x="383" y="229" width="14" height="14" transform="rotate(0,390,236)"/><rect x="383" y="243" width="14" height="14" transform="rotate(0,390,250)"/><rect x="383" y="257" width="14" height="14" transform="rotate(0,390,264)"/><rect x="383" y="271" width="14" height="14" transform="rotate(0,390,278)"/><rect x="383" y="299" width="14" height="14" transform="rotate(0,390,306)"/><rect x="383" y="313" width="14" height="14" transform="rotate(0,390,320)"/><rect x="383" y="327" width="14" height="14" transform="rotate(0,390,334)"/><rect x="383" y="341" width="14" height="14" transform="rotate(0,390,348)"/><rect x="383" y="355" width="14" height="14" transform="rotate(0,390,362)"/><rect x="383" y="383" width="14" height="14" transform="rotate(0,390,390)"/><rect x="383" y="411" width="14" height="14" transform="rotate(0,390,418)"/><rect x="383" y="439" width="14" height="14" transform="rotate(0,390,446)"/><rect x="383" y="453" width="14" height="14" transform="rotate(0,390,460)"/><rect x="397" y="159" width="14" height="14" transform="rotate(0,404,166)"/><rect x="397" y="257" width="14" height="14" transform="rotate(0,404,264)"/><rect x="397" y="327" width="14" height="14" transform="rotate(0,404,334)"/><rect x="397" y="341" width="14" height="14" transform="rotate(0,404,348)"/><rect x="397" y="355" width="14" height="14" transform="rotate(0,404,362)"/><rect x="397" y="411" width="14" height="14" transform="rotate(0,404,418)"/><rect x="397" y="425" width="14" height="14" transform="rotate(0,404,432)"/><rect x="397" y="439" width="14" height="14" transform="rotate(0,404,446)"/><rect x="411" y="159" width="14" height="14" transform="rotate(0,418,166)"/><rect x="411" y="173" width="14" height="14" transform="rotate(0,418,180)"/><rect x="411" y="229" width="14" height="14" transform="rotate(0,418,236)"/><rect x="411" y="243" width="14" height="14" transform="rotate(0,418,250)"/><rect x="411" y="257" width="14" height="14" transform="rotate(0,418,264)"/><rect x="411" y="285" width="14" height="14" transform="rotate(0,418,292)"/><rect x="411" y="327" width="14" height="14" transform="rotate(0,418,334)"/><rect x="411" y="355" width="14" height="14" transform="rotate(0,418,362)"/><rect x="411" y="369" width="14" height="14" transform="rotate(0,418,376)"/><rect x="411" y="383" width="14" height="14" transform="rotate(0,418,390)"/><rect x="411" y="397" width="14" height="14" transform="rotate(0,418,404)"/><rect x="411" y="411" width="14" height="14" transform="rotate(0,418,418)"/><rect x="411" y="425" width="14" height="14" transform="rotate(0,418,432)"/><rect x="425" y="145" width="14" height="14" transform="rotate(0,432,152)"/><rect x="425" y="159" width="14" height="14" transform="rotate(0,432,166)"/><rect x="425" y="173" width="14" height="14" transform="rotate(0,432,180)"/><rect x="425" y="229" width="14" height="14" transform="rotate(0,432,236)"/><rect x="425" y="285" width="14" height="14" transform="rotate(0,432,292)"/><rect x="425" y="313" width="14" height="14" transform="rotate(0,432,320)"/><rect x="425" y="355" width="14" height="14" transform="rotate(0,432,362)"/><rect x="425" y="369" width="14" height="14" transform="rotate(0,432,376)"/><rect x="425" y="397" width="14" height="14" transform="rotate(0,432,404)"/><rect x="425" y="411" width="14" height="14" transform="rotate(0,432,418)"/><rect x="425" y="439" width="14" height="14" transform="rotate(0,432,446)"/><rect x="425" y="467" width="14" height="14" transform="rotate(0,432,474)"/><rect x="439" y="159" width="14" height="14" transform="rotate(0,446,166)"/><rect x="439" y="201" width="14" height="14" transform="rotate(0,446,208)"/><rect x="439" y="229" width="14" height="14" transform="rotate(0,446,236)"/><rect x="439" y="271" width="14" height="14" transform="rotate(0,446,278)"/><rect x="439" y="285" width="14" height="14" transform="rotate(0,446,292)"/><rect x="439" y="369" width="14" height="14" transform="rotate(0,446,376)"/><rect x="439" y="397" width="14" height="14" transform="rotate(0,446,404)"/><rect x="439" y="411" width="14" height="14" transform="rotate(0,446,418)"/><rect x="439" y="425" width="14" height="14" transform="rotate(0,446,432)"/><rect x="439" y="439" width="14" height="14" transform="rotate(0,446,446)"/><rect x="439" y="453" width="14" height="14" transform="rotate(0,446,460)"/><rect x="439" y="467" width="14" height="14" transform="rotate(0,446,474)"/><rect x="453" y="131" width="14" height="14" transform="rotate(0,460,138)"/><rect x="453" y="173" width="14" height="14" transform="rotate(0,460,180)"/><rect x="453" y="187" width="14" height="14" transform="rotate(0,460,194)"/><rect x="453" y="201" width="14" height="14" transform="rotate(0,460,208)"/><rect x="453" y="215" width="14" height="14" transform="rotate(0,460,222)"/><rect x="453" y="229" width="14" height="14" transform="rotate(0,460,236)"/><rect x="453" y="243" width="14" height="14" transform="rotate(0,460,250)"/><rect x="453" y="257" width="14" height="14" transform="rotate(0,460,264)"/><rect x="453" y="271" width="14" height="14" transform="rotate(0,460,278)"/><rect x="453" y="285" width="14" height="14" transform="rotate(0,460,292)"/><rect x="453" y="299" width="14" height="14" transform="rotate(0,460,306)"/><rect x="453" y="327" width="14" height="14" transform="rotate(0,460,334)"/><rect x="453" y="369" width="14" height="14" transform="rotate(0,460,376)"/><rect x="453" y="383" width="14" height="14" transform="rotate(0,460,390)"/><rect x="453" y="397" width="14" height="14" transform="rotate(0,460,404)"/><rect x="453" y="411" width="14" height="14" transform="rotate(0,460,418)"/><rect x="453" y="425" width="14" height="14" transform="rotate(0,460,432)"/><rect x="453" y="439" width="14" height="14" transform="rotate(0,460,446)"/><rect x="467" y="145" width="14" height="14" transform="rotate(0,474,152)"/><rect x="467" y="187" width="14" height="14" transform="rotate(0,474,194)"/><rect x="467" y="201" width="14" height="14" transform="rotate(0,474,208)"/><rect x="467" y="229" width="14" height="14" transform="rotate(0,474,236)"/><rect x="467" y="257" width="14" height="14" transform="rotate(0,474,264)"/><rect x="467" y="285" width="14" height="14" transform="rotate(0,474,292)"/><rect x="467" y="327" width="14" height="14" transform="rotate(0,474,334)"/><rect x="467" y="341" width="14" height="14" transform="rotate(0,474,348)"/><rect x="467" y="355" width="14" height="14" transform="rotate(0,474,362)"/><rect x="467" y="369" width="14" height="14" transform="rotate(0,474,376)"/><rect x="467" y="383" width="14" height="14" transform="rotate(0,474,390)"/><rect x="467" y="397" width="14" height="14" transform="rotate(0,474,404)"/><rect x="467" y="453" width="14" height="14" transform="rotate(0,474,460)"/><path clip-rule="evenodd" d="M 19 19v 98h 98v -98zM 33 33h 70v 70h -70z" transform="rotate(0,68,68)"/><rect x="47" y="47" width="42" height="42" transform="rotate(0,68,68)"/><path clip-rule="evenodd" d="M 383 19v 98h 98v -98zM 397 33h 70v 70h -70z" transform="rotate(90,432,68)"/><rect x="411" y="47" width="42" height="42" transform="rotate(90,432,68)"/><path clip-rule="evenodd" d="M 19 383v 98h 98v -98zM 33 397h 70v 70h -70z" transform="rotate(-90,68,432)"/><rect x="47" y="411" width="42" height="42" transform="rotate(-90,68,432)"/></clipPath></defs><rect x="0" y="0" height="500" width="500" clip-path="url('#clip-path-background-color')" fill="#fff"/><rect x="0" y="0" height="500" width="500" clip-path="url('#clip-path-dot-color')" fill="#000000"/></svg>