<?xml version="1.0" standalone="no"?>
<svg xmlns="http://www.w3.org/2000/svg" width="500" height="500"><defs><clipPath id="clip-path-dot-color"><rect x="19" y="131" width="14" height="14" transform="rotate(0,26,138)"/><rect x="19" y="159" width="14" height="14" transform="rotate(0,26,166)"/><rect x="19" y="173" width="14" height="14" transform="rotate(0,26,180)"/><rect x="19" y="187" width="14" height="14" transform="rotate(0,26,194)"/><rect x="19" y="201" width="14" height="14" transform="rotate(0,26,208)"/><rect x="19" y="243" width="14" height="14" transform="rotate(0,26,250)"/><rect x="19" y="271" width="14" height="14" transform="rotate(0,26,278)"/><rect x="19" y="285" width="14" height="14" transform="rotate(0,26,292)"/><rect x="19" y="327" width="14" height="14" transform="rotate(0,26,334)"/><rect x="19" y="341" width="14" height="14" transform="rotate(0,26,348)"/><rect x="33" y="145" width="14" height="14" transform="rotate(0,40,152)"/><rect x="33" y="201" width="14" height="14" transform="rotate(0,40,208)"/><rect x="33" y="257" width="14" height="14" transform="rotate(0,40,264)"/><rect x="33" y="299" width="14" height="14" transform="rotate(0,40,306)"/><rect x="33" y="313" width="14" height="14" transform="rotate(0,40,320)"/><rect x="33" y="341" width="14" height="14" transform="rotate(0,40,348)"/><rect x="47" y="131" width="14" height="14" transform="rotate(0,54,138)"/><rect x="47" y="145" width="14" height="14" transform="rotate(0,54,152)"/><rect x="47" y="229" width="14" height="14" transform="rotate(0,54,236)"/><rect x="47" y="243" width="14" height="14" transform="rotate(0,54,250)"/><rect x="47" y="257" width="14" height="14" transform="rotate(0,54,264)"/><rect x="47" y="285" width="14" height="14" transform="rotate(0,54,292)"/><rect x="47" y="327" width="14" height="14" transform="rotate(0,54,334)"/><rect x="61" y="131" width="14" height="14" transform="rotate(0,68,138)"/><rect x="61" y="173" width="14" height="14" transform="rotate(0,68,180)"/><rect x="61" y="187" width="14" height="14" transform="rotate(0,68,194)"/><rect x="61" y="201" width="14" height="14" transform="rotate(0,68,208)"/><rect x="61" y="215" width="14" height="14" transform="rotate(0,68,222)"/><rect x="61" y="257" width="14" height="14" transform="rotate(0,68,264)"/><rect x="61" y="285" width="14" height="14" transform="rotate(0,68,292)"/><rect x="61" y="327" width="14" height="14" transform="rotate(0,68,334)"/><rect x="61" y="355" width="14" height="14" transform="rotate(0,68,362)"/><rect x="75" y="145" width="14" height="14" transform="rotate(0,82,152)"/><rect x="75" y="159" width="14" height="14" transform="rotate(0,82,166)"/><rect x="75" y="173" width="14" height="14" transform="rotate(0,82,180)"/><rect x="75" y="229" width="14" height="14" transform="rotate(0,82,236)"/><rect x="75" y="285" width="14" height="14" transform="rotate(0,82,292)"/><rect x="75" y="341" width="14" height="14" transform="rotate(0,82,348)"/><rect x="89" y="131" width="14" height="14" transform="rotate(0,96,138)"/><rect x="89" y="145" width="14" height="14" transform="rotate(0,96,152)"/><rect x="89" y="159" width="14" height="14" transform="rotate(0,96,166)"/><rect x="89" y="173" width="14" height="14" transform="rotate(0,96,180)"/><rect x="89" y="187" width="14" height="14" transform="rotate(0,96,194)"/><rect x="89" y="215" width="14" height="14" transform="rotate(0,96,222)"/><rect x="89" y="243" width="14" height="14" transform="rotate(0,96,250)"/><rect x="89" y="299" width="14" height="14" transform="rotate(0,96,306)"/><rect x="89" y="313" width="14" height="14" transform="rotate(0,96,320)"/><rect x="89" y="327" width="14" height="14" transform="rotate(0,96,334)"/><rect x="89" y="355" width="14" height="14" transform="rotate(0,96,362)"/><rect x="103" y="131" width="14" height="14" transform="rotate(0,110,138)"/><rect x="103" y="159" width="14" height="14" transform="rotate(0,110,166)"/><rect x="103" y="187" width="14" height="14" transform="rotate(0,110,194)"/><rect x="103" y="215" width="14" height="14" transform="rotate(0,110,222)"/><rect x="103" y="243" width="14" height="14" transform="rotate(0,110,250)"/><rect x="103" y="271" width="14" height="14" transform="rotate(0,110,278)"/><rect x="103" y="299" width="14" height="14" transform="rotate(0,110,306)"/><rect x="103" y="327" width="14" height="14" transform="rotate(0,110,334)"/><rect x="103" y="355" width="14" height="14" transform="rotate(0,110,362)"/><rect x="117" y="131" width="14" height="14" transform="rotate(0,124,138)"/><rect x="117" y="173" width="14" height="14" transform="rotate(0,124,180)"/><rect x="117" y="201" width="14" height="14" transform="rotate(0,124,208)"/><rect x="117" y="243" width="14" height="14" transform="rotate(0,124,250)"/><rect x="117" y="257" width="14" height="14" transform="rotate(0,124,264)"/><rect x="117" y="271" width="14" height="14" transform="rotate(0,124,278)"/><rect x="117" y="285" width="14" height="14" transform="rotate(0,124,292)"/><rect x="117" y="299" width="14" height="14" transform="rotate(0,124,306)"/><rect x="117" y="313" width="14" height="14" transform="rotate(0,124,320)"/><rect x="131" y="33" width="14" height="14" transform="rotate(0,138,40)"/><rect x="131" y="61" width="14" height="14" transform="rotate(0,138,68)"/><rect x="131" y="89" width="14" height="14" transform="rotate(0,138,96)"/><rect x="131" y="103" width="14" height="14" transform="rotate(0,138,110)"/><rect x="131" y="117" width="14" height="14" transform="rotate(0,138,124)"/><rect x="131" y="131" width="14" height="14" transform="rotate(0,138,138)"/><rect x="131" y="145" width="14" height="14" transform="rotate(0,138,152)"/><rect x="131" y="159" width="14" height="14" transform="rotate(0,138,166)"/><rect x="131" y="173" width="14" height="14" transform="rotate(0,138,180)"/><rect x="131" y="187" width="14" height="14" transform="rotate(0,138,194)"/><rect x="131" y="215" width="14" height="14" transform="rotate(0,138,222)"/><rect x="131" y="243" width="14" height="14" transform="rotate(0,138,250)"/><rect x="131" y="285" width="14" height="14" transform="rotate(0,138,292)"/><rect x="131" y="313" width="14" height="14" transform="rotate(0,138,320)"/><rect x="131" y="327" width="14" height="14" transform="rotate(0,138,334)"/><rect x="131" y="341" width="14" height="14" transform="rotate(0,138,348)"/><rect x="131" y="355" width="14" height="14" transform="rotate(0,138,362)"/><rect x="131" y="369" width="14" height="14" transform="rotate(0,138,376)"/><rect x="131" y="383" width="14" height="14" transform="rotate(0,138,390)"/><rect x="131" y="397" width="14" height="14" transform="rotate(0,138,404)"/><rect x="131" y="425" width="14" height="14" transform="rotate(0,138,432)"/><rect x="131" y="439" width="14" height="14" transform="rotate(0,138,446)"/><rect x="131" y="467" width="14" height="14" transform="rotate(0,138,474)"/><rect x="145" y="19" width="14" height="14" transform="rotate(0,152,26)"/><rect x="145" y="47" width="14" height="14" transform="rotate(0,152,54)"/><rect x="145" y="61" width="14" height="14" transform="rotate(0,152,68)"/><rect x="145" y="89" width="14" height="14" transform="rotate(0,152,96)"/><rect x="145" y="145" width="14" height="14" transform="rotate(0,152,152)"/><rect x="145" y="229" width="14" height="14" transform="rotate(0,152,236)"/><rect x="145" y="271" width="14" height="14" transform="rotate(0,152,278)"/><rect x="145" y="299" width="14" height="14" transform="rotate(0,152,306)"/><rect x="145" y="355" width="14" height="14" transform="rotate(0,152,362)"/><rect x="145" y="369" width="14" height="14" transform="rotate(0,152,376)"/><rect x="145" y="383" width="14" height="14" transform="rotate(0,152,390)"/><rect x="145" y="397" width="14" height="14" transform="rotate(0,152,404)"/><rect x="145" y="453" width="14" height="14" transform="rotate(0,152,460)"/><rect x="145" y="467" width="14" height="14" transform="rotate(0,152,474)"/><rect x="159" y="47" width="14" height="14" transform="rotate(0,166,54)"/><rect x="159" y="89" width="14" height="14" transform="rotate(0,166,96)"/><rect x="159" y="103" width="14" height="14" transform="rotate(0,166,110)"/><rect x="159" y="117" width="14" height="14" transform="rotate(0,166,124)"/><rect x="159" y="201" width="14" height="14" transform="rotate(0,166,208)"/><rect x="159" y="215" width="14" height="14" transform="rotate(0,166,222)"/><rect x="159" y="229" width="14" height="14" transform="rotate(0,166,236)"/><rect x="159" y="243" width="14" height="14" transform="rotate(0,166,250)"/><rect x="159" y="257" width="14" height="14" transform="rotate(0,166,264)"/><rect x="159" y="285" width="14" height="14" transform="rotate(0,166,292)"/><rect x="159" y="299" width="14" height="14" transform="rotate(0,166,306)"/><rect x="159" y="369" width="14" height="14" transform="rotate(0,166,376)"/><rect x="159" y="383" width="14" height="14" transform="rotate(0,166,390)"/><rect x="159" y="397" width="14" height="14" transform="rotate(0,166,404)"/><rect x="159" y="411" width="14" height="14" transform="rotate(0,166,418)"/><rect x="159" y="439" width="14" height="14" transform="rotate(0,166,446)"/><rect x="159" y="453" width="14" height="14" transform="rotate(0,166,460)"/><rect x="159" y="467" width="14" height="14" transform="rotate(0,166,474)"/><rect x="173" y="47" width="14" height="14" transform="rotate(0,180,54)"/><rect x="173" y="75" width="14" height="14" transform="rotate(0,180,82)"/><rect x="173" y="89" width="14" height="14" transform="rotate(0,180,96)"/><rect x="173" y="131" width="14" height="14" transform="rotate(0,180,138)"/><rect x="173" y="159" width="14" height="14" transform="rotate(0,180,166)"/><rect x="173" y="187" width="14" height="14" transform="rotate(0,180,194)"/><rect x="173" y="201" width="14" height="14" transform="rotate(0,180,208)"/><rect x="173" y="215" width="14" height="14" transform="rotate(0,180,222)"/><rect x="173" y="257" width="14" height="14" transform="rotate(0,180,264)"/><rect x="173" y="313" width="14" height="14" transform="rotate(0,180,320)"/><rect x="173" y="327" width="14" height="14" transform="rotate(0,180,334)"/><rect x="173" y="341" width="14" height="14" transform="rotate(0,180,348)"/><rect x="173" y="355" width="14" height="14" transform="rotate(0,180,362)"/><rect x="173" y="369" width="14" height="14" transform="rotate(0,180,376)"/><rect x="173" y="411" width="14" height="14" transform="rotate(0,180,418)"/><rect x="173" y="425" width="14" height="14" transform="rotate(0,180,432)"/><rect x="187" y="19" width="14" height="14" transform="rotate(0,194,26)"/><rect x="187" y="33" width="14" height="14" transform="rotate(0,194,40)"/><rect x="187" y="61" width="14" height="14" transform="rotate(0,194,68)"/><rect x="187" y="103" width="14" height="14" transform="rotate(0,194,110)"/><rect x="187" y="117" width="14" height="14" transform="rotate(0,194,124)"/><rect x="187" y="145" width="14" height="14" transform="rotate(0,194,152)"/><rect x="187" y="187" width="14" height="14" transform="rotate(0,194,194)"/><rect x="187" y="215" width="14" height="14" transform="rotate(0,194,222)"/><rect x="187" y="243" width="14" height="14" transform="rotate(0,194,250)"/><rect x="187" y="299" width="14" height="14" transform="rotate(0,194,306)"/><rect x="187" y="313" width="14" height="14" transform="rotate(0,194,320)"/><rect x="187" y="341" width="14" height="14" transform="rotate(0,194,348)"/><rect x="187" y="369" width="14" height="14" transform="rotate(0,194,376)"/><rect x="187" y="383" width="14" height="14" transform="rotate(0,194,390)"/><rect x="187" y="425" width="14" height="14" transform="rotate(0,194,432)"/><rect x="187" y="467" width="14" height="14" transform="rotate(0,194,474)"/><rect x="201" y="19" width="14" height="14" transform="rotate(0,208,26)"/><rect x="201" y="33" width="14" height="14" transform="rotate(0,208,40)"/><rect x="201" y="89" width="14" height="14" transform="rotate(0,208,96)"/><rect x="201" y="131" width="14" height="14" transform="rotate(0,208,138)"/><rect x="201" y="187" width="14" height="14" transform="rotate(0,208,194)"/><rect x="201" y="201" width="14" height="14" transform="rotate(0,208,208)"/><rect x="201" y="215" width="14" height="14" transform="rotate(0,208,222)"/><rect x="201" y="243" width="14" height="14" transform="rotate(0,208,250)"/><rect x="201" y="257" width="14" height="14" transform="rotate(0,208,264)"/><rect x="201" y="327" width="14" height="14" transform="rotate(0,208,334)"/><rect x="201" y="355" width="14" height="14" transform="rotate(0,208,362)"/><rect x="201" y="369" width="14" height="14" transform="rotate(0,208,376)"/><rect x="201" y="383" width="14" height="14" transform="rotate(0,208,390)"/><rect x="201" y="411" width="14" height="14" transform="rotate(0,208,418)"/><rect x="201" y="439" width="14" height="14" transform="rotate(0,208,446)"/><rect x="201" y="453" width="14" height="14" transform="rotate(0,208,460)"/><rect x="201" y="467" width="14" height="14" transform="rotate(0,208,474)"/><rect x="215" y="47" width="14" height="14" transform="rotate(0,222,54)"/><rect x="215" y="61" width="14" height="14" transform="rotate(0,222,68)"/><rect x="215" y="75" width="14" height="14" transform="rotate(0,222,82)"/><rect x="215" y="89" width="14" height="14" transform="rotate(0,222,96)"/><rect x="215" y="103" width="14" height="14" transform="rotate(0,222,110)"/><rect x="215" y="117" width="14" height="14" transform="rotate(0,222,124)"/><rect x="215" y="159" width="14" height="14" transform="rotate(0,222,166)"/><rect x="215" y="187" width="14" height="14" transform="rotate(0,222,194)"/><rect x="215" y="229" width="14" height="14" transform="rotate(0,222,236)"/><rect x="215" y="271" width="14" height="14" transform="rotate(0,222,278)"/><rect x="215" y="313" width="14" height="14" transform="rotate(0,222,320)"/><rect x="215" y="341" width="14" height="14" transform="rotate(0,222,348)"/><rect x="215" y="369" width="14" height="14" transform="rotate(0,222,376)"/><rect x="215" y="383" width="14" height="14" transform="rotate(0,222,390)"/><rect x="215" y="411" width="14" height="14" transform="rotate(0,222,418)"/><rect x="215" y="453" width="14" height="14" transform="rotate(0,222,460)"/><rect x="229" y="75" width="14" height="14" transform="rotate(0,236,82)"/><rect x="229" y="89" width="14" height="14" transform="rotate(0,236,96)"/><rect x="229" y="145" width="14" height="14" transform="rotate(0,236,152)"/><rect x="229" y="159" width="14" height="14" transform="rotate(0,236,166)"/><rect x="229" y="173" width="14" height="14" transform="rotate(0,236,180)"/><rect x="229" y="201" width="14" height="14" transform="rotate(0,236,208)"/><rect x="229" y="257" width="14" height="14" transform="rotate(0,236,264)"/><rect x="229" y="299" width="14" height="14" transform="rotate(0,236,306)"/><rect x="229" y="313" width="14" height="14" transform="rotate(0,236,320)"/><rect x="229" y="341" width="14" height="14" transform="rotate(0,236,348)"/><rect x="229" y="355" width="14" height="14" transform="rotate(0,236,362)"/><rect x="229" y="383" width="14" height="14" transform="rotate(0,236,390)"/><rect x="229" y="453" width="14" height="14" transform="rotate(0,236,460)"/><rect x="243" y="75" width="14" height="14" transform="rotate(0,250,82)"/><rect x="243" y="103" width="14" height="14" transform="rotate(0,250,110)"/><rect x="243" y="117" width="14" height="14" transform="rotate(0,250,124)"/><rect x="243" y="131" width="14" height="14" transform="rotate(0,250,138)"/><rect x="243" y="173" width="14" height="14" transform="rotate(0,250,180)"/><rect x="243" y="271" width="14" height="14" transform="rotate(0,250,278)"/><rect x="243" y="285" width="14" height="14" transform="rotate(0,250,292)"/><rect x="243" y="313" width="14" height="14" transform="rotate(0,250,320)"/><rect x="243" y="327" width="14" height="14" transform="rotate(0,250,334)"/><rect x="243" y="355" width="14" height="14" transform="rotate(0,250,362)"/><rect x="243" y="383" width="14" height="14" transform="rotate(0,250,390)"/><rect x="243" y="411" width="14" height="14" transform="rotate(0,250,418)"/><rect x="243" y="425" width="14" height="14" transform="rotate(0,250,432)"/><rect x="243" y="453" width="14" height="14" transform="rotate(0,250,460)"/><rect x="257" y="19" width="14" height="14" transform="rotate(0,264,26)"/><rect x="257" y="47" width="14" height="14" transform="rotate(0,264,54)"/><rect x="257" y="61" width="14" height="14" transform="rotate(0,264,68)"/><rect x="257" y="131" width="14" height="14" transform="rotate(0,264,138)"/><rect x="257" y="159" width="14" height="14" transform="rotate(0,264,166)"/><rect x="257" y="173" width="14" height="14" transform="rotate(0,264,180)"/><rect x="257" y="187" width="14" height="14" transform="rotate(0,264,194)"/><rect x="257" y="341" width="14" height="14" transform="rotate(0,264,348)"/><rect x="257" y="355" width="14" height="14" transform="rotate(0,264,362)"/><rect x="257" y="397" width="14" height="14" transform="rotate(0,264,404)"/><rect x="257" y="425" width="14" height="14" transform="rotate(0,264,432)"/><rect x="271" y="33" width="14" height="14" transform="rotate(0,278,40)"/><rect x="271" y="61" width="14" height="14" transform="rotate(0,278,68)"/><rect x="271" y="75" width="14" height="14" transform="rotate(0,278,82)"/><rect x="271" y="103" width="14" height="14" transform="rotate(0,278,110)"/><rect x="271" y="117" width="14" height="14" transform="rotate(0,278,124)"/><rect x="271" y="131" width="14" height="14" transform="rotate(0,278,138)"/><rect x="271" y="173" width="14" height="14" transform="rotate(0,278,180)"/><rect x="271" y="229" width="14" height="14" transform="rotate(0,278,236)"/><rect x="271" y="243" width="14" height="14" transform="rotate(0,278,250)"/><rect x="271" y="271" width="14" height="14" transform="rotate(0,278,278)"/><rect x="271" y="313" width="14" height="14" transform="rotate(0,278,320)"/><rect x="271" y="439" width="14" height="14" transform="rotate(0,278,446)"/><rect x="271" y="453" width="14" height="14" transform="rotate(0,278,460)"/><rect x="271" y="467" width="14" height="14" transform="rotate(0,278,474)"/><rect x="285" y="47" width="14" height="14" transform="rotate(0,292,54)"/><rect x="285" y="61" width="14" height="14" transform="rotate(0,292,68)"/><rect x="285" y="131" width="14" height="14" transform="rotate(0,292,138)"/><rect x="285" y="145" width="14" height="14" transform="rotate(0,292,152)"/><rect x="285" y="173" width="14" height="14" transform="rotate(0,292,180)"/><rect x="285" y="201" width="14" height="14" transform="rotate(0,292,208)"/><rect x="285" y="257" width="14" height="14" transform="rotate(0,292,264)"/><rect x="285" y="285" width="14" height="14" transform="rotate(0,292,292)"/><rect x="285" y="299" width="14" height="14" transform="rotate(0,292,306)"/><rect x="285" y="313" width="14" height="14" transform="rotate(0,292,320)"/><rect x="285" y="327" width="14" height="14" transform="rotate(0,292,334)"/><rect x="285" y="369" width="14" height="14" transform="rotate(0,292,376)"/><rect x="285" y="397" width="14" height="14" transform="rotate(0,292,404)"/><rect x="299" y="33" width="14" height="14" transform="rotate(0,306,40)"/><rect x="299" y="47" width="14" height="14" transform="rotate(0,306,54)"/><rect x="299" y="75" width="14" height="14" transform="rotate(0,306,82)"/><rect x="299" y="89" width="14" height="14" transform="rotate(0,306,96)"/><rect x="299" y="103" width="14" height="14" transform="rotate(0,306,110)"/><rect x="299" y="117" width="14" height="14" transform="rotate(0,306,124)"/><rect x="299" y="131" width="14" height="14" transform="rotate(0,306,138)"/><rect x="299" y="145" width="14" height="14" transform="rotate(0,306,152)"/><rect x="299" y="173" width="14" height="14" transform="rotate(0,306,180)"/><rect x="299" y="201" width="14" height="14" transform="rotate(0,306,208)"/><rect x="299" y="285" width="14" height="14" transform="rotate(0,306,292)"/><rect x="299" y="313" width="14" height="14" transform="rotate(0,306,320)"/><rect x="299" y="327" width="14" height="14" transform="rotate(0,306,334)"/><rect x="299" y="369" width="14" height="14" transform="rotate(0,306,376)"/><rect x="299" y="397" width="14" height="14" transform="rotate(0,306,404)"/><rect x="299" y="453" width="14" height="14" transform="rotate(0,306,460)"/><rect x="313" y="33" width="14" height="14" transform="rotate(0,320,40)"/><rect x="313" y="47" width="14" height="14" transform="rotate(0,320,54)"/><rect x="313" y="61" width="14" height="14" transform="rotate(0,320,68)"/><rect x="313" y="131" width="14" height="14" transform="rotate(0,320,138)"/><rect x="313" y="145" width="14" height="14" transform="rotate(0,320,152)"/><rect x="313" y="159" width="14" height="14" transform="rotate(0,320,166)"/><rect x="313" y="173" width="14" height="14" transform="rotate(0,320,180)"/><rect x="313" y="187" width="14" height="14" transform="rotate(0,320,194)"/><rect x="313" y="215" width="14" height="14" transform="rotate(0,320,222)"/><rect x="313" y="229" width="14" height="14" transform="rotate(0,320,236)"/><rect x="313" y="257" width="14" height="14" transform="rotate(0,320,264)"/><rect x="313" y="271" width="14" height="14" transform="rotate(0,320,278)"/><rect x="313" y="299" width="14" height="14" transform="rotate(0,320,306)"/><rect x="313" y="313" width="14" height="14" transform="rotate(0,320,320)"/><rect x="313" y="355" width="14" height="14" transform="rotate(0,320,362)"/><rect x="313" y="397" width="14" height="14" transform="rotate(0,320,404)"/><rect x="313" y="425" width="14" height="14" transform="rotate(0,320,432)"/><rect x="313" y="439" width="14" height="14" transform="rotate(0,320,446)"/><rect x="313" y="453" width="14" height="14" transform="rotate(0,320,460)"/><rect x="313" y="467" width="14" height="14" transform="rotate(0,320,474)"/><rect x="327" y="19" width="14" height="14" transform="rotate(0,334,26)"/><rect x="327" y="33" width="14" height="14" transform="rotate(0,334,40)"/><rect x="327" y="75" width="14" height="14" transform="rotate(0,334,82)"/><rect x="327" y="89" width="14" height="14" transform="rotate(0,334,96)"/><rect x="327" y="103" width="14" height="14" transform="rotate(0,334,110)"/><rect x="327" y="117" width="14" height="14" transform="rotate(0,334,124)"/><rect x="327" y="145" width="14" height="14" transform="rotate(0,334,152)"/><rect x="327" y="159" width="14" height="14" transform="rotate(0,334,166)"/><rect x="327" y="187" width="14" height="14" transform="rotate(0,334,194)"/><rect x="327" y="201" width="14" height="14" transform="rotate(0,334,208)"/><rect x="327" y="229" width="14" height="14" transform="rotate(0,334,236)"/><rect x="327" y="243" width="14" height="14" transform="rotate(0,334,250)"/><rect x="327" y="257" width="14" height="14" transform="rotate(0,334,264)"/><rect x="327" y="285" width="14" height="14" transform="rotate(0,334,292)"/><rect x="327" y="313" width="14" height="14" transform="rotate(0,334,320)"/><rect x="327" y="355" width="14" height="14" transform="rotate(0,334,362)"/><rect x="327" y="369" width="14" height="14" transform="rotate(0,334,376)"/><rect x="327" y="383" width="14" height="14" transform="rotate(0,334,390)"/><rect x="327" y="411" width="14" height="14" transform="rotate(0,334,418)"/><rect x="327" y="439" width="14" height="14" transform="rotate(0,334,446)"/><rect x="327" y="467" width="14" height="14" transform="rotate(0,334,474)"/><rect x="341" y="33" width="14" height="14" transform="rotate(0,348,40)"/><rect x="341" y="75" width="14" height="14" transform="rotate(0,348,82)"/><rect x="341" y="131" width="14" height="14" transform="rotate(0,348,138)"/><rect x="341" y="215" width="14" height="14" transform="rotate(0,348,222)"/><rect x="341" y="271" width="14" height="14" transform="rotate(0,348,278)"/><rect x="341" y="299" width="14" height="14" transform="rotate(0,348,306)"/><rect x="341" y="313" width="14" height="14" transform="rotate(0,348,320)"/><rect x="341" y="327" width="14" height="14" transform="rotate(0,348,334)"/><rect x="341" y="355" width="14" height="14" transform="rotate(0,348,362)"/><rect x="355" y="19" width="14" height="14" transform="rotate(0,362,26)"/><rect x="355" y="61" width="14" height="14" transform="rotate(0,362,68)"/><rect x="355" y="75" width="14" height="14" transform="rotate(0,362,82)"/><rect x="355" y="103" width="14" height="14" transform="rotate(0,362,110)"/><rect x="355" y="131" width="14" height="14" transform="rotate(0,362,138)"/><rect x="355" y="145" width="14" height="14" transform="rotate(0,362,152)"/><rect x="355" y="173" width="14" height="14" transform="rotate(0,362,180)"/><rect x="355" y="187" width="14" height="14" transform="rotate(0,362,194)"/><rect x="355" y="201" width="14" height="14" transform="rotate(0,362,208)"/><rect x="355" y="229" width="14" height="14" transform="rotate(0,362,236)"/><rect x="355" y="299" width="14" height="14" transform="rotate(0,362,306)"/><rect x="355" y="313" width="14" height="14" transform="rotate(0,362,320)"/><rect x="355" y="355" width="14" height="14" transform="rotate(0,362,362)"/><rect x="355" y="369" width="14" height="14" transform="rotate(0,362,376)"/><rect x="355" y="383" width="14" height="14" transform="rotate(0,362,390)"/><rect x="355" y="397" width="14" height="14" transform="rotate(0,362,404)"/><rect x="355" y="411" width="14" height="14" transform="rotate(0,362,418)"/><rect x="355" y="425" width="14" height="14" transform="rotate(0,362,432)"/><rect x="369" y="131" width="14" height="14" transform="rotate(0,376,138)"/><rect x="369" y="145" width="14" height="14" transform="rotate(0,376,152)"/><rect x="369" y="159" width="14" height="14" transform="rotate(0,376,166)"/><rect x="369" y="173" width="14" height="14" transform="rotate(0,376,180)"/><rect x="369" y="229" width="14" height="14" transform="rotate(0,376,236)"/><rect x="369" y="243" width="14" height="14" transform="rotate(0,376,250)"/><rect x="369" y="257" width="14" height="14" transform="rotate(0,376,264)"/><rect x="369" y="285" width="14" height="14" transform="rotate(0,376,292)"/><rect x="369" y="327" width="14" height="14" transform="rotate(0,376,334)"/><rect x="369" y="341" width="14" height="14" transform="rotate(0,376,348)"/><rect x="369" y="355" width="14" height="14" transform="rotate(0,376,362)"/><rect x="369" y="411" width="14" height="14" transform="rotate(0,376,418)"/><rect x="369" y="425" width="14" height="14" transform="rotate(0,376,432)"/><rect x="369" y="467" width="14" height="14" transform="rotate(0,376,474)"/><rect x="383" y="131" width="14" height="14" transform="rotate(0,390,138)"/><rect x="383" y="145" width="14" height="14" transform="rotate(0,390,152)"/><rect x="383" y="159" width="14" height="14" transform="rotate(0,390,166)"/><rect x="383" y="201" width="14" height="14" transform="rotate(0,390,208)"/><rect x="383" y="215" width="14" height="14" transform="rotate(0,390,222)"/><rect x="383" y="229" width="14" height="14" transform="rotate(0,390,236)"/><rect x="383" y="271" width="14" height="14" transform="rotate(0,390,278)"/><rect x="383" y="299" width="14" height="14" transform="rotate(0,390,306)"/><rect x="383" y="313" width="14" height="14" transform="rotate(0,390,320)"/><rect x="383" y="355" width="14" height="14" transform="rotate(0,390,362)"/><rect x="383" y="383" width="14" height="14" transform="rotate(0,390,390)"/><rect x="383" y="411" width="14" height="14" transform="rotate(0,390,418)"/><rect x="383" y="425" width="14" height="14" transform="rotate(0,390,432)"/><rect x="383" y="439" width="14" height="14" transform="rotate(0,390,446)"/><rect x="383" y="453" width="14" height="14" transform="rotate(0,390,460)"/><rect x="397" y="131" width="14" height="14" transform="rotate(0,404,138)"/><rect x="397" y="145" width="14" height="14" transform="rotate(0,404,152)"/><rect x="397" y="173" width="14" height="14" transform="rotate(0,404,180)"/><rect x="397" y="187" width="14" height="14" transform="rotate(0,404,194)"/><rect x="397" y="243" width="14" height="14" transform="rotate(0,404,250)"/><rect x="397" y="257" width="14" height="14" transform="rotate(0,404,264)"/><rect x="397" y="271" width="14" height="14" transform="rotate(0,404,278)"/><rect x="397" y="285" width="14" height="14" transform="rotate(0,404,292)"/><rect x="397" y="299" width="14" height="14" transform="rotate(0,404,306)"/><rect x="397" y="313" width="14" height="14" transform="rotate(0,404,320)"/><rect x="397" y="355" width="14" height="14" transform="rotate(0,404,362)"/><rect x="397" y="411" width="14" height="14" transform="rotate(0,404,418)"/><rect x="397" y="453" width="14" height="14" transform="rotate(0,404,460)"/><rect x="397" y="467" width="14" height="14" transform="rotate(0,404,474)"/><rect x="411" y="145" width="14" height="14" transform="rotate(0,418,152)"/><rect x="411" y="159" width="14" height="14" transform="rotate(0,418,166)"/><rect x="411" y="187" width="14" height="14" transform="rotate(0,418,194)"/><rect x="411" y="215" width="14" height="14" transform="rotate(0,418,222)"/><rect x="411" y="243" width="14" height="14" transform="rotate(0,418,250)"/><rect x="411" y="299" width="14" height="14" transform="rotate(0,418,306)"/><rect x="411" y="313" width="14" height="14" transform="rotate(0,418,320)"/><rect x="411" y="327" width="14" height="14" transform="rotate(0,418,334)"/><rect x="411" y="355" width="14" height="14" transform="rotate(0,418,362)"/><rect x="411" y="369" width="14" height="14" transform="rotate(0,418,376)"/><rect x="411" y="383" width="14" height="14" transform="rotate(0,418,390)"/><rect x="411" y="397" width="14" height="14" transform="rotate(0,418,404)"/><rect x="411" y="411" width="14" height="14" transform="rotate(0,418,418)"/><rect x="411" y="425" width="14" height="14" transform="rotate(0,418,432)"/><rect x="411" y="453" width="14" height="14" transform="rotate(0,418,460)"/><rect x="411" y="467" width="14" height="14" transform="rotate(0,418,474)"/><rect x="425" y="131" width="14" height="14" transform="rotate(0,432,138)"/><rect x="425" y="187" width="14" height="14" transform="rotate(0,432,194)"/><rect x="425" y="229" width="14" height="14" transform="rotate(0,432,236)"/><rect x="425" y="243" width="14" height="14" transform="rotate(0,432,250)"/><rect x="425" y="257" width="14" height="14" transform="rotate(0,432,264)"/><rect x="425" y="271" width="14" height="14" transform="rotate(0,432,278)"/><rect x="425" y="327" width="14" height="14" transform="rotate(0,432,334)"/><rect x="425" y="383" width="14" height="14" transform="rotate(0,432,390)"/><rect x="425" y="411" width="14" height="14" transform="rotate(0,432,418)"/><rect x="425" y="439" width="14" height="14" transform="rotate(0,432,446)"/><rect x="425" y="453" width="14" height="14" transform="rotate(0,432,460)"/><rect x="439" y="145" width="14" height="14" transform="rotate(0,446,152)"/><rect x="439" y="159" width="14" height="14" transform="rotate(0,446,166)"/><rect x="439" y="173" width="14" height="14" transform="rotate(0,446,180)"/><rect x="439" y="215" width="14" height="14" transform="rotate(0,446,222)"/><rect x="439" y="229" width="14" height="14" transform="rotate(0,446,236)"/><rect x="439" y="243" width="14" height="14" transform="rotate(0,446,250)"/><rect x="439" y="257" width="14" height="14" transform="rotate(0,446,264)"/><rect x="439" y="271" width="14" height="14" transform="rotate(0,446,278)"/><rect x="439" y="299" width="14" height="14" transform="rotate(0,446,306)"/><rect x="439" y="313" width="14" height="14" transform="rotate(0,446,320)"/><rect x="439" y="341" width="14" height="14" transform="rotate(0,446,348)"/><rect x="439" y="411" width="14" height="14" transform="rotate(0,446,418)"/><rect x="439" y="425" width="14" height="14" transform="rotate(0,446,432)"/><rect x="439" y="439" width="14" height="14" transform="rotate(0,446,446)"/><rect x="439" y="467" width="14" height="14" transform="rotate(0,446,474)"/><rect x="453" y="131" width="14" height="14" transform="rotate(0,460,138)"/><rect x="453" y="187" width="14" height="14" transform="rotate(0,460,194)"/><rect x="453" y="243" width="14" height="14" transform="rotate(0,460,250)"/><rect x="453" y="257" width="14" height="14" transform="rotate(0,460,264)"/><rect x="453" y="271" width="14" height="14" transform="rotate(0,460,278)"/><rect x="453" y="285" width="14" height="14" transform="rotate(0,460,292)"/><rect x="453" y="299" width="14" height="14" transform="rotate(0,460,306)"/><rect x="453" y="313" width="14" height="14" transform="rotate(0,460,320)"/><rect x="453" y="341" width="14" height="14" transform="rotate(0,460,348)"/><rect x="453" y="355" width="14" height="14" transform="rotate(0,460,362)"/><rect x="453" y="369" width="14" height="14" transform="rotate(0,460,376)"/><rect x="453" y="383" width="14" height="14" transform="rotate(0,460,390)"/><rect x="467" y="145" width="14" height="14" transform="rotate(0,474,152)"/><rect x="467" y="173" width="14" height="14" transform="rotate(0,474,180)"/><rect x="467" y="187" width="14" height="14" transform="rotate(0,474,194)"/><rect x="467" y="201" width="14" height="14" transform="rotate(0,474,208)"/><rect x="467" y="229" width="14" height="14" transform="rotate(0,474,236)"/><rect x="467" y="243" width="14" height="14" transform="rotate(0,474,250)"/><rect x="467" y="271" width="14" height="14" transform="rotate(0,474,278)"/><rect x="467" y="313" width="14" height="14" transform="rotate(0,474,320)"/><rect x="467" y="355" width="14" height="14" transform="rotate(0,474,362)"/><rect x="467" y="369" width="14" height="14" transform="rotate(0,474,376)"/><rect x="467" y="383" width="14" height="14" transform="rotate(0,474,390)"/><rect x="467" y="411" width="14" height="14" transform="rotate(0,474,418)"/><rect x="467" y="453" width="14" height="14" transform="rotate(0,474,460)"/><path clip-rule="evenodd" d="M 19 19v 98h 98v -98zM 33 33h 70v 70h -70z" transform="rotate(0,68,68)"/><rect x="47" y="47" width="42" height="42" transform="rotate(0,68,68)"/><path clip-rule="evenodd" d="M 383 19v 98h 98v -98zM 397 33h 70v 70h -70z" transform="rotate(90,432,68)"/><rect x="411" y="47" width="42" height="42" transform="rotate(90,432,68)"/><path clip-rule="evenodd" d="M 19 383v 98h 98v -98zM 33 397h 70v 70h -70z" transform="rotate(-90,68,432)"/><rect x="47" y="411" width="42" height="42" transform="rotate(-90,68,432)"/></clipPath></defs><rect x="0" y="0" height="500" width="500" clip-path="url('#clip-path-background-color')" fill="#fff"/><rect x="0" y="0" height="500" width="500" clip-path="url('#clip-path-dot-color')" fill="#000000"/></svg>