<svg height="225" viewBox="0 0 225 225" width="225" xmlns="http://www.w3.org/2000/svg"><g fill="#e0be41" fill-rule="nonzero"><path d="m201.471111 35.3177778v33.8755555s-1.828889 1.5511111-5.068889 1.5511111c-3.242222 0-5.073333-1.5511111-5.073333-1.5511111v-28.6955555l8.338042-4.2585398.180753-.0923175zm-21.482222 12.02v53.5600002s-2.435556 2.046666-6.744445 2.046666c-4.313333 0-6.748888-2.046666-6.748888-2.046666v-44.0200002zm-27.144445 20.7844444v74.7022218s-3.071111 2.591112-8.5 2.591112c-5.442222 0-8.513333-2.591112-8.513333-2.591112v-57.9822218zm-31.022222 33.3177778v81.882222s-3.366666 2.837778-9.32 2.837778c-5.957778 0-9.322222-2.837778-9.322222-2.837778v-53.093333z"/><path d="m199.666931 36.239238.180753-.0923175c-.10526.0136971-.210528.0274535-.315802.041269zm-177.5220175 87.291798c6.1266898 13.847588 14.7077562 26.506936 25.1492119 37.950392 7.8398612 8.592203 16.2524564 15.987399 24.653047 22.15731.659191.484151 1.3072397.952478 1.9433022 1.404954 5.9693817-22.878762 12.6070456-40.674698 22.242893-58.602279 9.6358474-17.92758 12.3666324-19.941413 27.8666324-37.941413s19.414041-22 35.5-33.5c10.723973-7.6666667 25.890639-16 45.5-25-10.654948 1.9401042-20.121745 3.9122721-28.400391 5.9165039-88.1790778 21.3478525-125.5536447 50.2620455-154.4546955 87.6145321zm190.8550865-90.8043693s-8.006667.9622222-11.528889 2.5911111l-10.142222 5.18c-3.737778 2.0622222-7.522222 4.3444444-11.34 6.84l-13.493333 9.54c-4.577778 3.4733333-9.151112 7.2422222-13.651112 11.2444444l-15.844444 15.8777778c-4.871111 5.2577778-10.046667 12.1977778-14.5 18-2.968889 3.868148-9.408889 13.277778-19.32 28.228889-11.7888889 21.933333-18.4466667 43.213333-24.2288889 67.631111 0 0-45.9044444-25.417778-65.9511111-75.431111 33.6022222-47.1977779 114.397778-85.3377779 187.495556-94.428889z"/></g></svg>