<?xml version="1.0" encoding="UTF-8"?>
<svg width="225px" height="225px" viewBox="0 0 225 225" version="1.1" xmlns="http://www.w3.org/2000/svg" xmlns:xlink="http://www.w3.org/1999/xlink">
    <!-- Generator: Sketch 50.2 (55047) - http://www.bohemiancoding.com/sketch -->
    <title>Artboard</title>
    <desc>Created with Sketch.</desc>
    <defs></defs>
    <g id="Artboard" stroke="none" stroke-width="1" fill="none" fill-rule="evenodd">
        <path d="M201.471111,35.3177778 L201.471111,69.1933333 C201.471111,69.1933333 199.642222,70.7444444 196.402222,70.7444444 C193.16,70.7444444 191.328889,69.1933333 191.328889,69.1933333 L191.328889,40.4977778 L199.666931,36.239238 L199.847684,36.1469205 L201.471111,35.3177778 Z M179.988889,47.3377778 L179.988889,100.897778 C179.988889,100.897778 177.553333,102.944444 173.244444,102.944444 C168.931111,102.944444 166.495556,100.897778 166.495556,100.897778 L166.495556,56.8777778 L179.988889,47.3377778 Z M152.844444,68.1222222 L152.844444,142.824444 C152.844444,142.824444 149.773333,145.415556 144.344444,145.415556 C138.902222,145.415556 135.831111,142.824444 135.831111,142.824444 L135.831111,84.8422222 L152.844444,68.1222222 Z M121.822222,101.44 L121.822222,183.322222 C121.822222,183.322222 118.455556,186.16 112.502222,186.16 C106.544444,186.16 103.18,183.322222 103.18,183.322222 L103.18,130.228889 L121.822222,101.44 Z" id="Combined-Shape" fill="#E0BE41" fill-rule="nonzero"></path>
        <path d="M199.666931,36.239238 L199.847684,36.1469205 C199.742424,36.1606176 199.637156,36.174374 199.531882,36.1881895 L199.666931,36.239238 Z M22.1449135,123.531036 C28.2716033,137.378624 36.8526697,150.037972 47.2941254,161.481428 C55.1339866,170.073631 63.5465818,177.468827 71.9471724,183.638738 C72.6063634,184.122889 73.2544121,184.591216 73.8904746,185.043692 C79.8598563,162.16493 86.4975202,144.368994 96.1333676,126.441413 C105.769215,108.513833 108.5,106.5 124,88.5 C139.5,70.5 143.414041,66.5 159.5,55 C170.223973,47.3333333 185.390639,39 205,30 C194.345052,31.9401042 184.878255,33.9122721 176.599609,35.9165039 C88.4205312,57.2643564 51.0459643,86.1785494 22.1449135,123.531036 Z M213,32.7266667 C213,32.7266667 204.993333,33.6888889 201.471111,35.3177778 L191.328889,40.4977778 C187.591111,42.56 183.806667,44.8422222 179.988889,47.3377778 L166.495556,56.8777778 C161.917778,60.3511111 157.344444,64.12 152.844444,68.1222222 L137,84 C132.128889,89.2577778 126.953333,96.1977778 122.5,102 C119.531111,105.868148 113.091111,115.277778 103.18,130.228889 C91.3911111,152.162222 84.7333333,173.442222 78.9511111,197.86 C78.9511111,197.86 33.0466667,172.442222 13,122.428889 C46.6022222,75.2311111 127.397778,37.0911111 200.495556,28 L213,32.7266667 Z" id="Shape-Copy-2" fill="#E0BE41" fill-rule="nonzero"></path>
    </g>
</svg>