<svg height="64" viewBox="0 0 57 64" width="57" xmlns="http://www.w3.org/2000/svg"><path d="m1.58942789 16.5331311c3.86782273-11.26720947 15.35820111-16.53369561 25.66950981-16.5331311 1.4402488 0 2.85867.10274051 4.2289199.30633984 8.3050461 1.27767046 14.5020301 5.36621594 17.8239733 11.69096696.7666023 1.469227 1.3416481 2.9388303 1.7249492 4.5358243l.2555341.9583469v.127767l.1915565 1.1499034c.2557223 1.9165057.3195117 3.896989.0639776 6.0052394v.127767.5748577c0 .7667904.1917447 1.5333927.5110682 2.2362055l4.6635913 9.8382508c.3833011.8303917.3195117 1.852528-.1917447 2.6193185-.51088.7666023-1.3414599 1.2776704-2.2998068 1.2776704h-2.5553409v12.8408704c0 1.9166939-1.4694151 3.386109-3.3859208 3.386109l-7.4106769.1275789c-.8305799 0-1.4694151.6390234-1.4694151 1.4694151v3.513876c0 .7026247-.5750458 1.2136929-1.213881 1.2136929h-26.7678548c-.3834893 0-.7666023-.1917447-1.0221364-.5110682-.1917446-.3195117-.2557222-.7666023-.1279552-1.1499034l.1917447-.4472787c2.1082503-5.2386371 2.4275738-9.7744613.8305798-13.4797057-.8943693-2.1722279-2.17203974-3.3859208-3.06659724-4.2165007l-.25553409-.2555341c-7.09135332-7.3468874-9.51873903-15.7159112-7.02737571-25.1070713 0 0 .19155648-.7666023.25553409-1.0859258.06397761-.3195117.3195117-1.1499034.38330114-1.213881zm23.82940091-7.73000043-6.8358193 2.29980683c-.5750457-.8305799-1.5333927-1.34164807-2.6193185-1.34164807-1.7889268 0-3.1941761 1.40543747-3.1941761 3.19417617 0 .7666023.2555341 1.4694151.7026246 1.9806715l-3.64145487 5.2384489c-.3195117-.1275789-.63883523-.1917447-.95834693-.1917447-1.78873865 0-3.19436433 1.4056257-3.19436433 3.1943643-.12757888 1.7889268 1.34183624 3.1943644 3.06659728 3.1943644.19155648 0 .38330114 0 .57504579-.0637895l2.74708556 5.3024265c-.5750458.5748576-.9583469 1.4054375-.9583469 2.2998068 0 1.7887387 1.4054375 3.1941762 3.1943643 3.1941762 1.7887387 0 3.1941762-1.4054375 3.1941762-3.1941762 0-.5750457-.1915565-1.0861139-.4472788-1.5971821l7.4748427-7.793978c.4470905.2555341.8943693.3833011 1.4692269.3833011 1.7887386 0 3.1943643-1.4054375 3.1943643-3.1941761v-.1279552l8.6243697-2.9384539c.5750458.8303917 1.5333928 1.3412717 2.6195067 1.3412717 1.7885505 0 3.193988-1.4054375 3.193988-3.193988 0-1.7889268-1.4054375-3.1943643-3.193988-3.1943643-.7667904 0-1.4696033.2555341-1.9804833.7026247l-6.8360074-4.66359132c.1279552-.31932353.1917447-.63883523.1917447-.95834693 0-1.78855047-1.4054375-3.19417615-3.1943643-3.19417615-1.7885505 0-3.193988 1.40562568-3.193988 3.19417615zm3.2580032 3.06637143c.7666023-.127767 1.3416481-.3193235 1.7887387-.7026246l6.8358192 4.6635912c-.1277671.3193236-.1917447.6388353-.1917447.958347v.1275789l-8.6245578 2.9388302c-.3193236-.3833011-.7026247-.7028129-1.1497153-.9583469zm-5.8134947 9.1995473-11.1161093.9583469c-.1277671-.3195117-.2555341-.5750458-.5110682-.8305799l3.6414549-5.2386371c.3195117.1277671.6388352.1915565.9583469.1915565.6388352 0 1.2136929-.1915565 1.724761-.51088l5.4941712 4.7911702c-.0637894.1917446-.1915565.3834893-.1915565.6390234zm3.0025444-10.6050224c.3195117.3833011.7028129.7666023 1.1499034.9583469l-1.341648 7.0273757c-.51088.0637895-.9581588.1917447-1.4054375.4470906l-5.4941712-4.7913583c.1917447-.2555341.2555341-.7026247.2555341-1.213881v-.1275789zm-14.0547326 13.3520327 11.1798988-.958347c.0637894.1277671.1277671.2557223.1917447.3833012l-7.4746545 7.8579556c-.4472787-.2555341-.8943693-.3833012-1.4694151-.3833012-.1915565 0-.3833011 0-.5748576.0639776l-2.7470856-5.3026146c.4470906-.4470906.7666023-1.0219482.8943693-1.6609716z" fill="#e0be41" fill-rule="evenodd"/></svg>