<?xml version="1.0" encoding="UTF-8"?>
<svg width="57px" height="64px" viewBox="0 0 57 64" version="1.1" xmlns="http://www.w3.org/2000/svg" xmlns:xlink="http://www.w3.org/1999/xlink">
    <!-- Generator: Sketch 50.2 (55047) - http://www.bohemiancoding.com/sketch -->
    <title>corp-leadership</title>
    <desc>Created with Sketch.</desc>
    <defs></defs>
    <g id="Page-1" stroke="none" stroke-width="1" fill="none" fill-rule="evenodd">
        <g id="2.1.1.Corporate" transform="translate(-158.000000, -1152.000000)" fill="#E0BE41" fill-rule="nonzero">
            <g id="Group-2" transform="translate(158.000000, 1088.000000)">
                <g id="Strategy-Copy" transform="translate(0.000000, 64.000000)">
                    <path d="M0,55.8059522 C0,50.9029563 4.09702392,47.0074254 8.8656911,47.0074254 L27.5373739,47.0074254 C32.507534,47.0074254 36.3359006,50.835792 36.3359006,55.8059522 L36.3359006,64 L0,64 L0,55.8059522 Z M18.1343682,43.3805518 C12.5597291,43.3805518 8.05971918,38.8133776 7.99255485,33.2387385 C7.99255485,27.6640994 12.5597291,23.0969252 18.1343682,23.0969252 C23.7090073,23.0969252 28.2761815,27.6640994 28.2761815,33.2387385 C28.2761815,38.8133776 23.7090073,43.3805518 18.1343682,43.3805518 Z M41.9105397,44.8581669 C37.4776942,44.8581669 33.9851492,41.164129 33.9851492,36.8656121 C33.9851492,32.5670952 37.4776942,28.9402216 41.9105397,28.9402216 C46.2090566,28.9402216 49.8359303,32.6342595 49.8359303,36.9327764 C49.8359303,41.2312933 46.3433853,44.8581669 41.9105397,44.8581669 Z M49.2314513,47.746233 C53.1269823,47.746233 56.2165413,50.835792 56.2165413,54.6641586 L56.2165413,64 L39.5597883,64 L39.2239667,55.8731165 C39.2239667,52.6492288 37.8135158,49.6939985 35.5299287,47.746233 L49.2314513,47.746233 Z M50.9105595,8.85808794 C52.5896677,15.238699 48.8284654,21.6864743 42.5150187,23.3655825 L29.9552896,26.6566345 L33.0448486,21.8879673 C30.6269329,20.3431878 28.7463317,17.925272 27.9403598,14.9028773 C26.2612517,8.58943063 30.0896183,2.07449096 36.403065,0.395382799 C42.783676,-1.28372536 49.2314513,2.54464125 50.9105595,8.85808794 Z M44.5299485,10.7386891 L46.4105496,11.8804826 L46.074728,6.57450084 L40.8359105,8.38793765 L42.7165117,9.46256688 L40.3657602,11.8804826 L37.2090369,9.79838851 L32.4403697,15.238699 L34.1194779,16.7163141 L37.4776942,12.7536189 L40.5672532,14.835713 L44.5299485,10.7386891 Z" id="corp-leadership"></path>
                </g>
            </g>
        </g>
    </g>
</svg>