<svg height="64" viewBox="0 0 61 64" width="61" xmlns="http://www.w3.org/2000/svg"><path d="m28.3842509 41.1738676c-.0564314.375457-.1098531.7516664-.1098531 1.1444291 0 1.2866363.3438554 2.4777155.899893 3.5333592-5.8944497 5.2240445-11.9589462 8.9161641-17.9624966 10.9988596-1.51160962-1.2979226-2.90207977-2.7433193-4.15184757-4.3211418.03385885-4.9238293 1.41153787-9.9484828 4.11874107-15.0280628.3792192.0654604.7606956.1218918 1.1564679.1218918 1.9118964 0 3.6439648-.7990689 4.9245818-2.0796858 3.4393068 2.054856 7.1607707 3.9343984 11.1245135 5.6303507zm-23.17450237-10.9665057c0 2.3106785 1.04134777 4.3504862 2.63798069 5.711612-2.02626412 3.8523848-3.39717137 7.743143-4.03747986 11.6098238-2.41977922-4.6010417-3.81024936-9.8905466-3.81024936-15.5284215 0-3.2722698.4695094-6.4264099 1.33178147-9.3999694 1.3769266 1.5763176 2.88778377 3.103728 4.51300862 4.5822311-.40028686.9262277-.63504156 1.9450029-.63504156 3.024724zm24.13458897-23.27081198c-2.1579375 0-4.0720912 1.02554698-5.3790428 2.60788394-3.1857417-1.60867162-6.4835938-3.13307233-9.9161288-4.53181909 4.6920843-3.15790216 10.2456883-5.01261477 16.2206468-5.01261477 5.1623462 0 10.0177054 1.37391693 14.2726343 3.78391469-3.4995003 1.75765058-6.8086387 3.63493575-9.9477304 5.59724427-1.303942-1.49054186-3.1654263-2.44460904-5.2503791-2.44460904zm6.7717701 9.60763708c.2084201-.6974924.3536369-1.424329.3536369-2.1917963 0-.5838771-.0812612-1.1451816-.2031531-1.6914377 3.6710519-2.3069164 7.6144794-4.48291188 11.802443-6.50240423 2.045827 1.57857487 3.9178453 3.39641896 5.5317839 5.45729433-2.0872101 4.509999-4.3866023 8.8002916-6.8703371 12.842286-3.2459352-2.7651395-6.8011145-5.409892-10.6143736-7.9139421zm-6.7717701 5.2217872c2.0067012 0 3.8147638-.8750632 5.111934-2.2700478 3.7733809 2.4747057 7.2773957 5.0901139 10.4616325 7.8176324-1.9645657 2.9938749-4.0442516 5.8139409-6.207456 8.4775039-.9946978-.5500182-2.1112874-.8901116-3.312148-.8901116-2.4017212 0-4.5152659 1.2505202-5.8071691 3.1481207-3.7824099-1.6139385-7.2992159-3.4204963-10.5699809-5.3677565.2663563-.7772487.4379078-1.6026523.4379078-2.4739534 0-1.1617347-.2814046-2.2474752-.7403802-3.2278771 2.013473-2.2121116 4.2647104-4.3595151 6.7183485-6.4407058 1.1233614.7719818 2.4641719 1.2271952 3.9073114 1.2271952zm18.1814505 7.8703018c4.5130086 4.1834491 8.2803701 8.5933764 11.2275949 13.1101471-.3619134 1.0676824-.7734866 2.1067729-1.2362242 3.1195288-5.2255493-.8201366-10.2411738-1.9299545-15.0190339-3.2880707.0030097-.088033.0263347-.1715515.0263347-.2603369 0-1.5529926-.4642425-2.9931224-1.2520251-4.184954 2.1797576-2.6718395 4.2692249-5.5031919 6.2533536-8.4963143zm-12.127488 20.0940994c2.6898976 0 5.0088527-1.5755652 6.2209995-3.8727001 4.5438578 1.3016847 9.2871066 2.38893 14.2192126 3.2135811-5.363242 8.9605568-14.7970703 14.9287436-25.5686994 14.9287436-5.7703006 0-11.143324-1.7373353-15.732327-4.6988561 5.688287-2.3129357 11.3735643-5.9486239 16.8918046-10.8318226 1.1354001.7953068 2.5010404 1.2610541 3.9690097 1.2610541zm20.4492411-34.7888407c2.9555015 4.9418874 4.6905795 10.7799057 4.6913319 17.0588415 0 2.2339318-.2189539 4.4121845-.6320319 6.5159478-2.9201378-4.0457565-6.4632784-7.980155-10.5474082-11.7332205 2.3249744-3.7447889 4.4941981-7.7010075 6.4881082-11.8415688zm-39.4854395 9.1599478c-1.1474388-.8223939-2.532642-1.3077041-4.0261936-1.3077041-1.7004667 0-3.24217306.6485851-4.46861589 1.6876756-1.9261924-1.7757086-3.68459539-3.6183825-5.21426304-5.5370507 1.88932389-4.4603393 4.70337061-8.3857087 8.20287093-11.48416982 4.0276984 1.56804101 7.8958841 3.28882302 11.5872512 5.13826872-.1331781.5650666-.222716 1.1451816-.222716 1.7531361 0 1.2256904.3152636 2.3663574.8238987 3.3866375-2.4280558 2.054856-4.6582254 4.1804394-6.6822323 6.3632067zm-4.2383757 9.3931977c-1.9426939 0-3.51755842-1.5748646-3.51755842-3.5175584 0-1.9426939 1.57486452-3.5175584 3.51755842-3.5175584 1.9426938 0 3.5175584 1.5748645 3.5175584 3.5175584 0 1.9426938-1.5748646 3.5175584-3.5175584 3.5175584zm17.3808768-15.7263077c-1.9426939 0-3.5175584-1.5748645-3.5175584-3.5175584 0-1.9426938 1.5748645-3.5175584 3.5175584-3.5175584 1.9426938 0 3.5175584 1.5748646 3.5175584 3.5175584 0 1.9426939-1.5748646 3.5175584-3.5175584 3.5175584zm5.6905442 28.0373859c-1.9426939 0-3.5175584-1.5748646-3.5175584-3.5175584 0-1.9426939 1.5748645-3.5175584 3.5175584-3.5175584s3.5175584 1.5748645 3.5175584 3.5175584c0 1.9426938-1.5748645 3.5175584-3.5175584 3.5175584z" fill="#e0be41"/></svg>