<?xml version="1.0" encoding="UTF-8"?>
<svg width="18px" height="21px" viewBox="0 0 18 21" version="1.1" xmlns="http://www.w3.org/2000/svg" xmlns:xlink="http://www.w3.org/1999/xlink">
    <!-- Generator: Sketch 54.1 (76490) - https://sketchapp.com -->
    <title>ic-better-desc</title>
    <desc>Created with Sketch.</desc>
    <g id="Page-1" stroke="none" stroke-width="1" fill="none" fill-rule="evenodd">
        <g id="ic-better-desc" transform="translate(-3.000000, -2.000000)">
            <polygon id="Path" points="0 0 24 0 24 24 0 24"></polygon>
            <path d="M5,18 L9.83,18 L10.42,18.59 L12,20.17 L13.59,18.58 L14.17,18 L19,18 L19,4 L5,4 L5,18 Z M13,17 L11,17 L11,15 L13,15 L13,17 Z M12,5 C14.21,5 16,6.79 16,9 C16,11.5 13,11.75 13,14 L11,14 C11,10.75 14,11 14,9 C14,7.9 13.1,7 12,7 C10.9,7 10,7.9 10,9 L8,9 C8,6.79 9.79,5 12,5 Z" id="Shape" fill="#E0BE41" fill-rule="nonzero"></path>
            <path d="M21,4 C21,2.9 20.1,2 19,2 L5,2 C3.89,2 3,2.9 3,4 L3,18 C3,19.1 3.89,20 5,20 L9,20 L12,23 L15,20 L19,20 C20.1,20 21,19.1 21,18 L21,4 Z M19,18 L14.17,18 L13.58,18.59 L12,20.17 L10.41,18.58 L9.83,18 L5,18 L5,4 L19,4 L19,18 Z M11,15 L13,15 L13,17 L11,17 L11,15 Z M12,7 C13.1,7 14,7.9 14,9 C14,11 11,10.75 11,14 L13,14 C13,11.75 16,11.5 16,9 C16,6.79 14.21,5 12,5 C9.79,5 8,6.79 8,9 L10,9 C10,7.9 10.9,7 12,7 Z" id="Shape" fill="#3E4241" fill-rule="nonzero"></path>
        </g>
    </g>
</svg>