<?xml version="1.0" encoding="UTF-8"?>
<svg width="24px" height="24px" viewBox="0 0 24 24" version="1.1" xmlns="http://www.w3.org/2000/svg" xmlns:xlink="http://www.w3.org/1999/xlink">
    <!-- Generator: Sketch 50.2 (55047) - http://www.bohemiancoding.com/sketch -->
    <title>Artboard</title>
    <desc>Created with Sketch.</desc>
    <defs></defs>
    <g id="Artboard" stroke="none" stroke-width="1" fill="none" fill-rule="evenodd">
        <g id="Group-2">
            <g id="Bounding_Boxes">
                <polygon id="Shape" points="0 0 24 0 24 24 0 24"></polygon>
            </g>
            <g id="Duotone" transform="translate(2.000000, 3.000000)" fill-rule="nonzero">
                <g id="Group">
                    <path d="M10,8 L12,8 L12,10 L10,10 L10,12 L12,12 L12,14 L10,14 L10,16 L18,16 L18,6 L10,6 L10,8 Z M14,8 L16,8 L16,10 L14,10 L14,8 Z M14,12 L16,12 L16,14 L14,14 L14,12 Z" id="Shape" fill="#E0BE41"></path>
                    <path d="M10,4 L10,0 L0,0 L0,18 L20,18 L20,4 L10,4 Z M4,16 L2,16 L2,14 L4,14 L4,16 Z M4,12 L2,12 L2,10 L4,10 L4,12 Z M4,8 L2,8 L2,6 L4,6 L4,8 Z M4,4 L2,4 L2,2 L4,2 L4,4 Z M8,16 L6,16 L6,14 L8,14 L8,16 Z M8,12 L6,12 L6,10 L8,10 L8,12 Z M8,8 L6,8 L6,6 L8,6 L8,8 Z M8,4 L6,4 L6,2 L8,2 L8,4 Z M18,16 L10,16 L10,14 L12,14 L12,12 L10,12 L10,10 L12,10 L12,8 L10,8 L10,6 L18,6 L18,16 Z M14,8 L14,10 L16,10 L16,8 L14,8 Z M14,12 L14,14 L16,14 L16,12 L14,12 Z" id="Shape" fill="#3E4241"></path>
                </g>
            </g>
        </g>
    </g>
</svg>