<?xml version="1.0" encoding="UTF-8"?>
<svg width="20px" height="18px" viewBox="0 0 20 18" version="1.1" xmlns="http://www.w3.org/2000/svg" xmlns:xlink="http://www.w3.org/1999/xlink">
    <!-- Generator: Sketch 54.1 (76490) - https://sketchapp.com -->
    <title>ic-Data-Analytics-and-Decision-Science</title>
    <desc>Created with Sketch.</desc>
    <g id="Page-1" stroke="none" stroke-width="1" fill="none" fill-rule="evenodd">
        <g id="ic-Data-Analytics-and-Decision-Science" fill-rule="nonzero">
            <path d="M2,16 L16,16 L16,2 L2,2 L2,16 Z M10,4 L14,4 L14,7 L10,7 L10,4 Z M10,8 L14,8 L14,14 L10,14 L10,8 Z M4,4 L9,4 L9,9 L4,9 L4,4 Z M4,10 L9,10 L9,14 L4,14 L4,10 Z" id="Shape" fill="#E0BE41"></path>
            <path d="M4,10 L9,10 L9,14 L4,14 L4,10 Z M4,4 L9,4 L9,9 L4,9 L4,4 Z M10,4 L14,4 L14,7 L10,7 L10,4 Z M10,8 L14,8 L14,14 L10,14 L10,8 Z M20,6 L20,4 L18,4 L18,2 C18,0.9 17.1,0 16,0 L2,0 C0.9,0 0,0.9 0,2 L0,16 C0,17.1 0.9,18 2,18 L16,18 C17.1,18 18,17.1 18,16 L18,14 L20,14 L20,12 L18,12 L18,10 L20,10 L20,8 L18,8 L18,6 L20,6 Z M16,16 L2,16 L2,2 L16,2 L16,16 Z" id="Shape" fill="#3E4241"></path>
        </g>
    </g>
</svg>