<?xml version="1.0" encoding="UTF-8"?>
<svg width="20px" height="20px" viewBox="0 0 20 20" version="1.1" xmlns="http://www.w3.org/2000/svg" xmlns:xlink="http://www.w3.org/1999/xlink">
    <!-- Generator: Sketch 54.1 (76490) - https://sketchapp.com -->
    <title>ic-leadership-and-strategy</title>
    <desc>Created with Sketch.</desc>
    <g id="Page-1" stroke="none" stroke-width="1" fill="none" fill-rule="evenodd">
        <g id="ic-leadership-and-strategy" transform="translate(-1.000000, 0.000000)" fill-rule="nonzero">
            <circle id="Oval" fill="#E0BE41" cx="8.5" cy="8" r="1"></circle>
            <path d="M10.5,15.21 C10.5,13.33 13.48,12.51 15,12.51 C15.88,12.51 17.24,12.78 18.24,13.38 C18.72,12.36 18.99,11.22 18.99,10.01 C18.99,5.6 15.4,2.01 10.99,2.01 C6.58,2.01 2.99,5.6 2.99,10.01 C2.99,11.24 3.28,12.4 3.77,13.44 C5.11,12.46 7.2,12.01 8.5,12.01 C8.94,12.01 9.47,12.06 10.03,12.17 C9.4,12.74 8.97,13.39 8.73,14.03 C8.65,14.03 8.58,14.02 8.5,14.02 C7.12,14.02 5.52,14.59 4.84,15.13 C6.21,16.78 8.23,17.86 10.5,17.99 L10.5,15.21 L10.5,15.21 Z M15,7 C16.11,7 17,7.89 17,9 C17,10.11 16.11,11 15,11 C13.89,11 13,10.11 13,9 C12.99,7.89 13.89,7 15,7 Z M8.5,11 C6.85,11 5.5,9.65 5.5,8 C5.5,6.35 6.85,5 8.5,5 C10.15,5 11.5,6.35 11.5,8 C11.5,9.65 10.15,11 8.5,11 Z" id="Shape" fill="#E0BE41"></path>
            <path d="M11.5,8 C11.5,6.35 10.15,5 8.5,5 C6.85,5 5.5,6.35 5.5,8 C5.5,9.65 6.85,11 8.5,11 C10.15,11 11.5,9.65 11.5,8 Z M8.5,9 C7.95,9 7.5,8.55 7.5,8 C7.5,7.45 7.95,7 8.5,7 C9.05,7 9.5,7.45 9.5,8 C9.5,8.55 9.05,9 8.5,9 Z M15,11 C16.11,11 17,10.11 17,9 C17,7.89 16.11,7 15,7 C13.89,7 12.99,7.89 13,9 C13,10.11 13.89,11 15,11 Z M10.99,0.01 C5.47,0.01 0.99,4.49 0.99,10.01 C0.99,15.53 5.47,20.01 10.99,20.01 C16.51,20.01 20.99,15.53 20.99,10.01 C20.99,4.49 16.51,0.01 10.99,0.01 Z M4.84,15.12 C5.52,14.58 7.11,14.01 8.5,14.01 C8.57,14.01 8.65,14.02 8.73,14.02 C8.97,13.38 9.4,12.73 10.03,12.16 C9.47,12.06 8.94,12 8.5,12 C7.2,12 5.11,12.45 3.77,13.43 C3.27,12.39 2.99,11.23 2.99,10 C2.99,5.59 6.58,2 10.99,2 C15.4,2 18.99,5.59 18.99,10 C18.99,11.2 18.72,12.34 18.24,13.37 C17.24,12.78 15.88,12.5 15,12.5 C13.48,12.5 10.5,13.31 10.5,15.2 L10.5,17.98 C8.23,17.85 6.21,16.77 4.84,15.12 L4.84,15.12 Z" id="Shape" fill="#3E4241"></path>
        </g>
    </g>
</svg>