<?xml version="1.0" encoding="UTF-8"?>
<svg width="20px" height="20px" viewBox="0 0 20 20" version="1.1" xmlns="http://www.w3.org/2000/svg" xmlns:xlink="http://www.w3.org/1999/xlink">
    <!-- Generator: Sketch 54.1 (76490) - https://sketchapp.com -->
    <title>ic-Operational-Excellence-and-Execution</title>
    <desc>Created with Sketch.</desc>
    <g id="Page-1" stroke="none" stroke-width="1" fill="none" fill-rule="evenodd">
        <g id="ic-Operational-Excellence-and-Execution" transform="translate(-0.000000, 0.000000)" fill-rule="nonzero">
            <path d="M10,2 C5.59,2 2,5.59 2,10 C2,14.41 5.59,18 10,18 C14.41,18 18,14.41 18,10 C18,5.59 14.41,2 10,2 Z M8,15 L4,11 L5.41,9.59 L8,12.17 L14.59,5.58 L16,7 L8,15 Z" id="Shape" fill="#E0BE41"></path>
            <path d="M10,0 C4.48,0 0,4.48 0,10 C0,15.52 4.48,20 10,20 C15.52,20 20,15.52 20,10 C20,4.48 15.52,0 10,0 Z M10,18 C5.59,18 2,14.41 2,10 C2,5.59 5.59,2 10,2 C14.41,2 18,5.59 18,10 C18,14.41 14.41,18 10,18 Z M14.59,5.58 L8,12.17 L5.41,9.59 L4,11 L8,15 L16,7 L14.59,5.58 Z" id="Shape" fill="#3E4241"></path>
        </g>
    </g>
</svg>