<svg height="16" viewBox="0 0 22 16" width="22" xmlns="http://www.w3.org/2000/svg"><g fill="none"><path d="m11 2.5c-3.79 0-7.17 2.13-8.82 5.5 1.65 3.37 5.02 5.5 8.82 5.5s7.17-2.13 8.82-5.5c-1.65-3.37-5.03-5.5-8.82-5.5zm0 10c-2.48 0-4.5-2.02-4.5-4.5s2.02-4.5 4.5-4.5 4.5 2.02 4.5 4.5-2.02 4.5-4.5 4.5z" fill="#e0be41"/><path d="m11 .5c-5 0-9.27 3.11-11 7.5 1.73 4.39 6 7.5 11 7.5s9.27-3.11 11-7.5c-1.73-4.39-6-7.5-11-7.5zm0 13c-3.79 0-7.17-2.13-8.82-5.5 1.65-3.37 5.03-5.5 8.82-5.5s7.17 2.13 8.82 5.5c-1.65 3.37-5.03 5.5-8.82 5.5zm0-10c-2.48 0-4.5 2.02-4.5 4.5s2.02 4.5 4.5 4.5 4.5-2.02 4.5-4.5-2.02-4.5-4.5-4.5zm0 7c-1.38 0-2.5-1.12-2.5-2.5s1.12-2.5 2.5-2.5 2.5 1.12 2.5 2.5-1.12 2.5-2.5 2.5z" fill="#3e4241"/></g></svg>