<?xml version="1.0" encoding="UTF-8"?>
<svg width="20px" height="20px" viewBox="0 0 20 20" version="1.1" xmlns="http://www.w3.org/2000/svg" xmlns:xlink="http://www.w3.org/1999/xlink">
    <!-- Generator: Sketch 54.1 (76490) - https://sketchapp.com -->
    <title>ic-under-perform</title>
    <desc>Created with Sketch.</desc>
    <g id="Page-1" stroke="none" stroke-width="1" fill="none" fill-rule="evenodd">
        <g id="ic-under-perform" transform="translate(-2.000000, -2.000000)">
            <polygon id="Path" points="0 0 24 0 24 24 0 24"></polygon>
            <path d="M12,4 C7.58,4 4,7.58 4,12 C4,16.42 7.58,20 12,20 C16.42,20 20,16.42 20,12 C20,7.58 16.42,4 12,4 Z M15.5,8 C16.33,8 17,8.67 17,9.5 C17,10.33 16.33,11 15.5,11 C14.67,11 14,10.33 14,9.5 C14,8.67 14.67,8 15.5,8 Z M8.5,8 C9.33,8 10,8.67 10,9.5 C10,10.33 9.33,11 8.5,11 C7.67,11 7,10.33 7,9.5 C7,8.67 7.67,8 8.5,8 Z M6.89,17 C7.69,14.96 9.67,13.5 12,13.5 C14.33,13.5 16.31,14.96 17.11,17 L6.89,17 Z" id="Shape" fill="#E0BE41" fill-rule="nonzero"></path>
            <circle id="Oval" fill="#3E4241" fill-rule="nonzero" cx="8.5" cy="9.5" r="1.5"></circle>
            <path d="M11.99,2 C6.47,2 2,6.48 2,12 C2,17.52 6.47,22 11.99,22 C17.52,22 22,17.52 22,12 C22,6.48 17.52,2 11.99,2 Z M12,20 C7.58,20 4,16.42 4,12 C4,7.58 7.58,4 12,4 C16.42,4 20,7.58 20,12 C20,16.42 16.42,20 12,20 Z M12,13.5 C9.67,13.5 7.69,14.96 6.89,17 L17.11,17 C16.31,14.96 14.33,13.5 12,13.5 Z" id="Shape" fill="#3E4241" fill-rule="nonzero"></path>
            <circle id="Oval" fill="#3E4241" fill-rule="nonzero" cx="15.5" cy="9.5" r="1.5"></circle>
        </g>
    </g>
</svg>