<svg height="924" viewBox="0 0 905 924" width="905" xmlns="http://www.w3.org/2000/svg"><g fill="none" fill-rule="evenodd"><circle cx="453" cy="283" fill="#e0be41" opacity=".5" r="280"/><circle cx="453" cy="641" fill="#e0be41" opacity=".5" r="280"/><circle cx="283" cy="459" fill="#e0be41" opacity=".5" r="280"/><circle cx="622" cy="459" fill="#e0be41" opacity=".5" r="280"/><path d="m355.653799 545.614361c-8.863284-27.274072-13.653799-56.384774-13.653799-86.614361 0-27.733675 4.032112-54.525599 11.542099-79.821536 30.906046-11.746786 64.430874-18.178464 99.457901-18.178464 34.601821 0 67.737694 6.276473 98.331226 17.753028 7.591311 25.420905 11.668774 52.357767 11.668774 80.246972 0 30.384288-4.839672 59.638211-13.790194 87.032947-30.001778 10.976835-62.406247 16.967053-96.209806 16.967053-34.230791 0-67.026903-6.142591-97.346201-17.385639z" fill="#1dab78"/><path d="m453 566c-156.296584 0-283-126.703416-283-283s126.703416-283 283-283 283 126.703416 283 283-126.703416 283-283 283zm0-6c152.982876 0 277-124.017124 277-277s-124.017124-277-277-277-277 124.017124-277 277 124.017124 277 277 277z" fill="#fff" fill-rule="nonzero"/><path d="m453 566c-156.296584 0-283-126.703416-283-283s126.703416-283 283-283 283 126.703416 283 283-126.703416 283-283 283zm0-6c152.982876 0 277-124.017124 277-277s-124.017124-277-277-277-277 124.017124-277 277 124.017124 277 277 277z" fill="#fff" fill-rule="nonzero"/><path d="m453 924c-156.296584 0-283-126.703416-283-283s126.703416-283 283-283 283 126.703416 283 283-126.703416 283-283 283zm0-6c152.982876 0 277-124.017124 277-277s-124.017124-277-277-277-277 124.017124-277 277 124.017124 277 277 277z" fill="#fff" fill-rule="nonzero"/><path d="m283 742c-156.296584 0-283-126.703416-283-283s126.703416-283 283-283 283 126.703416 283 283-126.703416 283-283 283zm0-6c152.982876 0 277-124.017124 277-277s-124.017124-277-277-277-277 124.017124-277 277 124.017124 277 277 277z" fill="#fff" fill-rule="nonzero"/><path d="m622 742c-156.296584 0-283-126.703416-283-283s126.703416-283 283-283 283 126.703416 283 283-126.703416 283-283 283zm0-6c152.982876 0 277-124.017124 277-277s-124.017124-277-277-277-277 124.017124-277 277 124.017124 277 277 277z" fill="#fff" fill-rule="nonzero"/><g font-size="34" letter-spacing=".25"><text fill="#3e4241" font-family="FranklinGothicURW-Hea, FranklinGothic URW" font-weight="600"><tspan x="553.493" y="281">MISSION</tspan></text><text fill="#3a3e41" font-family="FranklinGothicURW-Boo, FranklinGothic URW" font-weight="300"><tspan x="384.04" y="90">WHAT YOU</tspan> <tspan x="534.96" y="90"/><tspan font-family="FranklinGothicURW-Hea, FranklinGothic URW" font-weight="600" x="418.064" y="134">LOVE</tspan></text><text fill="#3e4241" font-family="FranklinGothicURW-Hea, FranklinGothic URW" font-weight="600"><tspan x="211.201" y="281">PASSION</tspan></text><text fill="#3e4241" font-family="FranklinGothicURW-Hea, FranklinGothic URW" font-weight="600"><tspan x="191.22" y="665">PROFESSION</tspan></text><text fill="#3e4241" font-family="FranklinGothicURW-Hea, FranklinGothic URW" font-weight="600"><tspan x="534.025" y="665">VOCATION</tspan></text><text fill="#3e4241" font-family="FranklinGothicURW-Boo, FranklinGothic URW" font-weight="300"><tspan x="725.771" y="416">WHAT THE </tspan><tspan x="745.917" y="460">WORLD</tspan> <tspan x="855.083" y="460"/><tspan font-family="FranklinGothicURW-Hea, FranklinGothic URW" font-weight="600" x="746.529" y="504">NEEDS</tspan></text><text fill="#3e4241" font-family="FranklinGothicURW-Boo, FranklinGothic URW" font-weight="300"><tspan x="33.04" y="416">WHAT YOU</tspan> <tspan x="79.208" y="460">ARE</tspan> <tspan x="137.792" y="460"/><tspan font-family="FranklinGothicURW-Hea, FranklinGothic URW" font-weight="600" x="38.588" y="504">GOOD AT</tspan></text><text fill="#3a3e41" font-family="FranklinGothicURW-Boo, FranklinGothic URW" font-weight="300"><tspan x="383.54" y="766">WHAT YOU </tspan><tspan x="404.037" y="810">CAN BE</tspan> <tspan x="513.963" y="810"/><tspan font-family="FranklinGothicURW-Hea, FranklinGothic URW" font-weight="600" x="383.098" y="854">PAID FOR</tspan></text></g><text fill="#fff" font-family="FranklinGothicURW-Hea, FranklinGothic URW" font-size="44" font-weight="600" letter-spacing=".323529422"><tspan x="393.371412" y="469">IKIGAI</tspan></text></g></svg>