<svg height="72" viewBox="0 0 89 72" width="89" xmlns="http://www.w3.org/2000/svg"><g fill="none" fill-rule="evenodd"><path d="m18.2066301 63.2379452c0-2.9317808-2.3853698-5.3166575-5.3161643-5.3166575-2.93227402 0-5.31715073 2.3848767-5.31715073 5.3166575 0 2.9312877 2.38487671 5.3161644 5.31715073 5.3161644 2.9307945 0 5.3161643-2.3848767 5.3161643-5.3161644m48.3403069.0128561c-.0000329-.0042815-.0000493-.0085669-.0000493-.0128561 0-.0042916.0000164-.0085793.0000493-.0128631v-6.9462821c0-.9069041.7357808-1.6421918 1.6426849-1.6421918h13.9137534c.9069042 0 1.642685.7352877 1.642685 1.6421918 0 .9073973-.7357808 1.6426849-1.642685 1.6426849h-12.2710685v3.6737754h8.9856494c.9069041 0 1.6426849.7352876 1.6426849 1.6426849 0 .9069041-.7357808 1.6421918-1.6426849 1.6421918h-8.9856494v3.6741698h12.2710685c.9069042 0 1.642685.7347946 1.642685 1.6421918 0 .9073973-.7357808 1.6421918-1.642685 1.6421918h-13.9137534c-.9069041 0-1.6426849-.7347945-1.6426849-1.6421918zm-45.0559233-.0128561c0 4.7426301-3.8579178 8.6010411-8.6005479 8.6010411-4.74312333 0-8.60202744-3.858411-8.60202744-8.6010411s3.85890411-8.6010411 8.60202744-8.6010411c4.7426301 0 8.6005479 3.858411 8.6005479 8.6010411zm15.5333589 8.6012384c-.9069041 0-1.6421918-.7352877-1.6421918-1.6421918v-13.9181918c0-.6637808.3999452-1.2629589 1.0139178-1.5174247.6134795-.2539726 1.3201644-.1134246 1.7896439.3560548l11.114137 11.1136439v-9.952274c0-.9073973.7352876-1.6421918 1.6421917-1.6421918.9073973 0 1.642685.7347945 1.642685 1.6421918v13.9176986c0 .664274-.4004384 1.2629589-1.014411 1.5174247-.6144657.2549589-1.3196712.1139178-1.7896438-.3560548l-11.1136439-11.114137v9.9532603c0 .9069041-.7352876 1.6421918-1.6426849 1.6421918z" fill="#e0be41"/><path d="m31.0950247 47.6762301v-11.2428493h24.1343013c.9073973 0 1.6431781.7347945 1.6431781 1.6421918v9.602137c0 .9073972-.7357808 1.6426849-1.6431781 1.6426849h-22.490137c-.9078904 0-1.6441643-.736274-1.6441643-1.6441644zm-13.9093644-30.4905698c8.2183561 4.7450959 11.0342465 15.2536438 6.2896438 23.4724931-4.4358904 7.6827945-13.90931506 10.6441644-21.83917807 7.1206028-.8970411-.3979726-1.25654795-1.4838904-.76635617-2.3330959zm45.0399945-14.70304112 25.6186849 44.37123292c.6332055 1.0962739-.1578082 2.4667397-1.423726 2.4667397h-22.5507945c-.9078904 0-1.6441644-.7367671-1.6441644-1.6441644z" fill="#e0be41"/><path d="m42.3378247.06815342c.9078904 0 1.6441643.73627398 1.6441643 1.64416439v34.72126029h-12.8870137v-34.72126029c0-.90789041.736274-1.64416439 1.6441644-1.64416439zm-33.74378634 31.99823018c-8.21835617-4.7450959-11.03424658-15.2536439-6.28915069-23.47200004 4.43589041-7.68328767 13.90931503-10.64465753 21.83917813-7.12109589.897041.39846575 1.2565479 1.48389041.765863 2.33358904zm53.63161644 14.8397917v-45.19380818c0-.90789041.736274-1.64416438 1.6441644-1.64416438h22.5507945c1.2659178 0 2.0569315 1.37046575 1.423726 2.46673973z" fill="#3a3e41"/><g fill="#000"><path d="m18.2066301 63.2379452c0-2.9317808-2.3853698-5.3166575-5.3161643-5.3166575-2.93227402 0-5.31715073 2.3848767-5.31715073 5.3166575 0 2.9312877 2.38487671 5.3161644 5.31715073 5.3161644 2.9307945 0 5.3161643-2.3848767 5.3161643-5.3161644m48.3403069.0128561c-.0000329-.0042815-.0000493-.0085669-.0000493-.0128561 0-.0042916.0000164-.0085793.0000493-.0128631v-6.9462821c0-.9069041.7357808-1.6421918 1.6426849-1.6421918h13.9137534c.9069042 0 1.642685.7352877 1.642685 1.6421918 0 .9073973-.7357808 1.6426849-1.642685 1.6426849h-12.2710685v3.6737754h8.9856494c.9069041 0 1.6426849.7352876 1.6426849 1.6426849 0 .9069041-.7357808 1.6421918-1.6426849 1.6421918h-8.9856494v3.6741698h12.2710685c.9069042 0 1.642685.7347946 1.642685 1.6421918 0 .9073973-.7357808 1.6421918-1.642685 1.6421918h-13.9137534c-.9069041 0-1.6426849-.7347945-1.6426849-1.6421918zm-45.0559233-.0128561c0 4.7426301-3.8579178 8.6010411-8.6005479 8.6010411-4.74312333 0-8.60202744-3.858411-8.60202744-8.6010411s3.85890411-8.6010411 8.60202744-8.6010411c4.7426301 0 8.6005479 3.858411 8.6005479 8.6010411zm15.5333589 8.6012384c-.9069041 0-1.6421918-.7352877-1.6421918-1.6421918v-13.9181918c0-.6637808.3999452-1.2629589 1.0139178-1.5174247.6134795-.2539726 1.3201644-.1134246 1.7896439.3560548l11.114137 11.1136439v-9.952274c0-.9073973.7352876-1.6421918 1.6421917-1.6421918.9073973 0 1.642685.7347945 1.642685 1.6421918v13.9176986c0 .664274-.4004384 1.2629589-1.014411 1.5174247-.6144657.2549589-1.3196712.1139178-1.7896438-.3560548l-11.1136439-11.114137v9.9532603c0 .9069041-.7352876 1.6421918-1.6426849 1.6421918z" opacity=".1"/><path d="m31.0950247 47.6762301v-11.2428493h24.1343013c.9073973 0 1.6431781.7347945 1.6431781 1.6421918v9.602137c0 .9073972-.7357808 1.6426849-1.6431781 1.6426849h-22.490137c-.9078904 0-1.6441643-.736274-1.6441643-1.6441644zm-13.9093644-30.4905698c8.2183561 4.7450959 11.0342465 15.2536438 6.2896438 23.4724931-4.4358904 7.6827945-13.90931506 10.6441644-21.83917807 7.1206028-.8970411-.3979726-1.25654795-1.4838904-.76635617-2.3330959zm45.0399945-14.70304112 25.6186849 44.37123292c.6332055 1.0962739-.1578082 2.4667397-1.423726 2.4667397h-22.5507945c-.9078904 0-1.6441644-.7367671-1.6441644-1.6441644z" opacity=".1"/><path d="m42.3378247.06815342c.9078904 0 1.6441643.73627398 1.6441643 1.64416439v34.72126029h-12.8870137v-34.72126029c0-.90789041.736274-1.64416439 1.6441644-1.64416439zm-33.74378634 31.99823018c-8.21835617-4.7450959-11.03424658-15.2536439-6.28915069-23.47200004 4.43589041-7.68328767 13.90931503-10.64465753 21.83917813-7.12109589.897041.39846575 1.2565479 1.48389041.765863 2.33358904zm53.63161644 14.8397917v-45.19380818c0-.90789041.736274-1.64416438 1.6441644-1.64416438h22.5507945c1.2659178 0 2.0569315 1.37046575 1.423726 2.46673973z" opacity=".1"/></g></g></svg>