<svg height="64" viewBox="0 0 55 64" width="55" xmlns="http://www.w3.org/2000/svg"><path d="m8.1851213 7.72604131.59155498 1.12562081c.05832232-.00583223 5.43105792-2.45953563 13.48120472-1.21352088 6.9999284 1.08354542 10.6879821 9.35115116 11.4249263 11.20913366-1.5959487 1.7130099-9.8989644 10.3822065-15.8969986 12.2176933-6.652494 2.0325329-14.81386981.7319451-14.90176988.7015342l-2.88403882-.4757435 2.40662896 1.6567705c.30077654.1857983 7.50275013 5.040715 17.54335444 1.7246744l.0974816-.0099981c.5428142-.2828633 1.202273-.2182921 1.6800995.1645523.3920093.4457491.1416399 1.4072343-.6386295 2.5728475-2.709905 3.9804985-6.6175006 13.3074876-5.5272897 21.1422583l.4786596 3.4493488.8077641-3.356033c.9169103-3.9042629 6.200496-16.4748062 12.0377273-24.7907362 1.6513549-.2512025 6.4408673-1.0806293 8.6704463-2.6153395.8952477 5.5097931 1.2505973 13.8573837-1.4293134 20.9981188l.0079151.0774854c-.8552552 3.6263987-2.4649512 7.0307559-4.7249412 9.9926967l-1.2368498 1.7025952 1.985875-.7040337c9.6865045-3.4510152 15.8107649-18.3461196 16.9001426-27.3631672.3682638-2.8053036.4295022-5.642268.1828821-8.4609025-.139557-1.8621484-.591555-3.6872205-1.3359977-5.4002304l3.6447285-5.888055c3.6951357-5.9722058 2.3333095-10.78004807 1.9521314-11.83526551l.9156605-3.91759368-1.1897754.48032598c-.875668.48032598-1.6692682 1.09770941-2.3503896 1.82840479-4.0738142-.45449752-7.3469462 3.07816884-9.3715639 6.12426039-1.1910252-2.19875153-4.3645926-7.11240716-9.662759-8.60254248-.6407124-.17954944-1.3676585-.26120069-2.1583425-.26120069-7.5269122-.00041659-20.87772492 7.3786069-21.500524 7.72604131m40.0470224.93190738c-.0541565-.53698195.3374363-1.01647475.8744182-1.0702146.536982-.05415645 1.0164748.33743629 1.0706312.87441824.0537399.53698195-.3374363 1.01647475-.8748348 1.07063119-.0333271.00333271-.0662375.00499906-.0987314.00499906-.4957397 0-.9206595-.37576239-.9714832-.87983389" fill="#e0be41" fill-rule="evenodd"/></svg>