<svg height="64" viewBox="0 0 76 64" width="76" xmlns="http://www.w3.org/2000/svg"><g fill="#e0be41" fill-rule="evenodd" transform="translate(1 1)"><path d="m42.7845976 60.946639c-.2621804 1.3340009-1.5561411 2.2028831-2.8901421 1.9407026-1.3340009-.2621805-2.2028831-1.5561412-1.9407026-2.8901421l1.8068367-9.1933689c.2621805-1.3340009 1.5561412-2.2028831 2.8901421-1.9407026s2.2028831 1.5561412 1.9407026 2.8901421z" fill-rule="nonzero"/><path d="m24.1874019 11.917409c-4.0912297-.7959271-8.1841004-1.5934954-12.2769712-2.3910636 7.3126833 22.3499626 8.0692244 18.8396777-11.43017031 32.212895 33.97378121 17.3019793 65.19053641 14.4103841 65.44654601-28.0379699 2.4632714-.6974619 4.9265429-1.3932828 7.3865321-2.0907447-2.0956679-.8090559-4.1913359-1.61811171-6.288645-2.42716756.0114876-2.09074472.0213341-4.18313053.0328217-6.27387526-1.8183242 2.14818277-3.6382896 4.29964771-5.4566139 6.44783047-5.8685268-6.37562264-12.2753301-9.35583647-18.3752502-9.35747756-7.2470398 0-14.0608326 4.20446466-19.0382492 11.91757311m20.6038462 3.2427878c0-2.1826456 1.7707327-3.9533784 3.9550194-3.9533784 2.1826456 0 3.9533784 1.7707328 3.9533784 3.9533784 0 2.1842866-1.7707328 3.9566605-3.9533784 3.9566605-2.1842867 0-3.9550194-1.7723739-3.9550194-3.9566605"/><path d="m35.32293 42.3543836c.7478825-1.1353277 2.274526-1.449414 3.4098536-.7015315 1.1353277.7478825 1.449414 2.274526.7015315 3.4098536l-11.0428738 16.7637028c-.7478825 1.1353276-2.2745259 1.449414-3.4098536.7015315-1.1353276-.7478825-1.449414-2.274526-.7015315-3.4098536z" fill-rule="nonzero"/></g></svg>