<?xml version="1.0" encoding="UTF-8"?>
<svg width="76px" height="64px" viewBox="0 0 76 64" version="1.1" xmlns="http://www.w3.org/2000/svg" xmlns:xlink="http://www.w3.org/1999/xlink">
    <!-- Generator: Sketch 50.2 (55047) - http://www.bohemiancoding.com/sketch -->
    <title>Artboard 1</title>
    <desc>Created with Sketch.</desc>
    <defs></defs>
    <g id="Artboard-1" stroke="none" stroke-width="1" fill="none" fill-rule="evenodd">
        <g id="Group" transform="translate(1.000000, 1.000000)" fill="#E0BE41">
            <path d="M42.7845976,60.946639 C42.5224172,62.2806399 41.2284565,63.1495221 39.8944555,62.8873416 C38.5604546,62.6251611 37.6915724,61.3312004 37.9537529,59.9971995 L39.7605896,50.8038306 C40.0227701,49.4698297 41.3167308,48.6009475 42.6507317,48.863128 C43.9847326,49.1253085 44.8536148,50.4192692 44.5914343,51.7532701 L42.7845976,60.946639 Z" id="Stroke-1" fill-rule="nonzero"></path>
            <path d="M24.1874019,11.917409 C20.0961722,11.1214819 16.0033015,10.3239136 11.9104307,9.5263454 C19.223114,31.876308 19.9796551,28.3660231 0.480260393,41.7392404 C34.4540416,59.0412197 65.6707968,56.1496245 65.9268064,13.7012705 C68.3900778,13.0038086 70.8533493,12.3079877 73.3133385,11.6105258 C71.2176706,10.8014699 69.1220026,9.99241409 67.0246935,9.18335824 C67.0361811,7.09261352 67.0460276,5.00022771 67.0575152,2.90948298 C65.239191,5.05766575 63.4192256,7.20913069 61.6009013,9.35731345 C55.7323745,2.98169081 49.3255712,0.00147697822 43.2256511,-0.000164108691 C35.9786113,-0.000164108691 29.1648185,4.20430055 24.1874019,11.917409 M44.7912481,15.1601968 C44.7912481,12.9775512 46.5619808,11.2068184 48.7462675,11.2068184 C50.9289131,11.2068184 52.6996459,12.9775512 52.6996459,15.1601968 C52.6996459,17.3444834 50.9289131,19.1168573 48.7462675,19.1168573 C46.5619808,19.1168573 44.7912481,17.3444834 44.7912481,15.1601968" id="Fill-2"></path>
            <path d="M35.32293,42.3543836 C36.0708125,41.2190559 37.597456,40.9049696 38.7327836,41.6528521 C39.8681113,42.4007346 40.1821976,43.9273781 39.4343151,45.0627057 L28.3914413,61.8264085 C27.6435588,62.9617361 26.1169154,63.2758225 24.9815877,62.52794 C23.8462601,61.7800575 23.5321737,60.253414 24.2800562,59.1180864 L35.32293,42.3543836 Z" id="Stroke-5" fill-rule="nonzero"></path>
        </g>
    </g>
</svg>