<?xml version="1.0" encoding="UTF-8"?>
<svg width="64px" height="38px" viewBox="0 0 64 38" version="1.1" xmlns="http://www.w3.org/2000/svg" xmlns:xlink="http://www.w3.org/1999/xlink">
    <!-- Generator: Sketch 50.2 (55047) - http://www.bohemiancoding.com/sketch -->
    <title>noun_956428_cc</title>
    <desc>Created with Sketch.</desc>
    <defs></defs>
    <g id="Page-1" stroke="none" stroke-width="1" fill="none" fill-rule="evenodd">
        <g id="noun_956428_cc" fill="#E0BE41" fill-rule="nonzero">
            <polygon id="Shape" points="16.3688989 5.29186517 15.0018876 4.44404494 0.97294382 12.565573 4.71011236 14.5438202"></polygon>
            <polygon id="Shape" points="5.03011236 15.189573 16.5803146 6.02175281 16.5803146 5.85851685 5.03011236 15.025618"></polygon>
            <path d="M9.70211236,34.8857528 L15.068764,36.2908764 L20.7489438,37.2472809 L26.6218427,37.5665618 L32.4983371,37.3752809 L38.2468315,36.608 L43.6688539,35.3963146 L48.7054382,33.6122247 L53.2293034,31.381573 L56.9772584,28.8402697 L60.0183371,25.9904719 L62.1641348,22.833618 L63.4829663,19.5681798 L63.7353708,16.220764 L63.7353708,14.3992809 C63.7217079,14.3978427 63.7116404,14.3920899 63.6986966,14.3892135 C63.6814382,14.3848989 63.6620225,14.3820225 63.6462022,14.3741124 C63.6346966,14.3697978 63.6267865,14.3626067 63.6167191,14.3568539 L62.6854831,16.661573 C62.6854831,16.6622921 62.684764,16.6622921 62.6840449,16.6630112 C62.6646292,16.7104719 62.6308315,16.7478652 62.5898427,16.7787865 C62.5797753,16.7859775 62.5718652,16.7924494 62.5603596,16.7989213 C62.5179326,16.8233708 62.4719101,16.8413483 62.4194157,16.8413483 C62.4194157,16.8413483 62.4194157,16.8413483 62.4186966,16.8413483 C62.3834607,16.8413483 62.3467865,16.8348764 62.3115506,16.8204944 C62.3108315,16.8204944 62.3101124,16.8197753 62.3093933,16.8190562 C62.2871011,16.8097079 62.2684045,16.7938876 62.2497079,16.7795056 C62.2087191,16.7485843 62.1742022,16.711191 62.1547865,16.6658876 C62.1526292,16.661573 62.1533483,16.6558202 62.151191,16.6507865 C62.1396854,16.6205843 62.1324944,16.5882247 62.1324944,16.5551461 C62.1324944,16.554427 62.1317753,16.5537079 62.1317753,16.5529888 L62.1317753,16.5256629 L60.4756854,18.9605393 C60.4713708,18.9662921 60.4641798,18.9691685 60.4598652,18.9749213 C60.4404494,19.0000899 60.4167191,19.0195056 60.3893933,19.036764 C60.3793258,19.043236 60.3714157,19.0518652 60.3613483,19.0561798 C60.323236,19.0741573 60.2829663,19.086382 60.2376629,19.086382 C60.2376629,19.086382 60.2376629,19.086382 60.2369438,19.086382 C60.1837303,19.086382 60.1362697,19.0676854 60.0938427,19.0417978 C60.0880899,19.0389213 60.081618,19.0403596 60.0765843,19.036764 C60.0686742,19.0317303 60.0650787,19.0238202 60.0586067,19.0180674 C60.0435056,19.0051236 60.0305618,18.9914607 60.017618,18.9763596 C60.0061124,18.9619775 59.9960449,18.9475955 59.9874157,18.9317753 C59.9787865,18.9159551 59.9723146,18.9001348 59.968,18.8828764 C59.9615281,18.8634607 59.9579326,18.844764 59.9557753,18.8246292 C59.9550562,18.816 59.9507416,18.808809 59.9507416,18.7994607 L59.9507416,18.5111011 L57.3576629,20.9963146 C57.3447191,21.0092584 57.329618,21.0142921 57.3145169,21.0243596 C57.2986966,21.0351461 57.2850337,21.0473708 57.2677753,21.0545618 C57.2325393,21.0696629 57.1958652,21.0761348 57.159191,21.0761348 C57.1203596,21.0761348 57.0829663,21.0689438 57.0477303,21.0538427 C57.0124944,21.0387416 56.9808539,21.0171685 56.9549663,20.9905618 C56.9535281,20.9891236 56.9520899,20.9891236 56.9513708,20.9876854 C56.9391461,20.9761798 56.9355506,20.9610787 56.9254831,20.9466966 C56.9139775,20.9301573 56.9017528,20.9150562 56.8931236,20.8963596 C56.8837753,20.8726292 56.881618,20.8481798 56.8780225,20.8230112 C56.8765843,20.8107865 56.8715506,20.8007191 56.8715506,20.7884944 L56.8715506,20.7827416 C56.8715506,20.7820225 56.8715506,20.7820225 56.8715506,20.7820225 L56.8715506,20.4311011 L53.5342022,22.6933933 C53.5284494,22.6969888 53.5226966,22.6955506 53.5176629,22.698427 C53.4745169,22.7235955 53.4277753,22.7430112 53.3745618,22.7430112 C53.3745618,22.7430112 53.3745618,22.7437303 53.3738427,22.7437303 C53.3731236,22.7437303 53.3731236,22.7437303 53.3731236,22.7437303 C53.3285393,22.7437303 53.2882697,22.7307865 53.2501573,22.7135281 C53.2393708,22.7084944 53.2314607,22.6998652 53.2213933,22.6941124 C53.1947865,22.6768539 53.1710562,22.6567191 53.1509213,22.6315506 C53.1466067,22.6257978 53.1394157,22.6236404 53.1358202,22.6171685 C53.1300674,22.6085393 53.1293483,22.6006292 53.1243146,22.592 C53.1149663,22.5754607 53.1084944,22.5582022 53.1027416,22.5387865 C53.0962697,22.520809 53.0926742,22.5021124 53.0905169,22.4826966 C53.0905169,22.4726292 53.0854831,22.4661573 53.0854831,22.4560899 L53.0854831,22.0152809 L48.9427416,24 C48.9405843,24.0014382 48.938427,24.0007191 48.9362697,24.0014382 C48.9003146,24.0179775 48.860764,24.0280449 48.8183371,24.0280449 C48.7687191,24.0280449 48.7234157,24.0129438 48.6831461,23.9899326 C48.6716404,23.9841798 48.6637303,23.9769888 48.6529438,23.9690787 C48.6191461,23.9453483 48.5911011,23.9151461 48.5709663,23.8777528 C48.5680899,23.8727191 48.561618,23.8705618 48.5594607,23.864809 C48.5580225,23.8626517 48.5580225,23.8604944 48.5573034,23.857618 C48.5493933,23.8417978 48.5479551,23.822382 48.5436404,23.8058427 C48.5393258,23.7857079 48.5321348,23.7662921 48.5321348,23.7468764 C48.5314157,23.7447191 48.5306966,23.7425618 48.5306966,23.7404045 L48.5306966,23.2442247 L43.8414382,24.8471011 C43.8105169,24.8586067 43.7788764,24.8622022 43.7479551,24.8622022 C43.6933034,24.8622022 43.6436854,24.8427865 43.6005393,24.8161798 C43.5904719,24.8097079 43.5825618,24.8046742 43.5732135,24.7982022 C43.5315056,24.7658427 43.4991461,24.7248539 43.4811685,24.6745169 C43.4797303,24.6716404 43.4768539,24.6709213 43.4761348,24.668764 C43.4711011,24.6536629 43.4725393,24.6378427 43.4696629,24.6220225 C43.4667865,24.6062022 43.4603146,24.5918202 43.4603146,24.576 L43.4603146,24.042427 L38.3604494,25.2404494 C38.3388764,25.2454831 38.3158652,25.2483596 38.2942921,25.2483596 C38.2331685,25.2483596 38.1806742,25.2246292 38.1332135,25.1922697 C38.1274607,25.1857978 38.1195506,25.1829213 38.1123596,25.1757303 C38.0699326,25.1397753 38.0404494,25.0930337 38.0239101,25.038382 C38.0224719,25.0333483 38.0167191,25.031191 38.0152809,25.0254382 C38.0124045,25.0132135 38.016,25.002427 38.0145618,24.9902022 C38.0131236,24.9794157 38.0080899,24.9707865 38.0080899,24.9592809 L38.0080899,24.3861573 L32.5558652,25.0520449 C32.5436404,25.0534831 32.5321348,25.0534831 32.5206292,25.0534831 C32.4515955,25.0534831 32.3919101,25.0268764 32.3422921,24.9866067 C32.3372584,24.9822921 32.3322247,24.9808539 32.3279101,24.9765393 C32.2826067,24.9348315 32.2538427,24.8787416 32.2430562,24.8154607 C32.241618,24.8097079 32.2358652,24.8061124 32.2351461,24.8003596 C32.234427,24.7946067 32.2365843,24.7888539 32.2365843,24.7838202 C32.2365843,24.7773483 32.2329888,24.7723146 32.2329888,24.7665618 L32.2329888,24.1661124 L26.6283146,24.348764 C26.6254382,24.348764 26.6218427,24.348764 26.6189663,24.348764 C26.5801348,24.348764 26.5427416,24.3408539 26.5082247,24.3264719 C26.496,24.3221573 26.4866517,24.3120899 26.4758652,24.305618 C26.4557303,24.2933933 26.4341573,24.2833258 26.417618,24.2660674 C26.4068315,24.256 26.4010787,24.2423371 26.3917303,24.2293933 C26.3787865,24.2128539 26.3644045,24.1963146 26.3564944,24.1768989 C26.3493034,24.1610787 26.3485843,24.142382 26.3442697,24.1244045 C26.3406742,24.1071461 26.332764,24.0906067 26.3320449,24.071191 C26.3320449,24.0697528 26.332764,24.0683146 26.332764,24.0668764 C26.332764,24.0654382 26.3320449,24.064 26.3320449,24.0618427 L26.3320449,23.3707865 L20.7014831,23.0658876 C20.6964494,23.0651685 20.6921348,23.0622921 20.686382,23.0622921 C20.6712809,23.0601348 20.6554607,23.0601348 20.6403596,23.0551011 C20.6346067,23.0536629 20.629573,23.0493483 20.6238202,23.047191 C20.615191,23.0435955 20.6072809,23.0421573 20.5986517,23.0385618 C20.586427,23.032809 20.5763596,23.0234607 20.5648539,23.0169888 C20.551191,23.0083596 20.5389663,23.0011685 20.5274607,22.9911011 C20.5209888,22.9853483 20.5145169,22.9803146 20.5094831,22.9752809 C20.5001348,22.9659326 20.494382,22.954427 20.487191,22.9443596 C20.4778427,22.9306966 20.4684944,22.919191 20.4613034,22.904809 C20.4577079,22.8968989 20.4533933,22.8897079 20.4497978,22.8825169 C20.4454831,22.8710112 20.444764,22.8587865 20.4418876,22.8472809 C20.437573,22.8307416 20.4339775,22.8142022 20.4325393,22.7969438 C20.4318202,22.7904719 20.4289438,22.7854382 20.4289438,22.7789663 L20.4289438,22.1245843 L14.9594607,21.2026966 C14.9479551,21.2005393 14.9386067,21.1933483 14.9278202,21.1904719 C14.9105618,21.1847191 14.8940225,21.1804045 14.8782022,21.1724944 C14.8746067,21.1703371 14.869573,21.1710562 14.8652584,21.1688989 C14.8631011,21.1681798 14.862382,21.1653034 14.8602247,21.1645843 C14.8487191,21.1573933 14.8400899,21.1480449 14.8293034,21.1394157 C14.8163596,21.1286292 14.8041348,21.1192809 14.7926292,21.1063371 C14.7875955,21.0998652 14.7811236,21.0948315 14.7760899,21.0897978 C14.7688989,21.0797303 14.7653034,21.0682247 14.7602697,21.0574382 C14.7516404,21.0430562 14.7444494,21.0286742 14.7386966,21.0128539 C14.7358202,21.0049438 14.7315056,20.9984719 14.7300674,20.9905618 C14.727191,20.9783371 14.7286292,20.9661124 14.7264719,20.9538876 C14.7250337,20.9416629 14.72,20.9315955 14.72,20.9193708 L14.72,20.2434157 L9.54534831,18.887191 C9.5388764,18.8857528 9.5338427,18.8807191 9.52737079,18.8785618 C9.50795506,18.8720899 9.49141573,18.8627416 9.4741573,18.8519551 C9.45977528,18.8440449 9.44611236,18.8368539 9.43388764,18.8260674 C9.43244944,18.8246292 9.42957303,18.8253483 9.42741573,18.8239101 C9.42525843,18.8217528 9.42453933,18.8195955 9.42238202,18.8174382 C9.4108764,18.8066517 9.40368539,18.7937079 9.39433708,18.7814831 C9.38426966,18.7685393 9.37348315,18.7570337 9.36629213,18.7426517 C9.36341573,18.7368989 9.35982022,18.7325843 9.35694382,18.7268315 C9.35119101,18.7138876 9.34975281,18.6995056 9.3461573,18.6858427 C9.3418427,18.6700225 9.33608989,18.6549213 9.33465169,18.638382 C9.33393258,18.631191 9.33321348,18.6247191 9.33249438,18.6182472 C9.33249438,18.6153708 9.33105618,18.6132135 9.33105618,18.609618 L9.33105618,17.905618 L4.63820225,16.0524944 C4.63748315,16.0524944 4.63676404,16.0510562 4.63532584,16.0510562 C4.63244944,16.049618 4.62957303,16.0481798 4.62597753,16.0467416 C4.61662921,16.042427 4.6094382,16.0345169 4.60008989,16.0294831 C4.59002247,16.0237303 4.58067416,16.0172584 4.57132584,16.0100674 C4.56197753,16.0028764 4.54975281,15.9978427 4.5411236,15.9899326 C4.53680899,15.985618 4.53393258,15.978427 4.52961798,15.9733933 C4.52674157,15.9697978 4.52170787,15.9683596 4.51811236,15.964764 C4.51020225,15.9546966 4.50804494,15.943191 4.50229213,15.9331236 C4.49510112,15.921618 4.48503371,15.9122697 4.48,15.9000449 C4.4771236,15.893573 4.4771236,15.886382 4.47496629,15.8799101 C4.46849438,15.8626517 4.46633708,15.8446742 4.46346067,15.8266966 C4.46202247,15.8144719 4.45698876,15.8029663 4.45626966,15.7907416 C4.45626966,15.7893034 4.45555056,15.7885843 4.45555056,15.7871461 L4.45555056,15.061573 L0.668044944,13.056 L0.668044944,30.819236 L4.8625618,33.0405393 L9.70211236,34.8857528 Z" id="Shape"></path>
            <polygon id="Shape" points="9.536 17.3684494 18.5657528 7.1708764 16.9139775 6.49060674 5.3112809 15.7008539"></polygon>
            <polygon id="Shape" points="9.90489888 17.8524045 18.7613483 7.91226966 18.7613483 7.81806742 9.90489888 17.8186067"></polygon>
            <polygon id="Shape" points="20.508764 21.553618 23.6253483 10.247191 21.575191 9.93869663 15.4606742 20.7022022"></polygon>
            <path d="M32.8003596,23.8209438 C32.8025169,23.8338876 32.8089888,23.8446742 32.8089888,23.8583371 C32.8089888,23.8604944 32.8075506,23.8626517 32.8082697,23.8640899 C32.8082697,23.8655281 32.8089888,23.8669663 32.8089888,23.8684045 L32.8089888,24.4415281 L37.8340674,23.8274157 L32.0791011,13.6168989 C32.0791011,13.6168989 32.0791011,13.6161798 32.0791011,13.6161798 L31.7260225,13.0121348 L29.8743371,13.212764 L32.7989213,23.7921798 C32.8010787,23.8015281 32.7989213,23.8108764 32.8003596,23.8209438 Z" id="Shape"></path>
            <path d="M38.5466966,23.9201798 C38.549573,23.9244944 38.5488539,23.928809 38.5510112,23.9331236 C38.5510112,23.9345618 38.5510112,23.9345618 38.5517303,23.9352809 C38.5603596,23.9518202 38.5646742,23.9705169 38.5689888,23.9884944 C38.5725843,24.0021573 38.5804944,24.0129438 38.5819326,24.0273258 C38.5819326,24.0273258 38.5819326,24.0280449 38.5819326,24.028764 C38.5826517,24.0345169 38.5804944,24.0402697 38.5804944,24.0453034 C38.5812135,24.0510562 38.5840899,24.0560899 38.5840899,24.0611236 L38.5840899,24.5961348 L43.2151011,23.5081348 L34.744809,13.9225169 C34.7433708,13.9210787 34.7433708,13.9189213 34.7419326,13.9174831 C34.7404944,13.9160449 34.7390562,13.9160449 34.737618,13.9146067 L34.2723596,13.3450787 L32.7715955,13.6729888 L38.5452584,23.9173034 C38.5452584,23.9180225 38.5459775,23.9187416 38.5466966,23.9201798 Z" id="Shape"></path>
            <polygon id="Shape" points="14.8652584 19.6853933 20.9898427 8.84494382 19.1453483 8.34588764 10.1443596 18.4485393"></polygon>
            <path d="M43.9715955,23.5002247 C43.9802247,23.5117303 43.9866966,23.5246742 43.9938876,23.537618 C44.0017978,23.5512809 44.0097079,23.5635056 44.0154607,23.5778876 C44.0190562,23.5865169 44.0204944,23.5929888 44.0233708,23.601618 C44.0240899,23.6059326 44.0276854,23.608809 44.0284045,23.6131236 C44.0312809,23.6246292 44.0276854,23.6354157 44.0291236,23.6462022 C44.0305618,23.6577079 44.0363146,23.6677753 44.0363146,23.6792809 L44.0363146,24.1740225 L48.2286742,22.7408539 L37.2185169,13.9570337 C37.2177978,13.9570337 37.2177978,13.9563146 37.2170787,13.9555955 C37.2163596,13.9548764 37.2163596,13.9555955 37.2156404,13.9548764 L36.6317303,13.4773933 L35.463191,13.8671461 L43.9644045,23.4872809 C43.968,23.4915955 43.9687191,23.4959101 43.9715955,23.5002247 Z" id="Shape"></path>
            <polygon id="Shape" points="26.3320449 22.7933483 26.3320449 12.1276404 26.3320449 11.4905169 24.2013483 11.2819775 21.0897978 22.5100225"></polygon>
            <polygon id="Shape" points="29.2293034 13.0394607 29.034427 12.3577528 26.9073258 12.408809 26.9073258 23.0975281 26.9073258 23.7641348 32.1466966 23.5929888"></polygon>
            <path d="M41.9221573,9.71289888 L41.9221573,9.56188764 C41.9221573,9.55110112 41.927191,9.54247191 41.9286292,9.53240449 C41.9300674,9.51730337 41.9300674,9.50220225 41.934382,9.48782022 C41.9365393,9.47991011 41.9394157,9.472 41.9422921,9.46408989 C41.9473258,9.45042697 41.9545169,9.43892135 41.9609888,9.42669663 C41.9681798,9.41375281 41.9739326,9.40152809 41.9818427,9.39074157 C41.9875955,9.38355056 41.9933483,9.37707865 41.998382,9.37060674 C42.0084494,9.35982022 42.0185169,9.35262921 42.0293034,9.3432809 C42.040809,9.33393258 42.0515955,9.32458427 42.0645393,9.31667416 C42.0688539,9.31451685 42.0717303,9.30948315 42.076764,9.30732584 C42.0803596,9.30588764 42.0846742,9.30588764 42.0882697,9.30444944 C42.1012135,9.29869663 42.1141573,9.29582022 42.1285393,9.29150562 C42.1386067,9.28862921 42.1465169,9.2821573 42.1573034,9.28 L60.7482247,5.77438202 L59.363236,3.99388764 L58.7189213,4.19164045 C58.7182022,4.19164045 58.7182022,4.19164045 58.716764,4.19164045 C58.716764,4.19164045 58.716764,4.19235955 58.7153258,4.19235955 L41.5115506,9.25986517 L41.9221573,9.71289888 Z" id="Shape"></path>
            <path d="M42.7289888,9.93510112 C42.7340225,9.92647191 42.7419326,9.92 42.7469663,9.91208989 C42.7541573,9.90202247 42.7606292,9.89195506 42.7678202,9.88260674 C42.7750112,9.87541573 42.7829213,9.86822472 42.7901124,9.86175281 C42.8008989,9.85240449 42.8124045,9.84449438 42.8246292,9.83658427 C42.8354157,9.83011236 42.844764,9.82292135 42.8562697,9.81716854 C42.8663371,9.81285393 42.8756854,9.80997753 42.8857528,9.80566292 C42.8929438,9.80350562 42.8979775,9.79847191 42.9044494,9.79631461 C42.9130787,9.7941573 42.9209888,9.79631461 42.929618,9.7948764 C42.9375281,9.7934382 42.9447191,9.78840449 42.9526292,9.78768539 L62.563236,8.02804494 L61.7290787,6.2108764 L61.304809,6.25258427 L42.6448539,9.77258427 L42.7289888,9.93510112 Z" id="Shape"></path>
            <path d="M40.704,9.39649438 L40.704,9.11173034 C40.704,9.10957303 40.7054382,9.10741573 40.7054382,9.10525843 C40.7054382,9.09950562 40.7054382,9.09447191 40.7061573,9.0887191 C40.7075955,9.07002247 40.7140674,9.05348315 40.7198202,9.03550562 C40.7234157,9.0225618 40.7241348,9.00817978 40.7298876,8.99595506 C40.7313258,8.99164045 40.7342022,8.98732584 40.7363596,8.98301124 C40.7442697,8.96719101 40.7564944,8.95424719 40.7672809,8.93986517 C40.7766292,8.92764045 40.7831011,8.91469663 40.7938876,8.90462921 C40.7960449,8.90247191 40.796764,8.90031461 40.7989213,8.8981573 C40.8003596,8.8967191 40.803236,8.896 40.8046742,8.8945618 C40.817618,8.88377528 40.832,8.87802247 40.8456629,8.87011236 C40.860764,8.86148315 40.8729888,8.85141573 40.8895281,8.84494382 C40.8952809,8.84278652 40.8995955,8.84062921 40.9046292,8.83847191 C40.9075056,8.83775281 40.9089438,8.83631461 40.9111011,8.83559551 L58.0508764,3.78678652 L56.0848539,2.07316854 L55.4204045,2.38094382 C55.4189663,2.38166292 55.4160899,2.38094382 55.4146517,2.38166292 C55.4132135,2.38238202 55.4117753,2.38453933 55.409618,2.38525843 L40.0007191,8.80898876 L40.704,9.39649438 Z" id="Shape"></path>
            <path d="M56.5573034,19.9500225 L41.0067416,13.4191461 C41.0053034,13.418427 41.0045843,13.4177079 41.0031461,13.4169888 C41.0017079,13.4162697 41.0002697,13.4169888 40.9988315,13.4162697 L40.4465618,13.1645843 L39.9762697,13.5097528 L53.5155056,21.3091236 C53.5248539,21.3141573 53.5298876,21.3235056 53.5370787,21.3285393 C53.5478652,21.3357303 53.5579326,21.3414831 53.568,21.3493933 C53.575191,21.3565843 53.5802247,21.3637753 53.5859775,21.3709663 C53.5974831,21.3839101 53.6053933,21.3968539 53.6140225,21.411236 C53.6190562,21.4198652 53.6269663,21.425618 53.6305618,21.4335281 C53.632,21.4356854 53.6312809,21.4378427 53.632,21.4407191 C53.6363146,21.4486292 53.6377528,21.4565393 53.6406292,21.4651685 C53.6456629,21.4809888 53.6492584,21.496809 53.6514157,21.5133483 C53.653573,21.5270112 53.6578876,21.5385169 53.6578876,21.5514607 C53.6578876,21.5543371 53.6593258,21.5557753 53.6593258,21.5579326 L53.6593258,21.9138876 L56.5573034,19.9500225 Z" id="Shape"></path>
            <path d="M52.7554157,21.5349213 L39.3067865,13.7880449 C39.3046292,13.7866067 39.303191,13.7844494 39.3003146,13.7830112 C39.2988764,13.7822921 39.2974382,13.7830112 39.296,13.781573 L38.7257528,13.4191461 L37.9361798,13.7945169 L48.9966742,22.6171685 C49.0009888,22.620764 49.0038652,22.6257978 49.0074607,22.6293933 C49.0139326,22.6351461 49.0196854,22.6394607 49.0247191,22.6444944 C49.0347865,22.6552809 49.0412584,22.6675056 49.0491685,22.6797303 C49.0585169,22.6926742 49.0678652,22.7041798 49.0743371,22.7185618 C49.0779326,22.7257528 49.0815281,22.7329438 49.0844045,22.7401348 C49.0858427,22.7430112 49.0887191,22.7458876 49.0894382,22.748764 C49.0937528,22.7595506 49.0915955,22.769618 49.0937528,22.7796854 C49.0973483,22.7947865 49.1009438,22.8106067 49.102382,22.8257079 C49.102382,22.8314607 49.1052584,22.8364944 49.1052584,22.8415281 L49.1052584,23.2830562 L52.7554157,21.5349213 Z" id="Shape"></path>
            <path d="M39.6095281,10.353618 C39.6181573,10.3586517 39.6267865,10.360809 39.6346966,10.3672809 L41.1750112,11.6501573 C41.1800449,11.6544719 41.1829213,11.6609438 41.187236,11.6652584 C41.1929888,11.6702921 41.1994607,11.6724494 41.2037753,11.6774831 L41.6798202,12.2017079 C41.6977978,12.1909213 41.7193708,12.1866067 41.7395056,12.1801348 C41.7517303,12.1765393 41.7625169,12.1686292 41.7754607,12.1664719 C41.7905618,12.1643146 41.8078202,12.167191 41.8229213,12.167191 C41.8452135,12.167191 41.8667865,12.1650337 41.8883596,12.1700674 C41.8905169,12.1707865 41.8919551,12.1700674 41.8941124,12.1700674 L42.2148315,12.2498876 L42.5513708,11.7702472 C42.5564045,11.7630562 42.5635955,11.7594607 42.5686292,11.7537079 C42.581573,11.7386067 42.595236,11.7256629 42.6110562,11.7134382 C42.6254382,11.7019326 42.6398202,11.6918652 42.6556404,11.683236 C42.6707416,11.6746067 42.688,11.669573 42.7045393,11.6645393 C42.7239551,11.6587865 42.7426517,11.6544719 42.7620674,11.6530337 C42.7706966,11.6523146 42.7771685,11.648 42.7857978,11.648 L42.8483596,11.648 L42.9777978,11.3244045 C42.929618,11.3244045 42.8864719,11.3093034 42.8462022,11.2884494 C42.8346966,11.2826966 42.8267865,11.2747865 42.8167191,11.2683146 C42.7843596,11.2460225 42.759191,11.2186966 42.7383371,11.1863371 C42.7347416,11.1798652 42.7268315,11.1769888 42.7239551,11.1705169 L42.439191,10.6247191 C42.4284045,10.6391011 42.4197753,10.6549213 42.4068315,10.6678652 C42.4053933,10.6693034 42.4039551,10.6721798 42.4025169,10.6743371 C42.3989213,10.6772135 42.3938876,10.6757753 42.3910112,10.6786517 C42.3413933,10.7203596 42.2795506,10.7484045 42.2090787,10.7484045 C42.168809,10.7484045 42.1306966,10.7397753 42.0961798,10.7246742 C42.0889888,10.7217978 42.0839551,10.7160449 42.0782022,10.7124494 C42.0501573,10.6973483 42.0235506,10.680809 42.0026966,10.6577978 C42.0005393,10.6563596 41.998382,10.6556404 41.9962247,10.6534831 L41.2778427,9.85959551 L41.2778427,10.0106067 C41.2778427,10.0242697 41.2720899,10.0350562 41.2706517,10.048 C41.2677753,10.0681348 41.265618,10.0882697 41.2577079,10.1084045 C41.251236,10.126382 41.2411685,10.1422022 41.2311011,10.1587416 C41.2239101,10.1709663 41.2203146,10.1839101 41.2116854,10.1946966 C41.208809,10.1982921 41.2044944,10.1990112 41.201618,10.2026067 C41.1822022,10.2241798 41.1577528,10.2407191 41.1325843,10.2551011 C41.1225169,10.2608539 41.1160449,10.268764 41.1059775,10.2730787 C41.0700225,10.2888989 41.031191,10.2982472 40.9902022,10.2982472 C40.9254831,10.2982472 40.8686742,10.2730787 40.8212135,10.2371236 C40.8168989,10.2342472 40.810427,10.2356854 40.8061124,10.2320899 L39.7375281,9.3411236 L39.7375281,9.69060674 C39.7375281,9.69492135 39.7353708,9.69923596 39.7353708,9.70355056 C39.7339326,9.72440449 39.7281798,9.74382022 39.722427,9.76395506 C39.7181124,9.78121348 39.7137978,9.79847191 39.7073258,9.81429213 C39.7044494,9.81932584 39.7044494,9.82435955 39.7022921,9.82939326 C39.6979775,9.83658427 39.6900674,9.84017978 39.6857528,9.84665169 C39.665618,9.87685393 39.6411685,9.90202247 39.6109663,9.9228764 C39.6001798,9.93006742 39.5922697,9.93797753 39.580764,9.94373034 C39.5404944,9.96458427 39.4980674,9.97896629 39.4498876,9.97896629 C39.4491685,9.97896629 39.4484494,9.97896629 39.4484494,9.97896629 C39.4031461,9.97896629 39.3614382,9.96602247 39.3233258,9.94660674 C39.3190112,9.94516854 39.3146966,9.94588764 39.3111011,9.94373034 L37.7484944,9.0872809 L37.7484944,9.32961798 L39.587236,10.3370787 C39.5965843,10.3399551 39.6023371,10.3485843 39.6095281,10.353618 Z" id="Shape"></path>
            <path d="M39.1629663,8.72701124 C39.1629663,8.72701124 39.1629663,8.72629213 39.1629663,8.72629213 C39.1629663,8.71262921 39.1687191,8.70040449 39.1715955,8.68674157 C39.1737528,8.66804494 39.1759101,8.64934831 39.182382,8.63065169 C39.1845393,8.62633708 39.1838202,8.62130337 39.1859775,8.61626966 C39.1917303,8.60116854 39.2025169,8.59038202 39.2111461,8.5767191 C39.2183371,8.56593258 39.2212135,8.55298876 39.2298427,8.54292135 C39.232,8.54004494 39.2363146,8.53860674 39.239191,8.53573034 C39.2420674,8.53213483 39.2435056,8.52782022 39.2471011,8.52422472 C39.2593258,8.5127191 39.274427,8.50624719 39.2873708,8.49689888 C39.3024719,8.48683146 39.3146966,8.47532584 39.331236,8.46813483 C39.3341124,8.46669663 39.3369888,8.46310112 39.3405843,8.46166292 C39.3413034,8.46166292 39.3413034,8.46166292 39.3413034,8.46166292 L54.663191,2.07460674 L52.0880899,0.529258427 L38.051236,8.59469663 L39.1644045,9.20521348 L39.1644045,8.72701124 L39.1629663,8.72701124 Z" id="Shape"></path>
            <path d="M43.3553258,10.3665618 C43.3582022,10.3665618 43.3610787,10.3651236 43.3646742,10.3651236 C43.3653933,10.3651236 43.3653933,10.3651236 43.3653933,10.3651236 L63.5505618,10.4284045 L63.2111461,8.53860674 L63.0364045,8.56377528 C63.0320899,8.56449438 63.0284944,8.56377528 63.0248989,8.56449438 C63.0234607,8.56449438 63.0220225,8.56521348 63.0213034,8.56521348 L43.3452584,10.3313258 L43.3553258,10.3665618 Z" id="Shape"></path>
            <polygon id="Shape" points="63.7130787 11.0036854 43.6249888 10.9404045 43.6149213 11.0346067 63.5685393 12.9114607"></polygon>
            <path d="M62.4747865,15.3111011 C62.4841348,15.3125393 62.4920449,15.3190112 62.5013933,15.3218876 C62.5193708,15.3276404 62.5366292,15.3341124 62.5531685,15.3434607 C62.5617978,15.3477753 62.5718652,15.3499326 62.5797753,15.3549663 C62.5797753,15.3549663 62.5797753,15.3549663 62.5804944,15.3549663 C62.5840899,15.3571236 62.5862472,15.3614382 62.5898427,15.3643146 L63.3549663,13.4694831 L43.4869213,11.6005393 L43.4401798,11.7177528 L62.4726292,15.310382 C62.4733483,15.310382 62.4740674,15.3111011 62.4747865,15.3111011 Z" id="Shape"></path>
            <path d="M59.6796404,17.9746517 L42.2601348,12.8539326 L41.877573,12.7590112 L41.8229213,12.7956854 L41.6007191,13.0452135 L57.2692135,19.6257079 C57.2778427,19.6293034 57.2835955,19.6364944 57.2907865,19.640809 C57.3066067,19.6494382 57.3202697,19.6587865 57.3353708,19.6702921 C57.344,19.676764 57.3533483,19.6810787 57.3619775,19.6889888 C57.3691685,19.6961798 57.3720449,19.704809 57.3770787,19.712 C57.3828315,19.7184719 57.3907416,19.7227865 57.3950562,19.7292584 C57.400809,19.7371685 57.4015281,19.7465169 57.4065618,19.7551461 C57.4108764,19.7644944 57.4187865,19.7709663 57.422382,19.7810337 C57.4259775,19.790382 57.4259775,19.8004494 57.4288539,19.8105169 C57.4346067,19.8277753 57.4374831,19.8450337 57.4396404,19.8637303 C57.4403596,19.8737978 57.4446742,19.882427 57.4446742,19.8924944 L57.4446742,20.117573 L59.6796404,17.9746517 Z" id="Shape"></path>
            <path d="M61.9340225,15.793618 L43.0159101,12.2225618 L42.936809,12.2225618 L42.8030562,12.4131236 L60.3182022,17.5618876 C60.3239551,17.5633258 60.3275506,17.5676404 60.3325843,17.5697978 C60.3340225,17.5697978 60.3354607,17.5697978 60.3368989,17.5705169 C60.3412135,17.5719551 60.3462472,17.571236 60.3498427,17.5733933 C60.3606292,17.5777079 60.3685393,17.5870562 60.3778876,17.5920899 C60.380764,17.5935281 60.3836404,17.5956854 60.3865169,17.5971236 C60.401618,17.6064719 60.4167191,17.614382 60.4296629,17.6266067 C60.4339775,17.6302022 60.4397303,17.6330787 60.4433258,17.6373933 C60.444764,17.6381124 60.4454831,17.6381124 60.4462022,17.6388315 C60.4548315,17.6481798 60.458427,17.6596854 60.465618,17.6690337 C60.4764045,17.6841348 60.487191,17.6970787 60.4951011,17.713618 C60.4979775,17.7193708 60.5022921,17.7251236 60.5044494,17.7308764 C60.5102022,17.7445393 60.5109213,17.7582022 60.5137978,17.7718652 C60.5181124,17.7884045 60.522427,17.8042247 60.5238652,17.8222022 C60.5238652,17.8279551 60.5267416,17.8329888 60.5267416,17.8380225 L60.5267416,17.8660674 L61.9340225,15.793618 Z" id="Shape"></path>
        </g>
    </g>
</svg>