<?xml version="1.0" encoding="utf-8"?>
<!-- Generator: Adobe Illustrator 23.0.3, SVG Export Plug-In . SVG Version: 6.00 Build 0)  -->
<svg version="1.1" id="Layer_1" xmlns="http://www.w3.org/2000/svg" xmlns:xlink="http://www.w3.org/1999/xlink" x="0px" y="0px"
	 viewBox="0 0 612 612" style="enable-background:new 0 0 612 612;" xml:space="preserve">
<style type="text/css">
	.st0{opacity:0.2;}
	.st1{opacity:0.5;fill:#E2C042;enable-background:new    ;}
	.st2{opacity:0.1;fill:#E2C042;enable-background:new    ;}
	.st3{opacity:0.3;fill:#E2C042;enable-background:new    ;}
</style>
<g class="st0">
	<polygon class="st1" points="76.5,0 76.5,76.5 0,76.5 	"/>
	<polygon class="st2" points="76.5,76.5 76.5,0 153,76.5 	"/>
	<path class="st2" d="M229.5,0L229.5,0c0,42.25-34.25,76.5-76.5,76.5l0,0V0H229.5z"/>
	<rect x="229.5" class="st3" width="76.5" height="76.5"/>
	<rect x="229.5" y="382.5" class="st3" width="76.5" height="76.5"/>
	<polygon class="st2" points="229.5,535.5 229.5,459 306,459 	"/>
	<path class="st2" d="M229.5,612L229.5,612v-76.5H306l0,0C306,577.75,271.75,612,229.5,612z"/>
	<polygon class="st2" points="153,612 153,535.5 229.5,535.5 	"/>
	<rect x="76.5" y="459" class="st2" width="76.5" height="76.5"/>
	<path class="st3" d="M0,535.5L0,535.5V459h76.5l0,0C76.5,501.25,42.25,535.5,0,535.5z"/>
	<polygon class="st3" points="76.5,612 0,612 0,535.5 	"/>
	<polygon class="st2" points="76.5,153 0,153 76.5,76.5 	"/>
	<rect x="153" y="229.5" class="st2" width="76.5" height="76.5"/>
	<polygon class="st3" points="229.5,153 229.5,76.5 306,153 	"/>
	<polygon class="st3" points="153,382.5 76.5,306 153,306 	"/>
	<polygon class="st3" points="229.5,229.5 306,229.5 229.5,306 	"/>
	<path class="st1" d="M306,153v76.5l0,0c-42.25,0-76.5-34.25-76.5-76.5H306z"/>
	<path class="st1" d="M229.5,306H306l0,0c0,42.25-34.25,76.5-76.5,76.5l0,0V306z"/>
	<rect x="0" y="306" class="st1" width="76.5" height="76.5"/>
	<polygon class="st2" points="0,306 0,229.5 76.5,229.5 	"/>
	<polygon class="st3" points="229.5,229.5 153,229.5 153,153 	"/>
	<path class="st2" d="M229.5,153L229.5,153c-42.25,0-76.5-34.25-76.5-76.5l0,0h76.5V153z"/>
	<polygon class="st3" points="76.5,229.5 0,153 76.5,153 	"/>
	<path class="st1" d="M153,153H76.5V76.5l0,0C118.75,76.5,153,110.75,153,153L153,153z"/>
	<path class="st1" d="M153,306L153,306c-42.25,0-76.5-34.25-76.5-76.5l0,0H153V306z"/>
	<polygon class="st1" points="229.5,459 153,382.5 229.5,382.5 	"/>
	<polygon class="st3" points="76.5,459 0,382.5 76.5,382.5 	"/>
	<path class="st3" d="M153,612L153,612c-42.25,0-76.5-34.25-76.5-76.5l0,0H153V612z"/>
	<rect x="382.5" class="st1" width="76.5" height="76.5"/>
	<polygon class="st2" points="612,76.5 535.5,76.5 612,0 	"/>
	<path class="st3" d="M382.5,153H306V76.5l0,0C348.25,76.5,382.5,110.75,382.5,153L382.5,153z"/>
	<polygon class="st2" points="459,153 382.5,153 459,76.5 	"/>
	<rect x="459" y="76.5" class="st3" width="76.5" height="76.5"/>
	<path class="st1" d="M612,153L612,153c-42.25,0-76.5-34.25-76.5-76.5l0,0H612V153z"/>
	<rect x="535.5" y="535.5" class="st2" width="76.5" height="76.5"/>
	<polygon class="st2" points="535.38,535.23 535.38,458.73 611.88,458.73 	"/>
	<polygon class="st1" points="535.5,535.23 535.5,611.73 459,611.73 	"/>
	<polygon class="st2" points="459,382.5 535.5,382.5 459,459 	"/>
	<polygon class="st3" points="459,306 535.5,382.5 459,382.5 	"/>
	<path class="st3" d="M459,229.5L459,229.5V306h-76.5l0,0C382.5,263.75,416.75,229.5,459,229.5z"/>
	<polygon class="st3" points="382.5,153 459,153 459,229.5 	"/>
	<polygon class="st3" points="459,229.5 535.5,229.5 535.5,306 	"/>
	<path class="st1" d="M459,153h76.5l0,0c0,42.25-34.25,76.5-76.5,76.5l0,0V153z"/>
	<rect x="535.5" y="153" class="st2" width="76.5" height="76.5"/>
	<rect x="306" y="229.5" class="st1" width="76.5" height="76.5"/>
	<path class="st1" d="M306,458.73h76.5l0,0c0,42.25-34.25,76.5-76.5,76.5l0,0V458.73z"/>
	<rect x="382.5" y="382.5" class="st1" width="76.5" height="76.5"/>
	<polygon class="st2" points="459,459 459,535.5 382.5,535.5 	"/>
	<path class="st2" d="M382.5,382.5H306V306l0,0C348.25,306,382.5,340.25,382.5,382.5L382.5,382.5z"/>
	<path class="st3" d="M535.5,459v76.5l0,0c-42.25,0-76.5-34.25-76.5-76.5l0,0H535.5z"/>
	<polygon class="st2" points="382.5,611.73 306,611.73 382.5,535.23 	"/>
	<polygon class="st3" points="382.5,535.5 459,612 382.5,612 	"/>
</g>
</svg>
