<svg enable-background="new 0 0 612 612" viewBox="0 0 612 612" xmlns="http://www.w3.org/2000/svg"><g fill="#e2c042" opacity=".2"><path d="m76.5 0v76.5h-76.5z" opacity=".5"/><path d="m76.5 76.5v-76.5l76.5 76.5z" opacity=".1"/><path d="m229.5 0c0 42.25-34.25 76.5-76.5 76.5v-76.5z" opacity=".1"/><path d="m229.5 0h76.5v76.5h-76.5z" opacity=".3"/><path d="m229.5 382.5h76.5v76.5h-76.5z" opacity=".3"/><path d="m229.5 535.5v-76.5h76.5z" opacity=".1"/><path d="m229.5 612v-76.5h76.5c0 42.25-34.25 76.5-76.5 76.5z" opacity=".1"/><path d="m153 612v-76.5h76.5z" opacity=".1"/><path d="m76.5 459h76.5v76.5h-76.5z" opacity=".1"/><path d="m0 535.5v-76.5h76.5c0 42.25-34.25 76.5-76.5 76.5z" opacity=".3"/><path d="m76.5 612h-76.5v-76.5z" opacity=".3"/><path d="m76.5 153h-76.5l76.5-76.5z" opacity=".1"/><path d="m153 229.5h76.5v76.5h-76.5z" opacity=".1"/><path d="m229.5 153v-76.5l76.5 76.5z" opacity=".3"/><path d="m153 382.5-76.5-76.5h76.5z" opacity=".3"/><path d="m229.5 229.5h76.5l-76.5 76.5z" opacity=".3"/><path d="m306 153v76.5c-42.25 0-76.5-34.25-76.5-76.5z" opacity=".5"/><path d="m229.5 306h76.5c0 42.25-34.25 76.5-76.5 76.5z" opacity=".5"/><path d="m0 306h76.5v76.5h-76.5z" opacity=".5"/><path d="m0 306v-76.5h76.5z" opacity=".1"/><path d="m229.5 229.5h-76.5v-76.5z" opacity=".3"/><path d="m229.5 153c-42.25 0-76.5-34.25-76.5-76.5h76.5z" opacity=".1"/><path d="m76.5 229.5-76.5-76.5h76.5z" opacity=".3"/><path d="m153 153h-76.5v-76.5c42.25 0 76.5 34.25 76.5 76.5z" opacity=".5"/><path d="m153 306c-42.25 0-76.5-34.25-76.5-76.5h76.5z" opacity=".5"/><path d="m229.5 459-76.5-76.5h76.5z" opacity=".5"/><path d="m76.5 459-76.5-76.5h76.5z" opacity=".3"/><path d="m153 612c-42.25 0-76.5-34.25-76.5-76.5h76.5z" opacity=".3"/><path d="m382.5 0h76.5v76.5h-76.5z" opacity=".5"/><path d="m612 76.5h-76.5l76.5-76.5z" opacity=".1"/><path d="m382.5 153h-76.5v-76.5c42.25 0 76.5 34.25 76.5 76.5z" opacity=".3"/><path d="m459 153h-76.5l76.5-76.5z" opacity=".1"/><path d="m459 76.5h76.5v76.5h-76.5z" opacity=".3"/><path d="m612 153c-42.25 0-76.5-34.25-76.5-76.5h76.5z" opacity=".5"/><path d="m535.5 535.5h76.5v76.5h-76.5z" opacity=".1"/><path d="m535.38 535.23v-76.5h76.5z" opacity=".1"/><path d="m535.5 535.23v76.5h-76.5z" opacity=".5"/><path d="m459 382.5h76.5l-76.5 76.5z" opacity=".1"/><path d="m459 306 76.5 76.5h-76.5z" opacity=".3"/><path d="m459 229.5v76.5h-76.5c0-42.25 34.25-76.5 76.5-76.5z" opacity=".3"/><path d="m382.5 153h76.5v76.5z" opacity=".3"/><path d="m459 229.5h76.5v76.5z" opacity=".3"/><path d="m459 153h76.5c0 42.25-34.25 76.5-76.5 76.5z" opacity=".5"/><path d="m535.5 153h76.5v76.5h-76.5z" opacity=".1"/><path d="m306 229.5h76.5v76.5h-76.5z" opacity=".5"/><path d="m306 458.73h76.5c0 42.25-34.25 76.5-76.5 76.5z" opacity=".5"/><path d="m382.5 382.5h76.5v76.5h-76.5z" opacity=".5"/><path d="m459 459v76.5h-76.5z" opacity=".1"/><path d="m382.5 382.5h-76.5v-76.5c42.25 0 76.5 34.25 76.5 76.5z" opacity=".1"/><path d="m535.5 459v76.5c-42.25 0-76.5-34.25-76.5-76.5z" opacity=".3"/><path d="m382.5 611.73h-76.5l76.5-76.5z" opacity=".1"/><path d="m382.5 535.5 76.5 76.5h-76.5z" opacity=".3"/></g></svg>