<?xml version="1.0" encoding="utf-8"?>
<!-- Generator: Adobe Illustrator 22.0.1, SVG Export Plug-In . SVG Version: 6.00 Build 0)  -->
<svg version="1.1" id="Layer_1" xmlns="http://www.w3.org/2000/svg" xmlns:xlink="http://www.w3.org/1999/xlink" x="0px" y="0px"
	 viewBox="0 0 800 653" style="enable-background:new 0 0 800 653;" xml:space="preserve">
<style type="text/css">
	.st0{fill:#393E41;}
</style>
<g>
	<g>
		<g>
			<path class="st0" d="M195.2,574.7c0,43.1-35,78.1-78.1,78.1S39,617.7,39,574.7c0-43.1,35.1-78.1,78.1-78.1
				S195.2,531.6,195.2,574.7z M165.4,574.7c0-26.6-21.7-48.3-48.3-48.3c-26.6,0-48.3,21.7-48.3,48.3c0,26.6,21.7,48.3,48.3,48.3
				C143.7,623,165.4,601.3,165.4,574.7z"/>
		</g>
		<g>
			<path class="st0" d="M336.3,652.8c-8.2,0-14.9-6.7-14.9-14.9V511.4c0-6,3.6-11.5,9.2-13.8c5.6-2.3,12-1,16.3,3.2l101,101v-90.4
				c0-8.2,6.7-14.9,14.9-14.9c8.2,0,14.9,6.7,14.9,14.9v126.4c0,6-3.6,11.5-9.2,13.8c-5.6,2.3-12,1-16.3-3.2l-101-101v90.4
				C351.2,646.1,344.6,652.8,336.3,652.8z"/>
		</g>
		<g>
			<g>
				<path class="st0" d="M745.8,652.8H619.4c-8.2,0-14.9-6.7-14.9-14.9V511.4c0-8.2,6.7-14.9,14.9-14.9h126.4
					c8.2,0,14.9,6.7,14.9,14.9c0,8.2-6.7,14.9-14.9,14.9H634.4V623h111.5c8.2,0,14.9,6.7,14.9,14.9S754.1,652.8,745.8,652.8z"/>
			</g>
			<g>
				<path class="st0" d="M716,589.6h-96.5c-8.2,0-14.9-6.7-14.9-14.9s6.7-14.9,14.9-14.9H716c8.2,0,14.9,6.7,14.9,14.9
					S724.2,589.6,716,589.6z"/>
			</g>
		</g>
	</g>
	<g>
		<g>
			<path class="st0" d="M384.6,0.8h-87.2c-8.2,0-14.9,6.7-14.9,14.9v315.4h117.1V15.8C399.5,7.5,392.8,0.8,384.6,0.8z"/>
			<g>
				<path class="st0" d="M282.5,433.3V331.2h219.2c8.2,0,14.9,6.7,14.9,14.9v87.2c0,8.2-6.7,14.9-14.9,14.9H297.4
					C289.2,448.2,282.5,441.5,282.5,433.3z"/>
			</g>
		</g>
		<g>
			<path class="st0" d="M78.1,291.5C3.4,248.4-22.2,152.9,20.9,78.3C61.2,8.5,147.3-18.4,219.3,13.6c8.1,3.6,11.4,13.5,7,21.2
				L78.1,291.5z"/>
			<g>
				<path class="st0" d="M156.1,156.3c74.7,43.1,100.2,138.6,57.1,213.2C173,439.3,86.9,466.2,14.9,434.2c-8.1-3.6-11.4-13.5-7-21.2
					L156.1,156.3z"/>
			</g>
		</g>
		<g>
			<g>
				<path class="st0" d="M565.3,22.8L798,425.8c5.7,10-1.4,22.4-12.9,22.4H580.2c-8.2,0-14.9-6.7-14.9-14.9V22.8z"/>
			</g>
			<path class="st0" d="M565.3,426.3L798,23.2c5.7-10-1.4-22.4-12.9-22.4H580.2c-8.2,0-14.9,6.7-14.9,14.9V426.3z"/>
		</g>
	</g>
</g>
</svg>
