<svg height="225" viewBox="0 0 225 225" width="225" xmlns="http://www.w3.org/2000/svg"><path d="m212.403978 43.0189096-13.538853-7.135811c-.16519-.0866428-.343773-.1288534-.522357-.1288534-.23439 0-.471013.0755347-.669687.222161l-1.897449 1.4129439-12.165993-4.7320291c-.131705-.051097-.267875-.0755347-.406277-.0755347-.325915 0-.640668.1399614-.859433.3998897l-1.533585 1.8350498-14.045583-3.7767368c-.098221-.0266593-.196442-.039989-.29243-.039989-.392884 0-.767909.2066097-.968815.5598457l-1.20767 2.0994214-15.563542-2.6437158c-.062505-.0111081-.127241-.0155513-.189745-.0155513-.497802 0-.94426.3310199-1.075965.8264389l-.558073 2.0949781-16.425207-.9352977c-.020091-.0022217-.042414-.0022217-.062505-.0022217-.283501 0-.558073.1088589-.767908.3043606-.223229.2088313-.348238.5020838-.348238.8064444v1.69731l-17.438668.5598457c-.602718.0199945-1.078197.5109702-1.078197 1.1108049v1.8039473l-16.9587246 2.2482692c-.5536085.0733131-.9688149.5442944-.9688149 1.1019185v1.8950333l-16.0635757 3.7589639c-.5044981.1177454-.8616648.5665106-.8616648 1.0819241v2.1816209l-14.9809139 5.0919299c-.4509231.1532911-.7545148.575397-.7545148 1.0508215v2.0883133l-13.3223207 6.6315056c-.3772574.1888368-.6161127.5731753-.6161127.9930596v2.1793993l-11.4516597 7.6001275c-.312521.2066097-.4978012.5531809-.4978012.9241897v2.4970896l-9.0184611 8.5931871c-.2209969.2110529-.343773.4998622-.343773.8020012v2.6192781l-6.7616135 9.4262912c-.1361698.188836-.2076032.415441-.2076032.646488v2.568181l-3.9154408 10.108325c-.0468781.126632-.0736656.26215-.0736656.39989v2.974736l-.9866732 10.401577-.0044646 2.879207v14.273843c0 .06887.0066969.13774.0200906.20661l1.9912048 10.503772c.0178583.093307.0468781.17995.0870594.266593l4.7771056 10.112768c.037949.077757.0825948.15107.1384021.21994l7.7683774 9.708435c.0424135.053319.0892917.104416.1428667.148848l10.1591624 8.726483c.0446459.035546.0892917.06887.1361699.099973l12.3468089 7.724538c.183048.115523.3884189.171064.5960221.171064.1942094 0 .3861865-.048876.5603053-.148848l45.4070585-26.170565c.3460054-.199945.5580731-.564289.5580731-.961957v-2.774791c0-.39989-.2165323-.768677-.5670022-.968622l-5.4133089-3.05027v-2.126081c0-.346571-.1629574-.675369-.4397616-.884201l-4.5382504-3.432387v-2.226053c0-.266593-.0959885-.5243-.2723396-.724245l-3.5091636-4.047773v-2.561516c0-.197724-.053575-.393225-.1540282-.566511-.9442596-1.588451-2.0112954-3.510144-2.3528361-4.287707l.9688149-1.930579 2.7010737-4.218837 3.8172199-3.990012 5.4043798-3.459046 6.0584414-2.914753 7.2348591-2.532635 7.49827-1.568456 8.270643-.975287 8.054111-.191059 8.007233.588727 7.837578 1.364069 7.49827 2.352684 6.404447 2.717029 5.714668 3.330194c.174119.102194.368329.151069.56477.151069.191977 0 .383955-.048875.555841-.146626l45.407059-25.966177c.346005-.197723.560305-.564289.560305-.964179v-56.8865428c-.002232-.4109979-.232158-.7908931-.596022-.9819516zm-.537122 57.6251744-44.759207 25.540052v-56.0463499l44.759207-25.5400524zm-115.580737 65.800592-44.7592068 25.46184v-1.733629l44.7592068-25.461839zm52.746142-133.7449593 15.242527 2.585838-17.937092 31.5936362c-.008893.0154708 0 .0331517-.00667.0508327-.00667.0176809-.028902.0243113-.035572.0442023-.00667.0221012.011116.0419923.00667.0640935-.002223.0221011-.024456.037572-.024456.0596731v2.4289197l-6.932059-1.2045143 8.999671-33.0567342s0 0 0-.0022102zm17.86126 0 13.811861 3.6991541-26.809672 30.0790248c-.01799.0200557-.011244.0467965-.024736.0690806-.013493.0222841-.042727.0267409-.051722.0512533-.013492.0311977.004498.060167 0 .0913647-.006746.0311977-.03598.0490249-.03598.082451v2.1882947l-6.505652-1.8651758 18.176697-31.913003h.002249zm16.244425 1.6997167 11.731742 4.5698164-34.672427 27.5369295c-.006703.004454-.006703.015589-.013405.0222701-.020108.017816-.029045.0423131-.046918.0623561-.013405.0155891-.037981.0178161-.046918.0378591-.017874.0289511-.002234.0623562-.013405.0935343-.013405.0378591-.035747.0668102-.037982.1068963-.002234.008908-.011171.015589-.011171.024497v2.1067477l-5.384403-2.2737731 26.698596-30.1358456c.002234-.002227 0-.004454.002234-.006681.002235-.002227.004469 0 .004469-.002227zm15.066519 2.8328612 12.529246 6.6746237-44.320568 25.6199939-4.971217-2.9334334 34.605009-27.7367199zm-119.4820854 102.2213624v.193353l-62.3229462 5.800582v-2.129155l62.3229462-5.802856zm-.6514258-6.838427.6514258 3.734752-62.2089328 5.698177-1.8137301-9.631728zm60.1222812-64.3410601c-.002249.0066213.004497.0132427.002249.019864-.002249.0066213-.008995.0110355-.011243.0176569-.002249.0132426.011243.0242782.008994.039728 0 .0132426-.01574.0220711-.01574.0375209v2.271117l-7.33047-.6974471v-33.2766094-2.2865668l16.430595.9225723zm-7.912782 2.4980314v2.5446833l-7.412014.1760332-10.151725-35.6990994 17.563739-.5615238zm-18.681987-30.1404733 10.183404 35.3710493-7.608885.889574-19.5865827-34.0355847zm2.251392 36.9894279v.9709121l-19.2634557-33.5855407v-.9753658zm-19.9112072-31.8902777 19.3446352 34.1132007-6.695281 1.5808503-28.4321976-31.9972935zm11.9791962 36.5169342v1.4434057l-28.3286119-31.7883382v-1.6394238zm-29.0257496-29.1514951 28.4591776 31.9040462-6.4510431 2.0902881-36.6084472-29.0135526zm21.6603105 34.4414908v1.8191324l-36.8271954-28.9673719v-1.6275289zm-37.472617-26.5094795 36.9060448 29.1721136-5.3319905 2.5559317-44.5263664-25.3161058zm31.2403224 32.6314462v1.9294603l-44.7592068-25.4578506v-1.7376168zm-45.0697197-22.9997181 44.5031475 25.8294592-4.7564022 3.0657249-50.7676771-21.5293943zm39.4039973 29.1686147v1.9928586l-50.9915014-21.2410078v-1.9884542zm-50.896155-18.4037422 50.896155 21.5923078-3.3281947 3.336871-56.1618903-16.6798789zm46.9301494 25.7108668v2.051173l-56.0906516-16.6434819v-2.0534021zm-56.488772-13.8128498 56.488772 16.7533888-2.316546 3.643212-60.5729724-11.418687zm54.222483 20.8138288v1.849061l-60.6232294-11.184295v-1.846867zm-60.952268-8.34924 60.3856958 11.347353-1.4828836 3.950098-62.5397793-5.875076zm59.2525513 16.198447v1.931865l-62.8895184-5.802414v-2.129597zm-63.1202218-2.600713 62.5536496 5.708436-.1648905 3.923292h-63.2912002zm62.5536496 10.200567v2.128045l-63.4560907-.203966v-1.926346h63.4560907zm-27.0825828 60.054391-11.4443294-7.278006 50.9642191-21.050606 5.1264324 2.862211zm38.9805998-29.338062-50.9915015 21.40605v-1.626286l50.9915015-21.603175zm-51.2939102 18.573189-9.3293193-8.134827 55.8778532-16.227779 4.178804 3.140647zm46.19476-24.791349-56.0906515 16.292766v-1.837547l56.0906515-16.292765zm-56.3640904 13.459904-7.0920002-8.821171 59.7404835-11.008857 3.1490349 3.609461zm52.964657-20.616764-60.0566572 10.985036v-1.846556l60.0544249-11.184605v2.046125zm-60.2129246 8.152175-4.3763105-9.127385 62.4604614-5.603493 2.1287737 3.532685z" fill="#e0be41"/></svg>